<svg width="58" height="58" fill="none" xmlns="http://www.w3.org/2000/svg"><path d="M57.836 25.899c.073.681.121 1.37.146 2.064l-.5.018a28.996 28.996 0 010 2.038l.5.018a29.186 29.186 0 01-.146 2.064l-.497-.053c-.072.68-.168 1.352-.287 2.015l.492.089a28.82 28.82 0 01-.438 2.022l-.485-.123c-.168.66-.359 1.312-.572 1.953l.474.158c-.219.657-.46 1.303-.724 1.939l-.461-.192a27.885 27.885 0 01-.847 1.85l.447.225c-.31.618-.642 1.224-.994 1.816l-.43-.256a28.555 28.555 0 01-1.101 1.711l.41.286c-.394.567-.808 1.12-1.242 1.656l-.389-.314a28.665 28.665 0 01-1.333 1.537l.366.341c-.47.505-.959.994-1.464 1.464l-.34-.366a28.62 28.62 0 01-1.538 1.333l.314.39a29.89 29.89 0 01-1.656 1.242l-.286-.411c-.556.387-1.127.754-1.71 1.102l.255.43a28.96 28.96 0 01-1.816.993l-.224-.447c-.605.304-1.222.586-1.85.847l.19.462c-.635.263-1.281.505-1.939.723l-.157-.474a28.24 28.24 0 01-1.953.572l.123.485c-.665.17-1.34.315-2.022.438l-.089-.492c-.663.119-1.336.215-2.015.287l.053.497c-.681.073-1.37.121-2.064.146l-.018-.5a28.996 28.996 0 01-2.038 0l-.018.5a29.186 29.186 0 01-2.064-.146l.053-.497a28.443 28.443 0 01-2.016-.287l-.088.492a28.82 28.82 0 01-2.022-.438l.123-.485a28.457 28.457 0 01-1.953-.572l-.158.474A28.806 28.806 0 0117.9 55.8l.192-.461a28.324 28.324 0 01-1.85-.847l-.225.447a28.916 28.916 0 01-1.816-.994l.256-.43a28.555 28.555 0 01-1.711-1.101l-.286.41a29.108 29.108 0 01-1.656-1.242l.314-.389A28.681 28.681 0 019.58 49.86l-.341.366c-.505-.47-.994-.959-1.464-1.464l.366-.34a28.673 28.673 0 01-1.333-1.538l-.39.314a29.112 29.112 0 01-1.242-1.656l.411-.286a28.49 28.49 0 01-1.102-1.71l-.43.255a28.946 28.946 0 01-.993-1.816l.447-.224a28.355 28.355 0 01-.847-1.85l-.461.19a28.775 28.775 0 01-.724-1.939l.474-.157a28.28 28.28 0 01-.572-1.953l-.485.123c-.17-.665-.315-1.34-.438-2.022l.492-.089a28.474 28.474 0 01-.287-2.015l-.497.053a29.237 29.237 0 01-.146-2.064l.5-.018a29.018 29.018 0 010-2.038l-.5-.018c.025-.695.073-1.383.146-2.064l.497.053c.072-.68.168-1.352.287-2.016l-.492-.088c.123-.682.269-1.357.438-2.022l.485.123c.168-.66.359-1.312.572-1.953l-.474-.157c.219-.658.46-1.304.724-1.94l.461.192c.261-.629.543-1.246.847-1.85l-.447-.225c.31-.618.642-1.224.994-1.816l.43.256c.347-.584.714-1.155 1.101-1.711l-.41-.286c.394-.567.808-1.12 1.241-1.656l.39.314A28.69 28.69 0 018.14 9.58l-.366-.341c.47-.505.959-.994 1.464-1.464l.34.366a28.681 28.681 0 011.538-1.333l-.314-.39a29.89 29.89 0 011.656-1.242l.286.411a28.486 28.486 0 011.71-1.102l-.255-.43a28.946 28.946 0 011.816-.993l.224.447a28.35 28.35 0 011.85-.847l-.19-.461a28.775 28.775 0 011.939-.724l.157.474a28.28 28.28 0 011.953-.572l-.123-.485c.665-.17 1.34-.315 2.022-.438l.088.492a28.474 28.474 0 012.016-.287l-.053-.497c.681-.073 1.37-.121 2.064-.146l.018.5a29.018 29.018 0 012.038 0l.018-.5c.695.025 1.383.073 2.064.146l-.053.497c.68.072 1.352.168 2.015.287l.089-.492c.682.123 1.357.269 2.022.438l-.123.485c.66.168 1.311.359 1.953.572l.157-.474c.658.219 1.304.46 1.94.724l-.192.461c.629.261 1.246.543 1.85.847l.225-.447c.618.31 1.224.642 1.816.994l-.256.43c.584.347 1.155.714 1.711 1.101l.286-.41c.567.394 1.12.808 1.656 1.241l-.314.39c.528.426 1.041.87 1.537 1.333l.341-.366c.505.47.994.959 1.464 1.464l-.366.34c.462.497.907 1.01 1.333 1.538l.39-.314c.433.537.847 1.09 1.242 1.656l-.411.286c.387.556.754 1.127 1.102 1.71l.43-.255c.352.592.683 1.198.993 1.816l-.447.224c.304.605.586 1.222.847 1.85l.462-.19c.263.635.505 1.281.723 1.939l-.474.157c.213.642.404 1.293.572 1.953l.485-.123c.17.665.315 1.34.438 2.022l-.492.088c.119.665.215 1.337.287 2.016l.497-.053z" stroke="#1D1D1B" stroke-dasharray="2 2"/><path d="M39.354 29.354a.5.5 0 000-.708l-3.182-3.181a.5.5 0 10-.707.707L38.293 29l-2.828 2.828a.5.5 0 10.707.707l3.182-3.181zM19 29.5h20v-1H19v1z" fill="#1D1D1B"/></svg>