<svg width="25" height="28" fill="none" xmlns="http://www.w3.org/2000/svg"><path d="M22.99 24.417H1.568C.702 24.417 0 25.12 0 25.985v.448C0 27.297.702 28 1.568 28H22.99c.866 0 1.567-.702 1.567-1.567v-.448c0-.866-.701-1.568-1.567-1.568zm-5.22-8.076h.499a5.967 5.967 0 00-1.593-3.842l-.351.353a.23.23 0 01-.324-.323l.351-.351a5.967 5.967 0 00-3.844-1.595v.498a.23.23 0 11-.459 0v-.498a5.967 5.967 0 00-3.842 1.592l.351.352a.23.23 0 11-.323.325l-.351-.35a5.967 5.967 0 00-1.595 3.839h.498a.23.23 0 010 .459h-.498a5.967 5.967 0 001.592 3.842l.352-.351a.23.23 0 01.323.323l-.351.352a5.967 5.967 0 003.844 1.595v-.498a.23.23 0 01.46 0v.498a5.968 5.968 0 003.841-1.593l-.35-.351a.23.23 0 01.323-.324l.35.351A5.967 5.967 0 0018.27 16.8h-.498a.23.23 0 110-.459zm-2.326-2.61l-2.385 2.385a.898.898 0 01.126.46.918.918 0 11-.918-.919c.162 0 .32.044.46.126l2.39-2.375a.229.229 0 01.324.324h.003z" fill="#1D1D1B"/><path d="M20.47 11.278a3.59 3.59 0 00-3.553-3.016H7.64a3.59 3.59 0 00-3.552 3.016l-2.103 12.68h20.587l-2.102-12.68zm-3.629 9.857h-.013a6.442 6.442 0 01-9.1 0h-.014v-.013a6.442 6.442 0 010-9.1v-.014h.014a6.442 6.442 0 019.1 0h.013v.014a6.442 6.442 0 010 9.1v.013z" fill="#1D1D1B"/><path d="M12.278 16.8a.229.229 0 01-.162-.393l.27-.27a.446.446 0 00-.363.063.459.459 0 10.7.274l-.27.27a.23.23 0 01-.175.056zM21 0H3.557a.23.23 0 00-.23.23A3.277 3.277 0 006.6 3.502h11.356A3.278 3.278 0 0021.23.23.23.23 0 0021 0zM9.295 3.961h5.967v3.847H9.295V3.96z" fill="#1D1D1B"/></svg>