<svg width="27" height="28" fill="none" xmlns="http://www.w3.org/2000/svg"><path fill-rule="evenodd" clip-rule="evenodd" d="M21.974 17.074h-2.527a.412.412 0 01-.414-.414V15l-1.183 1.183a.394.394 0 01-.57 0l-1.777-1.771a.44.44 0 01-.11-.278c0-.09.045-.2.11-.272l1.19-1.183h-1.669a.406.406 0 01-.407-.407V9.717c0-.226.181-.407.407-.407h1.668l-1.19-1.183a.406.406 0 010-.57l1.805-1.777a.394.394 0 01.569 0l1.183 1.183V5.302a.41.41 0 01.407-.414h2.528c.226 0 .413.187.413.414v1.661l1.158-1.183a.394.394 0 01.569 0l1.777 1.778a.394.394 0 010 .569L24.728 9.31h1.662c.226 0 .407.18.407.407v2.528a.406.406 0 01-.407.407h-1.662l1.183 1.19a.4.4 0 01.117.271.4.4 0 01-.117.272l-1.777 1.778a.43.43 0 01-.272.116.378.378 0 01-.271-.116l-1.184-1.183v1.661c-.045.252-.206.433-.433.433zm-1.254-3.303a2.796 2.796 0 01-2.8-2.8 2.776 2.776 0 012.8-2.78 2.776 2.776 0 012.78 2.78c0 1.526-1.254 2.8-2.78 2.8zm0-4.784a2.01 2.01 0 00-2.004 2.004c0 1.092.886 2.004 2.004 2.004a1.99 1.99 0 002.004-2.004c-.026-1.112-.911-2.004-2.004-2.004z" fill="#1D1D1B"/><path fill-rule="evenodd" clip-rule="evenodd" d="M22.517 28h-2.366v-6.872a.411.411 0 00-.407-.414H14.41a.411.411 0 00-.407.414V28H8.928v-6.872a.417.417 0 00-.414-.414H3.187a.411.411 0 00-.407.414V28H.407A.406.406 0 010 27.593v-9.245c0-.136.065-.272.181-.343l5.715-3.504c.09-.07.207-.09.297-.045.11.02.181.09.253.181l1.861 3.161 5.399-3.297c.09-.045.207-.07.297-.045.116.02.181.09.252.181l1.959 3.304h6.303a.41.41 0 01.414.407v9.27c-.026.201-.207.382-.414.382zm-3.187 0h-4.506v-6.465h4.506V28zM8.081 28H3.575v-6.465h4.506V28zM.103 17.158l.873-9.716c.026-.207.181-.362.388-.362h1.868c.207 0 .388.155.388.362l.66 7.15-4.177 2.566z" fill="#1D1D1B"/><path fill-rule="evenodd" clip-rule="evenodd" d="M5.43 13.887l.583-6.445c.019-.181.2-.343.407-.343h1.868c.207 0 .388.162.388.362l.795 8.728-.898.556-1.468-2.496a1.107 1.107 0 00-.672-.524c-.317-.116-.653-.051-.938.123l-.064.04zM7.403 6.44c-.045 0-.07 0-.116-.025a.366.366 0 01-.271-.434c0-.045.18-1.111.678-2.185.09-.2.343-.271.524-.18l1.028-1.203a.39.39 0 01.207-.524c.614-.278 1.293-.207 1.998-.116 1.325.136 2.553.297 3.672-1.571.11-.181.316-.252.497-.162s.272.298.207.479c-.07.18-1.325 4.008-3.872 4.008-.252 0-.505-.045-.75-.116-2.328-.66-3.394 1.687-3.44 1.803a.41.41 0 01-.362.226z" fill="#1D1D1B"/><path fill-rule="evenodd" clip-rule="evenodd" d="M2.301 6.666c-.045 0-.07 0-.116-.02a.394.394 0 01-.271-.459c.019-.11.478-2.844 2.068-3.917.614-.408 1.3-.498 2.076-.317C8.63 2.638 9.995.408 10.02.382c.11-.181.316-.252.497-.162s.272.298.207.479c-.07.232-1.57 4.784-4.622 3.917-2.321-.659-3.394 1.707-3.44 1.798a.393.393 0 01-.362.252z" fill="#1D1D1B"/></svg>