<svg width="28" height="22" fill="none" xmlns="http://www.w3.org/2000/svg"><path d="M17.97 0H.906a.89.89 0 00-.898.898v10.776c0 .494.395.898.898.898h17.062a.9.9 0 00.898-.898V.898A.895.895 0 0017.97 0zM0 17.062a.9.9 0 00.898.898h.97c.377-1.877 1.922-3.35 3.843-3.592H.907c-.323 0-.62-.054-.907-.162v2.856z" fill="#1D1D1B"/><path d="M25.989 17.96h1.113a.9.9 0 00.898-.898V9.196c0-1.41-3.44-4.706-5.325-4.706h-2.012v7.184a2.702 2.702 0 01-2.694 2.694H6.88c1.922.243 3.466 1.715 3.843 3.592h6.412c.413-2.065 2.236-3.637 4.427-3.637 2.183 0 4.015 1.572 4.428 3.637zM22.136 6.7c4.598-.225 4.41 4.525 4.41 4.525h-4.41V6.7z" fill="#1D1D1B"/><path d="M21.558 21.547a2.712 2.712 0 100-5.424 2.712 2.712 0 000 5.424zm-15.266 0a2.712 2.712 0 100-5.424 2.712 2.712 0 000 5.424z" fill="#1D1D1B"/></svg>