<svg width="27" height="28" fill="none" xmlns="http://www.w3.org/2000/svg"><path fill-rule="evenodd" clip-rule="evenodd" d="M18.364 6.836a1.366 1.366 0 112.731 0 1.366 1.366 0 01-2.73 0zm1.085-3.244a.439.439 0 100 .879 2.649 2.649 0 012.646 2.646.44.44 0 00.88 0 3.53 3.53 0 00-3.526-3.525zm0-1.763a.439.439 0 100 .878 4.415 4.415 0 014.41 4.41.44.44 0 10.878 0 5.294 5.294 0 00-5.288-5.288zm0-1.763a.439.439 0 100 .878 6.179 6.179 0 016.173 6.173.437.437 0 00.608.41.438.438 0 00.27-.41A7.058 7.058 0 0019.449.066zm.368 17.609h-5.275a.439.439 0 100 .878h5.275a.44.44 0 100-.878zM10.585 14.9h-4.08a.866.866 0 00-.865.865v1.922a.866.866 0 00.865.865h4.08a.866.866 0 00.865-.865v-1.922a.865.865 0 00-.864-.865zm-3.234 2.774h-.833v-.509h.833v.509zm0-1.387h-.833v-.509h.833v.509zm3.222 1.387h-.834v-.509h.834v.509zm0-1.387h-.834v-.509h.834v.509zm9.244 0h-5.275a.439.439 0 100 .878h5.275a.44.44 0 000-.878zm1.061-7.114H17.5V1.918C17.5.861 16.585 0 15.461 0H2.038C.914 0 0 .86 0 1.918v24.164C0 27.139.914 28 2.038 28H15.46c1.124 0 2.038-.86 2.038-1.918v-5.186h3.38a1.41 1.41 0 001.408-1.406v-8.91a1.41 1.41 0 00-1.409-1.406zM7.584 1.605h2.333a.439.439 0 110 .879H7.584a.44.44 0 110-.879zm2.077 23.793H7.838a.34.34 0 010-.682h1.823a.34.34 0 010 .682zm6.96-3.284H.878V4.089H16.62v5.085H5.443a1.41 1.41 0 00-1.409 1.407v8.909a1.409 1.409 0 001.409 1.406h11.178v1.218zm4.786-2.624a.527.527 0 01-.529.528H5.443a.53.53 0 01-.528-.528v-6.054h16.492v6.054zm0-8.425H4.915v-.484a.528.528 0 01.528-.528h15.435a.528.528 0 01.529.528v.484z" fill="#1D1D1B"/></svg>