<svg width="8" height="8" fill="none" xmlns="http://www.w3.org/2000/svg"><path d="M7.44 5.749c-1.145-.92-1.464-.468-1.983.051-.363.363-1.28-.394-2.071-1.186-.792-.792-1.549-1.708-1.186-2.07.519-.52.97-.84.05-1.983C1.333-.583.72.295.217.798c-.58.58-.03 2.742 2.107 4.88C4.46 7.814 6.622 8.364 7.202 7.784c.502-.503 1.38-1.116.237-2.035zM1.427 1.18l-.067.028a3.12 3.12 0 00-.193.076c-.033.016-.071.034-.106.055a.601.601 0 00-.104.076c-.035.029-.062.065-.094.103-.023.042-.054.085-.07.137-.024.049-.032.105-.047.16-.01.056-.012.115-.02.172 0 .115.004.225.02.32.007.096.031.177.04.233l.02.088-.048-.077c-.029-.05-.078-.115-.12-.207-.05-.09-.096-.2-.14-.324-.015-.064-.036-.13-.048-.202-.008-.072-.022-.146-.016-.224-.002-.078.014-.157.028-.236A1.185 1.185 0 01.669.942C.713.885.757.837.8.793.885.71.958.65 1 .613c.025-.021.035-.032.045-.042L1.06.557l.392.614-.024.01zm5.887 5.83a2.777 2.777 0 01-.18.206c-.044.041-.09.086-.145.128a1.162 1.162 0 01-.622.26l-.113.009-.11-.006c-.072 0-.139-.02-.203-.03-.065-.013-.123-.037-.18-.053-.055-.015-.105-.042-.152-.06-.094-.038-.161-.081-.212-.108l-.078-.043.088.013c.056.008.138.025.232.027.048.001.096.01.15.005.054-.005.11-.002.165-.012.056-.01.113-.014.167-.034l.08-.025.074-.034a.778.778 0 00.365-.402 2.39 2.39 0 00.069-.186l.028-.082.635.356-.058.07z" fill="#A1A8AA"/></svg>