<svg width="264" height="74" fill="none" xmlns="http://www.w3.org/2000/svg"><path d="M114.713 30.918c-.261.198-.585.428-.966.69-.386.26-.841.547-1.358.856-.47.266-.882.5-1.242.694-.361.193-.658.34-.904.434a4.813 4.813 0 01-1.128.355c-.402.073-.804.11-1.222.11-.13 0-.277-.022-.433-.058-.162-.042-.329-.084-.512-.136l-.569-.157a2.595 2.595 0 00-.392-.078l-.157-.157-.376-.052c-.167-.01-.36-.089-.59-.245a4.685 4.685 0 01-.747-.653 5.323 5.323 0 01-.631-.742 2.778 2.778 0 01-.345-.637l-.35-1.117c-.12-.381-.214-.69-.272-.924-.062-.235-.083-.387-.078-.455l.141-.585c-.068-.198-.12-.365-.162-.496a1.014 1.014 0 01-.057-.298c0-.067.021-.282.062-.637.042-.355.105-.85.183-1.483.063-.12.126-.266.193-.444a5.59 5.59 0 00.194-.584l-.037-.288c0-.068.016-.151.047-.24s.073-.193.125-.308c.199-.423.397-.851.596-1.285.198-.433.397-.856.595-1.264.172-.313.397-.631.669-.96.271-.33.584-.674.94-1.03.078-.088.172-.198.287-.339.115-.14.245-.292.402-.454.146-.089.329-.22.538-.397.214-.177.465-.407.762-.684.089-.037.193-.084.314-.14.12-.058.266-.137.443-.22a.895.895 0 00.162-.13c.063-.063.141-.126.23-.194.094-.089.444-.214 1.039-.392.601-.172.987-.26 1.17-.26.397 0 .736.025 1.013.083.277.057.496.146.663.266l.418.078c.345.079.601.345.768.794.167.45.245 1.102.245 1.948 0 .397 0 .716-.01.956-.011.24-.021.402-.037.485a40.05 40.05 0 00-.177.982c-.063.397-.146.851-.251 1.374-.01.14-.068.365-.178.684-.104.318-.25.71-.422 1.175-.183.511-.34.898-.465 1.164-.131.267-.235.408-.324.434-.35.088-.721.183-1.118.287-.193 0-.323-.016-.402-.047-.078-.031-.12-.078-.12-.151a1.4 1.4 0 01.047-.288c.032-.13.047-.22.047-.271a414.01 414.01 0 01-.078-1.003c0-.12.036-.36.104-.715s.173-.81.314-1.363a22.9 22.9 0 01.386-1.436c.115-.35.204-.57.272-.659.25-.235.433-.459.548-.668.115-.214.172-.407.172-.58 0-.245-.057-.454-.177-.637-.115-.182-.293-.318-.528-.417-.224-.053-.454-.1-.684-.152a6.282 6.282 0 01-.684-.177c-.183.067-.345.12-.486.156-.141.037-.266.063-.37.089-.58.094-1.139.366-1.671.804-.533.444-1.045 1.055-1.525 1.833a11.565 11.565 0 00-.961 2.037 9.278 9.278 0 00-.491 2.047c-.037.209-.078.465-.131.773-.052.308-.125.668-.219 1.086.078.261.146.496.209.716l-.131 1.185c0 .042.042.13.115.266.079.136.199.334.366.59.094.147.183.319.261.523.078.198.141.423.183.673a.516.516 0 00.099.193.614.614 0 00.162.168c.13.114.256.214.376.297.371.397.767.7 1.19.904a3.05 3.05 0 001.348.302c.042 0 .203-.02.485-.062a25 25 0 001.165-.209c.089-.063.204-.12.345-.183a6.51 6.51 0 01.511-.193c.173-.172.345-.298.517-.37a1.25 1.25 0 01.481-.11c.042-.063.099-.136.162-.22.062-.089.151-.183.256-.287.261-.104.496-.24.715-.407.219-.167.423-.366.627-.59.344.752.522 1.154.522 1.195l-.016.032z" fill="#1D1D1B"/><path d="M118.327 25.492c-.193 0-.449.25-.768.747-.318.496-.48.867-.48 1.096 0 .053.01.09.031.11.021.02.068.031.136.031.094 0 .172-.052.235-.151.062-.1.115-.193.167-.282.094-.084.188-.178.282-.282.089-.1.177-.199.266-.293.105-.12.183-.245.235-.365a.907.907 0 00.079-.366.337.337 0 00-.047-.188.16.16 0 00-.136-.073v.016zm-4.162 4.225a3.55 3.55 0 01.402-.554c.167-.188.371-.381.627-.58l.078-.511a5.37 5.37 0 00.052-.512c.026-.12.068-.266.125-.428l.188-.533c.079-.188.183-.428.319-.715.136-.288.308-.606.527-.961.183-.199.376-.418.57-.658.198-.24.402-.48.595-.721a2.37 2.37 0 01.313-.22c.115-.067.225-.146.34-.234a2.65 2.65 0 01.35-.09c.13-.025.271-.036.428-.036.219 0 .391.021.527.063a.654.654 0 01.329.22c.063.067.12.172.178.313.057.14.109.308.162.506l.088.575c0-.052-.015-.032-.047.062a9.273 9.273 0 00-.135.455l-.115.418c-.12.417-.392.898-.82 1.44-.423.55-.998 1.17-1.718 1.876a.743.743 0 00-.22.522c0 .182.032.344.1.48a.68.68 0 00.276.314c.068.052.183.104.329.156.152.052.329.1.538.141a4.32 4.32 0 00.925-.167 3.87 3.87 0 00.741-.313 3.13 3.13 0 01.209-.11c.094-.047.193-.11.287-.188.115.25.214.475.298.674.089.198.157.37.209.522-.496.486-.94.851-1.347 1.097-.403.245-.773.37-1.113.37a1.409 1.409 0 01-.475.188 2.802 2.802 0 01-.632.058 2.36 2.36 0 01-.851-.141 1.56 1.56 0 01-.616-.418 1.473 1.473 0 01-.261-.381 6.305 6.305 0 01-.272-.606 2.167 2.167 0 00-.219-.423c-.068-.089-.146-.136-.235-.136-.068 0-.146.032-.235.1a1.666 1.666 0 00-.287.292 3.1 3.1 0 00-.183-.48 31.283 31.283 0 00-.34-.716l.011-.01z" fill="#1D1D1B"/><path d="M120.703 29.717c.173-.225.397-.496.669-.815.271-.318.606-.679.992-1.086.026-.078.063-.172.104-.282.042-.11.11-.245.194-.407a32.01 32.01 0 001.232-1.974c.366-.632.674-1.248.935-1.844a7.61 7.61 0 00.256-.553 9.6 9.6 0 01.344-.747c.121-.209.241-.366.356-.48.114-.116.229-.168.344-.168.173 0 .303.073.381.22.084.146.126.376.126.689 0 .172-.152.736-.449 1.681-.298.951-.742 2.288-1.332 4.011-.157.418-.329.998-.522 1.75-.188.752-.413 1.681-.663 2.804-.027.167-.058.355-.084.574-.031.214-.078.47-.136.752-.146.554-.25.998-.313 1.327-.063.329-.089.543-.078.637l.052.104c.042-.026.094-.11.151-.245a3.15 3.15 0 00.152-.6c.052-.236.088-.434.115-.59a1.32 1.32 0 00.015-.398c.188-.501.418-1.148.674-1.932l.909-2.736a20.256 20.256 0 001.039-2.199c.198-.193.381-.334.538-.423.162-.089.297-.136.407-.136.24 0 .47.063.674.194.208.13.396.318.574.569.042.063.125.214.24.46.115.245.277.584.475 1.007.115.261.23.46.35.606.12.141.241.22.35.225l.549 1.195c-.042.01-.157.042-.345.09a8.08 8.08 0 01-.799.166l-.883-.323c-.214-.063-.48-.272-.783-.637-.308-.366-.559-.575-.747-.638-.182.13-.376.387-.585.768-.208.381-.423.877-.637 1.483-.052.141-.12.287-.203.45a8.138 8.138 0 00-.256.553c-.052.329-.115.647-.183.95-.115.261-.235.59-.366.992-.13.403-.271.883-.417 1.437-.042.188-.152.475-.329.856-.178.381-.282.674-.319.872a3.4 3.4 0 01-.11.48 7.002 7.002 0 01-.25.7c-.199.345-.381.611-.549.789-.161.177-.302.266-.417.266-.261 0-.455-.125-.585-.376-.131-.25-.193-.626-.193-1.117 0-.747.041-1.567.13-2.455a39.68 39.68 0 01.559-3.77c.063-.303.12-.611.183-.924.078-.366.13-.7.162-1.003.031-.303.036-.575.02-.82-.088.026-.229.136-.433.334-.204.193-.46.486-.773.877a3 3 0 00-.183-.48 26.888 26.888 0 00-.339-.715l.01.005z" fill="#1D1D1B"/><path d="M136.046 27.341a.485.485 0 00-.188.136 1.675 1.675 0 00-.24.308c-.121.198-.262.418-.418.653a1.162 1.162 0 01-.303.24c-.11.057-.235.1-.371.125-.089.01-.177.094-.271.256a3.438 3.438 0 00-.288.695 6.015 6.015 0 00-.209.689c-.041.188-.062.35-.062.48 0 .24.062.423.183.549.12.12.308.182.558.182.397 0 .763-.11 1.097-.328.334-.22.648-.554.94-.993.141-.167.266-.318.392-.47a.542.542 0 00.167-.25c.042-.12.089-.261.13-.434l.235-.741a5.146 5.146 0 00-.219-.617c-.068-.151-.141-.245-.209-.282a1.166 1.166 0 00-.287-.083 9.075 9.075 0 00-.637-.1v-.015zm-6.256 2.381c.062-.062.125-.14.188-.24.062-.1.141-.209.229-.329l1.003-.69c.12-.146.308-.334.559-.563.25-.23.564-.512.935-.841.041-.094.114-.204.214-.329.099-.125.219-.25.355-.37.12-.116.245-.22.365-.32.12-.099.235-.198.34-.292.13-.13.256-.26.371-.392.114-.13.235-.255.355-.376.141-.12.282-.219.428-.287a1.13 1.13 0 01.48-.104c.194 0 .335.02.434.073.099.047.151.115.162.204-.089.198-.178.396-.272.6l.078.115c.382-.146.679-.256.899-.324.219-.068.355-.104.417-.104.632 0 1.107.193 1.426.58.313.386.475.966.475 1.749 0 .146-.015.319-.052.522a4.671 4.671 0 01-.444 1.3 1.642 1.642 0 01-.277.377.686.686 0 00.115.24.217.217 0 00.167.073.433.433 0 00.214-.063c.074-.042.162-.11.267-.193.089.193.172.386.256.59.083.204.167.407.256.606-.157.14-.309.271-.455.402-.146.13-.303.256-.47.376a2.505 2.505 0 01-.564.36c-.177.073-.355.11-.527.11a.829.829 0 01-.496-.141.987.987 0 01-.314-.402c-.214.287-.48.548-.788.788-.308.24-.648.434-1.018.59-.22.105-.413.183-.591.24a1.578 1.578 0 01-.485.084c-.042 0-.126.016-.256.053a1.113 1.113 0 01-.303.052c-.496 0-.94-.21-1.337-.622-.397-.417-.6-.882-.6-1.389 0-.209.047-.485.141-.825.094-.345.141-.543.141-.606a.216.216 0 00-.058-.151.226.226 0 00-.162-.058c-.042 0-.146.063-.313.194-.162.13-.397.313-.7.558a1.037 1.037 0 00-.089.157 1.2 1.2 0 01-.167.235 7.938 7.938 0 00-.522-1.196l-.01-.02z" fill="#1D1D1B"/><path d="M145.211 19.147a.251.251 0 00-.021-.11.225.225 0 00-.073-.083c-.053-.01-.115.047-.183.177a2.267 2.267 0 00-.193.538 2.583 2.583 0 01-.235.611c-.12.235-.277.512-.47.83a9.103 9.103 0 00-.481.93c-.156.345-.313.716-.47 1.113-.198.47-.35.877-.444 1.237-.094.355-.141.643-.141.857l.026.115c.068-.037.183-.204.345-.507.162-.303.371-.742.632-1.31.24-.502.423-.899.538-1.181a6.6 6.6 0 00.214-.574c.068-.235.151-.507.245-.82.094-.314.204-.658.324-1.04.089-.146.162-.271.22-.375a.83.83 0 00.114-.21.528.528 0 00.037-.193l.016-.005zm-6.022 10.57c.105-.12.23-.266.376-.444.147-.172.335-.381.559-.621a6.44 6.44 0 00.24-.904c.074-.36.136-.783.188-1.269a17.203 17.203 0 01.403-2.188c.391-1.222.694-2.167.908-2.84.22-.675.345-1.071.376-1.192.287-.788.59-1.493.904-2.114a14.3 14.3 0 01.955-1.62c.079-.088.162-.182.246-.281.089-.1.188-.204.297-.319.319-.146.622-.292.899-.428a3.17 3.17 0 01.475-.167c.162-.042.318-.063.475-.063.246 0 .428.115.559.345.13.23.193.574.193 1.034 0 .287-.036.605-.115.955-.078.35-.188.737-.324 1.15-.208.59-.365 1.06-.48 1.41-.115.35-.183.569-.209.657a3.088 3.088 0 01-.245.69c-.131.276-.303.616-.523 1.013a288.09 288.09 0 01-.898 1.681l-.188.188-.203.204v.298a.667.667 0 01-.131.219c-.146.287-.345.642-.59 1.065-.246.423-.554.909-.919 1.457a5.175 5.175 0 00-.47.752c-.105.22-.157.402-.157.559v1.144c.042.224.089.449.141.668.052.22.105.434.157.642.042.277.125.486.245.632.12.141.261.214.418.214.345 0 .632-.083.862-.256.229-.167.402-.428.511-.772a1.576 1.576 0 01-.537-.335c-.126-.125-.188-.255-.188-.396a2.11 2.11 0 00.109-.288c.032-.104.063-.214.099-.323a.822.822 0 01.047-.183 1.13 1.13 0 00.047-.235c.397-.726.763-1.274 1.092-1.645.329-.366.621-.554.882-.554.063 0 .162.01.298.032.141.02.24.03.313.03.053 0 .136-.015.246-.046.115-.031.193-.047.245-.047.147 0 .251.052.314.151.062.1.088.235.088.408 0 .37-.109.778-.323 1.206-.22.433-.324.679-.324.742 0 .052.036.11.104.167a.905.905 0 00.324-.209c.037.115.089.245.162.391.073.147.151.319.24.507a.742.742 0 01.089.162.434.434 0 01.026.136c-.365.37-.684.658-.961.856-.277.199-.512.308-.7.324-.062 0-.135 0-.219-.005-.089 0-.193-.01-.313-.021-.12.146-.267.318-.434.506a31.86 31.86 0 00-.564.674 8.536 8.536 0 00-.767.611 2.86 2.86 0 01-.747.553c-.246.12-.496.178-.747.178-.115 0-.224-.016-.329-.047a1.46 1.46 0 01-.371-.177 2.08 2.08 0 01-.329-.215 7.774 7.774 0 01-.381-.318 10.672 10.672 0 01-.376-1.468 7.563 7.563 0 01-.115-1.29.603.603 0 00-.021-.177.337.337 0 00-.057-.125l-.115-.037-.089.037-.13.13a7.989 7.989 0 00-.235-.585 10.474 10.474 0 00-.288-.61v.036z" fill="#1D1D1B"/><path d="M146.966 29.717l.115-.104c.01-.094.067-.21.182-.34.115-.13.272-.282.481-.454a5.38 5.38 0 01.407-.272 3.16 3.16 0 00.407-.287c.549-.47 1.076-.919 1.588-1.353.298-.26.59-.485.883-.668.292-.188.569-.334.83-.449.183-.235.522-.47 1.018-.715.496-.24.904-.366 1.217-.366a.416.416 0 01.428.366v.715c0 .25-.073.475-.214.668a1.995 1.995 0 01-.642.538 7.585 7.585 0 00-.575.288 9.602 9.602 0 01-.569.287c-.068.088-.251.25-.553.485-.298.24-.705.56-1.217.956a10.79 10.79 0 00-.585.486 2 2 0 00-.324.344 2.119 2.119 0 00-.198.549 3.002 3.002 0 00-.073.69c0 .198.031.37.088.51a.848.848 0 00.272.345c.089.063.204.12.36.183.152.063.34.12.564.183.131-.052.303-.1.512-.151a9.84 9.84 0 00.71-.188c.293-.173.596-.355.904-.549.308-.188.611-.386.914-.585.041-.026.099-.052.161-.083a.973.973 0 00.204-.136c.089-.115.204-.245.355-.392.152-.146.334-.318.554-.506.344.752.522 1.154.522 1.196-.319.26-.648.527-.977.799a4.324 4.324 0 01-1.128.668 3.703 3.703 0 00-.349.313c-.434.434-.94.763-1.515.982-.58.22-1.232.334-1.969.334a2.82 2.82 0 01-.444-.036 1.302 1.302 0 01-.323-.105 22.452 22.452 0 01-.664-.454 4.7 4.7 0 01-.48-.397 1.584 1.584 0 01-.287-.355 1.191 1.191 0 01-.162-.444 3.687 3.687 0 01-.047-.637c0-.068.021-.183.068-.34a1.51 1.51 0 00.062-.323 6.924 6.924 0 00-.219-.585 10.758 10.758 0 00-.298-.61h.006z" fill="#1D1D1B"/><path d="M166.664 30.693c-.063.068-.126.141-.199.21-.073.067-.146.135-.214.193a7.39 7.39 0 01-.58.475 5.791 5.791 0 01-1.002.6 3.168 3.168 0 01-.408.167 2.33 2.33 0 01-.376.115c-.12.026-.229.037-.323.037a1.94 1.94 0 01-.46-.058 2.148 2.148 0 01-.423-.151 2.356 2.356 0 01-.501-.313 4.394 4.394 0 01-.46-.429 15.082 15.082 0 00-.318-.344 6.887 6.887 0 01-.382-.46l-.167.214c-.062.073-.115.147-.167.214-.104.141-.204.272-.298.397a9.792 9.792 0 01-.297.382c-.141.172-.24.287-.303.344a5.284 5.284 0 00-.303.303c-.12.13-.23.272-.319.423a2.349 2.349 0 01-.292.397 5.546 5.546 0 01-.773.663c-.23.157-.376.235-.433.235-.319-.068-.549-.193-.69-.365a1.544 1.544 0 01-.303-.68 2.375 2.375 0 01-.02-.882 9.548 9.548 0 01.381-1.64c.083-.26.162-.506.24-.741.089-.303.162-.57.219-.794.063-.224.073-.35.026-.376-.041-.026-.13.042-.261.209-.13.162-.271.345-.417.548-.183.246-.371.486-.559.737a4.245 4.245 0 01-.742.72l-.506-1.185c.329-.287.71-.669 1.138-1.149.428-.48.961-1.097 1.593-1.838.642-.763 1.081-1.3 1.321-1.62.24-.318.528-.375.867-.177a.969.969 0 01.193.157.464.464 0 01.131.261c.01.078.021.178.031.308.011.126.016.24.005.345a.566.566 0 01-.125.292c-.073.1-.131.199-.162.293a1.655 1.655 0 00-.047.34c0 .12-.021.245-.047.365-.036.146-.078.308-.125.486-.052.177-.105.355-.157.537-.052.188-.11.387-.172.59-.063.204-.12.408-.178.606l-.115.418a5.724 5.724 0 00-.104.418c-.026.146-.047.292-.073.433a6.28 6.28 0 00-.047.397c-.042.261-.026.381.057.37.084-.015.204-.15.355-.412.094-.156.209-.34.329-.548a4.54 4.54 0 01.371-.533c.078-.094.152-.177.214-.24a1.12 1.12 0 00.178-.23.654.654 0 00-.141-.23c-.079-.088-.115-.161-.115-.213 0-.079.016-.173.052-.288.037-.11.063-.203.078-.271a1.09 1.09 0 01.152-.35 1.99 1.99 0 01.292-.366 1.56 1.56 0 01.444-.329c.141-.062.261-.094.366-.083.553-.935 1.023-1.734 1.399-2.392.376-.658.617-1.102.721-1.326a.746.746 0 01.392-.366.896.896 0 01.506-.078.638.638 0 01.434.292c.115.167.151.418.099.747a1.205 1.205 0 01-.084.271 3.05 3.05 0 01-.188.376 2.688 2.688 0 01-.318.476 5.425 5.425 0 00-.397.564 1.657 1.657 0 00-.115.26 1.336 1.336 0 01-.131.262c-.067.115-.172.292-.308.532-.135.246-.24.424-.318.549-.131.209-.246.36-.35.454-.105.094-.235.25-.392.47.063.141.126.272.188.397.063.125.136.256.214.381a2.918 2.918 0 00.533.69c.094.094.198.172.303.23.11.057.219.093.329.109.13.026.271.026.423-.005a1.9 1.9 0 00.459-.162c.105-.042.215-.105.329-.183.115-.078.241-.162.371-.261l.24-.193.241-.21.506 1.197-.015.015z" fill="#1D1D1B"/><path d="M166 29.717a.33.33 0 00.084-.089.253.253 0 00.031-.13 4.43 4.43 0 00.502-.502c.188-.214.397-.46.632-.747.188-.26.386-.522.59-.778.203-.26.423-.522.658-.778.193-.26.381-.532.564-.814.188-.282.381-.56.59-.826.344-.161.616-.282.804-.35.193-.067.319-.104.392-.104.13 0 .229.042.297.125a.552.552 0 01.105.356c0 .052-.016.125-.037.219l-.089.313a9.8 9.8 0 01-.208.533c-.068.303-.152.606-.246.909-.094.302-.188.6-.271.898-.089.37-.152.715-.204 1.028a5.875 5.875 0 00-.073.857c0 .486.026.846.073 1.081s.115.34.204.313c.088-.052.193-.115.323-.188l.455-.25c.156-.168.329-.371.527-.611.193-.246.434-.528.71-.857.157-.24.319-.48.481-.715.062-.068.13-.152.214-.246.083-.094.157-.188.23-.287.167-.418.35-.726.553-.93.204-.203.434-.308.684-.308.225 0 .408.027.538.084a.48.48 0 01.277.256c.026.063.047.167.063.313.015.146.026.345.026.585 0 .094.021.235.057.418.037.183.058.318.058.402 0 .319.057.559.167.72.115.162.287.24.522.24.068 0 .151-.01.245-.036a3.56 3.56 0 00.288-.094l.522 1.196a16.9 16.9 0 01-1.28.71c-.334.162-.584.24-.746.24-.434 0-.789-.114-1.066-.339-.276-.224-.48-.559-.611-1.002a.931.931 0 00-.109-.314 2.326 2.326 0 00-.214-.313 4.72 4.72 0 00-.267.313 9.62 9.62 0 01-.318.366c-.235.287-.47.564-.7.84-.235.272-.47.544-.716.815-.302.355-.611.611-.913.773-.309.162-.596.24-.862.24-.402 0-.721-.12-.961-.36s-.397-.59-.47-1.06c-.078-.45-.131-.804-.157-1.055-.026-.25-.031-.402-.01-.454a3.644 3.644 0 00-.073-.575c-.032-.13-.079-.193-.136-.193l-.078.037-.742.767a1.439 1.439 0 01-.13.23c-.063.089-.141.204-.246.329a3 3 0 00-.183-.48 27.052 27.052 0 00-.339-.716l-.011-.005zm22.675-11.051c.052.01.089.079.11.21.021.13 0 .344-.073.636a6.055 6.055 0 01-.512 1.426c-.214.392-.549.867-1.008 1.41-.58.69-1.154 1.207-1.713 1.551-.564.345-1.018.517-1.379.517-.182 0-.365-.047-.553-.14a.98.98 0 01-.439-.466c-.099-.214-.12-.49-.073-.82.047-.334.214-.746.491-1.248.209-.37.507-.585.898-.642.392-.057.585-.042.585.047-.01.397.026.658.105.778.078.12.208.183.391.183.235 0 .622-.261 1.159-.789.538-.522 1.066-1.284 1.588-2.282a.914.914 0 01.219-.292c.079-.063.147-.089.209-.073l-.005-.006zm-11.86 11.05a.33.33 0 00.084-.088.253.253 0 00.031-.13 4.43 4.43 0 00.502-.502 28 28 0 00.632-.747c.193-.26.386-.522.59-.778.203-.261.423-.522.658-.778.193-.261.381-.533.564-.815.188-.282.381-.558.59-.825.35-.162.616-.282.804-.35.193-.067.319-.104.392-.104.13 0 .229.042.297.125a.553.553 0 01.105.355c0 .053-.016.126-.037.22l-.089.313a9.8 9.8 0 01-.208.533 11.76 11.76 0 01-.246.908c-.094.303-.188.6-.271.899-.089.37-.152.715-.204 1.028-.047.314-.073.6-.073.857 0 .485.026.846.073 1.08.047.236.115.34.204.314.088-.052.193-.115.323-.188.131-.073.282-.157.455-.25.156-.168.329-.371.527-.612.193-.245.434-.527.71-.856.157-.24.319-.48.481-.715.062-.068.13-.152.214-.246.083-.094.157-.188.224-.287.168-.418.35-.726.554-.93.204-.203.433-.308.684-.308.225 0 .407.026.538.084a.5.5 0 01.282.256c.026.062.047.167.063.313.015.146.026.345.026.585 0 .094.021.235.057.418.037.182.058.318.058.402 0 .318.057.559.167.72.115.162.287.24.522.24.068 0 .151-.01.245-.036a3.56 3.56 0 00.288-.094l.522 1.196a16.9 16.9 0 01-1.28.71c-.334.162-.585.24-.746.24-.434 0-.789-.114-1.066-.339-.277-.225-.48-.559-.611-1.003a.931.931 0 00-.109-.313 1.881 1.881 0 00-.215-.313 5.065 5.065 0 00-.266.313 9.62 9.62 0 01-.318.366c-.235.287-.47.564-.7.84a87.03 87.03 0 01-.716.815c-.302.355-.605.611-.913.773-.309.162-.596.24-.867.24-.397 0-.721-.12-.961-.36-.246-.24-.397-.59-.47-1.06a16.16 16.16 0 01-.157-1.055c-.026-.25-.031-.402-.01-.455a3.642 3.642 0 00-.073-.574c-.032-.13-.079-.193-.136-.193l-.079.036-.741.768a1.381 1.381 0 01-.131.23c-.062.088-.141.203-.245.329a3.1 3.1 0 00-.183-.48 16.995 16.995 0 00-.339-.716l-.006-.005zm29.595-12.673c.146.156.256.318.324.496.068.172.104.35.104.532 0 .392-.115.81-.344 1.264-.23.45-.543.893-.94 1.327-.147.167-.303.334-.47.506a8.92 8.92 0 01-.517.496c-.209.183-.413.36-.617.533-.203.172-.407.345-.616.506a1.26 1.26 0 00-.318.356 1.026 1.026 0 01-.319.344 1.634 1.634 0 01-.48.251 1.732 1.732 0 00-.418.204.28.28 0 00-.11.167c-.021.078-.052.13-.099.156.052.026.104.058.157.094.052.037.104.063.156.09.131.062.261.13.392.208.131.078.251.146.366.209.287.172.501.313.652.423a8.807 8.807 0 011.003.877c.157.157.292.314.402.47.157.199.282.408.376.632.094.22.167.434.219.642.011.053-.01.11-.052.168-.042.062-.062.114-.052.167a.817.817 0 00.131.297.562.562 0 01.104.298c0 .34-.073.684-.214 1.044-.141.36-.35.71-.616 1.045a5.71 5.71 0 01-.58.627 6.108 6.108 0 01-.736.595c-.366.261-.758.501-1.175.72-.418.22-.841.408-1.254.565-.522.198-1.028.355-1.53.46a6.1 6.1 0 01-1.295.161c-.292 0-.632-.052-1.018-.162a9.777 9.777 0 01-1.139-.397 2.04 2.04 0 01-.261-.11 10.39 10.39 0 01-.261-.135.816.816 0 01-.313-.24 1.227 1.227 0 00-.261-.256 1.067 1.067 0 00-.314-.141.5.5 0 01-.245-.146c-.063-.058-.047-.194.047-.397.089-.21.183-.298.277-.272.052.01.125.01.219 0s.193 0 .298.016a.61.61 0 01.219.11.52.52 0 00.245.099c.168.026.34.047.523.073.182.02.36.031.532.031.131 0 .23.026.303.073a.496.496 0 00.308.058 2.71 2.71 0 00.622-.131c.25-.078.475-.14.673-.183.063-.01.115 0 .162.021s.11.026.188.005c.194-.041.413-.12.664-.235.25-.114.49-.219.725-.313.262-.094.538-.225.841-.381a8.9 8.9 0 00.841-.512 4.35 4.35 0 001.185-1.222.983.983 0 00.178-.522c0-.157-.01-.319-.021-.496a.54.54 0 00-.052-.214 1.615 1.615 0 00-.256-.428c-.063-.084-.131-.152-.188-.215a3.002 3.002 0 00-.423-.34 2.716 2.716 0 00-.564-.286 6.989 6.989 0 01-.642-.256 10.073 10.073 0 00-.684-.282 95.767 95.767 0 00-.831-.298 7.055 7.055 0 00-.741-.22.69.69 0 00-.178.126.82.82 0 01-.188.136 1.26 1.26 0 01-.355.125.85.85 0 01-.303.005c-.026 0-.052-.026-.083-.073-.032-.047-.063-.078-.1-.083a.591.591 0 00-.193 0 .28.28 0 01-.183-.026.643.643 0 00-.162-.079.287.287 0 01-.151-.104.431.431 0 01-.11-.204 1.016 1.016 0 00-.073-.204 1.438 1.438 0 01-.203-.37c-.037-.115-.032-.204.02-.256.105-.105.215-.23.329-.387.115-.151.23-.302.345-.46.146-.208.287-.396.423-.563.136-.167.23-.256.293-.256.067 0 .198-.01.391-.026s.34-.016.444 0c.105.026.167.068.193.13.026.063.094.105.209.131.12.026.246.042.376.047.131 0 .246.02.35.047.105.026.178.063.214.115a.213.213 0 00.162.089c.287-.277.564-.544.83-.805a19.95 19.95 0 002.001-2.235c.13-.182.245-.344.344-.48.099-.141.188-.266.267-.392.114-.183.177-.344.188-.485.01-.141 0-.267-.032-.371a.65.65 0 00-.35-.34 2.006 2.006 0 00-.611-.156 4.604 4.604 0 00-.861-.032c-.308.016-.59.026-.852.047-.344.026-.705.068-1.07.13-.366.064-.736.131-1.097.21a13.81 13.81 0 00-1.107.318c-.371.126-.726.267-1.065.423a.224.224 0 00-.152.13.319.319 0 01-.109.142.469.469 0 01-.209.104.494.494 0 00-.193.079.72.72 0 01-.267.136c-.089.02-.219-.016-.381-.11-.063-.026-.094-.084-.104-.183a.754.754 0 01.036-.313.291.291 0 01.11-.157.469.469 0 00.172-.402c0-.084.016-.162.052-.22.053-.104.12-.213.194-.323.078-.115.156-.22.235-.324.094-.13.188-.24.271-.34.089-.093.146-.146.183-.156.146-.052.303-.089.459-.104.162-.016.314-.047.46-.09.183-.062.36-.14.533-.234.172-.094.339-.167.506-.22.449-.13.883-.245 1.29-.35.407-.104.794-.193 1.159-.271.392-.078.758-.136 1.108-.178.344-.041.663-.057.95-.057.418 0 .804.031 1.165.1a3.841 3.841 0 011.53.61c.177.126.334.261.475.413h.005zm.178 12.105l1.185-.779c.042-.041.094-.104.157-.177.062-.073.13-.178.209-.319a.971.971 0 01.24-.287 1.87 1.87 0 01.344-.209 3.7 3.7 0 01.298-.324c.131-.13.298-.282.491-.454.094-.052.219-.125.366-.23.146-.099.308-.23.48-.397.789-.746 1.478-1.305 2.073-1.676.595-.37 1.097-.559 1.499-.559.224 0 .392.047.501.141.11.094.162.23.162.402 0 .173-.031.345-.099.48a.846.846 0 01-.303.35 35.21 35.21 0 00-.7.523 5.975 5.975 0 01-1.206 1.185 6.249 6.249 0 00-.219.298c-.042.042-.126.12-.246.235a6.13 6.13 0 01-.48.392c-.089.193-.277.438-.564.741-.293.303-.679.669-1.165 1.092a4.017 4.017 0 00-.324.418c-.156.214-.36.5-.611.856l.089.115a2.38 2.38 0 00.601-.314c.209-.146.438-.344.689-.584.298-.267.538-.486.721-.658.188-.168.318-.277.397-.33.062-.036.12-.067.182-.104a3.82 3.82 0 00.209-.13c.402-.476.773-.83 1.118-1.06.35-.23.668-.345.961-.345.182 0 .318.073.417.214.094.14.152.355.168.642-.016.434-.027.852-.027 1.248-.01.277.068.528.23.747a.75.75 0 00.632.33.453.453 0 00.225-.063c.073-.042.151-.1.229-.168.058-.078.121-.151.178-.219.057-.068.115-.141.178-.209a.995.995 0 00.151-.094 1.04 1.04 0 00.188-.156c.12.26.225.485.303.684.083.193.146.365.188.511-.199.183-.397.371-.59.564a7.733 7.733 0 01-.616.554 3.47 3.47 0 01-.752.449c-.246.1-.486.152-.726.152-.564 0-.998-.162-1.301-.481-.303-.319-.48-.804-.532-1.457a.976.976 0 00-.032-.24.734.734 0 00-.135-.256 3.82 3.82 0 01-.141.136c-.053.047-.115.11-.183.188-.115.089-.256.193-.423.324-.167.13-.366.287-.59.47-.303.313-.559.569-.768.767-.209.199-.355.345-.444.428a5.495 5.495 0 01-.606.444c-.229.147-.485.298-.772.455-.183.094-.34.172-.47.23a.801.801 0 01-.288.083c-.417 0-.726-.105-.924-.308-.198-.204-.298-.517-.298-.94 0-.235.047-.46.152-.669.099-.214.25-.417.449-.616a2.14 2.14 0 00.026-.271.338.338 0 00-.031-.136 1.58 1.58 0 00-.084-.162c-.052-.12-.11-.256-.177-.407a15.322 15.322 0 00-.215-.486c.037-.037.084-.105.152-.204.063-.099.141-.224.23-.37h-.026z" fill="#1D1D1B"/><path d="M222.191 19.147a.238.238 0 00-.021-.11c-.01-.03-.036-.057-.073-.083-.052-.01-.115.047-.183.177a2.312 2.312 0 00-.193.538 2.54 2.54 0 01-.235.611c-.12.235-.277.512-.47.83a8.909 8.909 0 00-.48.93c-.157.345-.314.716-.47 1.113a9.29 9.29 0 00-.444 1.237c-.094.355-.141.643-.141.857l.026.115c.068-.037.183-.204.345-.507.161-.303.37-.742.631-1.31.241-.502.423-.899.538-1.181a6.6 6.6 0 00.214-.574c.068-.235.152-.507.246-.82.094-.314.204-.658.324-1.04.083-.146.162-.271.219-.375a.835.835 0 00.115-.21.565.565 0 00.042-.193l.01-.005zm-6.021 10.57c.104-.12.23-.266.376-.444.146-.172.334-.381.559-.621a6.58 6.58 0 00.24-.904c.073-.36.136-.783.188-1.269a16.16 16.16 0 01.407-2.188c.392-1.222.695-2.167.909-2.84.219-.675.345-1.071.376-1.192.287-.788.59-1.493.903-2.114.319-.622.637-1.16.956-1.62.078-.088.162-.182.245-.281.089-.1.188-.204.298-.319.319-.146.622-.292.898-.428.157-.068.314-.126.476-.167.161-.042.318-.063.475-.063.24 0 .428.115.559.345.13.23.193.574.193 1.034 0 .287-.037.605-.115.955-.078.35-.188.737-.324 1.15-.209.59-.371 1.06-.48 1.41-.115.35-.183.569-.209.657a3.1 3.1 0 01-.246.69c-.13.276-.303.616-.517 1.013-.266.511-.48.903-.632 1.185-.151.277-.24.444-.266.496l-.188.188-.204.204v.298a.651.651 0 01-.13.219c-.146.287-.345.642-.59 1.065-.246.423-.554.909-.919 1.457a5.175 5.175 0 00-.47.752c-.105.22-.157.402-.157.559v1.144c.042.224.089.449.141.668.052.22.104.434.157.642.041.277.125.486.245.632.12.141.261.214.418.214.345 0 .632-.083.862-.256.229-.167.402-.428.511-.772a1.591 1.591 0 01-.538-.335c-.125-.125-.188-.255-.188-.396.042-.09.079-.183.11-.288.031-.104.063-.214.099-.323.011-.063.026-.12.047-.183s.037-.141.047-.235c.397-.726.763-1.274 1.092-1.645.329-.366.621-.554.882-.554.063 0 .162.01.298.032.141.02.24.03.313.03.053 0 .136-.015.246-.046.115-.031.193-.047.245-.047.146 0 .251.052.314.151.062.1.094.235.094.408 0 .37-.11.778-.324 1.206-.22.433-.324.679-.324.742 0 .052.037.11.104.167a.905.905 0 00.324-.209c.037.115.089.245.162.391.073.147.152.319.24.507a.742.742 0 01.089.162.434.434 0 01.026.136c-.365.37-.684.658-.961.856-.276.199-.511.308-.699.324-.063 0-.136 0-.22-.005-.089 0-.193-.01-.313-.021-.12.146-.266.318-.434.506a31.86 31.86 0 00-.564.674 8.536 8.536 0 00-.767.611 2.86 2.86 0 01-.747.553c-.245.12-.496.178-.747.178-.115 0-.224-.016-.329-.047a1.475 1.475 0 01-.371-.177 2.08 2.08 0 01-.329-.215 8.276 8.276 0 01-.381-.318 10.818 10.818 0 01-.376-1.468 7.563 7.563 0 01-.115-1.29.603.603 0 00-.021-.177.442.442 0 00-.057-.125l-.115-.037-.089.037-.13.13a7.565 7.565 0 00-.235-.585 16.665 16.665 0 00-.287-.61l-.016.036z" fill="#1D1D1B"/><path d="M230.202 27.341a.492.492 0 00-.188.136 1.72 1.72 0 00-.24.308c-.12.198-.261.418-.418.653a1.146 1.146 0 01-.303.24c-.109.057-.23.1-.371.125-.088.01-.177.094-.271.256a3.444 3.444 0 00-.287.695 6.015 6.015 0 00-.209.689c-.042.188-.063.35-.063.48 0 .24.063.423.183.549.12.12.308.182.559.182.397 0 .762-.11 1.096-.328.335-.22.648-.554.94-.993.141-.167.267-.318.392-.47a.542.542 0 00.167-.25c.042-.12.089-.261.131-.434l.235-.741a5.304 5.304 0 00-.22-.617c-.068-.151-.141-.245-.209-.282a1.151 1.151 0 00-.287-.083 9.075 9.075 0 00-.637-.1v-.015zm-6.251 2.381a1.32 1.32 0 00.188-.24c.068-.1.141-.209.23-.329l1.003-.69c.12-.146.308-.334.558-.563.251-.23.564-.512.935-.841.042-.094.115-.204.214-.329.099-.125.22-.25.355-.37.12-.116.246-.22.366-.32.12-.099.235-.198.339-.292.131-.13.256-.26.371-.392.115-.13.235-.255.355-.376.141-.12.282-.219.428-.287a1.14 1.14 0 01.481-.104c.193 0 .334.02.433.073.1.047.152.115.162.204-.089.198-.177.396-.271.6l.078.115c.381-.146.679-.256.898-.324.22-.068.355-.104.418-.104.632 0 1.107.193 1.426.58.313.386.475.966.475 1.749 0 .146-.016.319-.052.522a4.671 4.671 0 01-.444 1.3 1.642 1.642 0 01-.277.377.686.686 0 00.115.24.217.217 0 00.167.073.433.433 0 00.214-.063c.073-.042.162-.11.266-.193.084.193.173.386.251.59.084.204.167.407.256.606-.157.14-.308.271-.454.402a5.95 5.95 0 01-.47.376 2.55 2.55 0 01-.564.36c-.178.073-.355.11-.528.11a.833.833 0 01-.496-.141.985.985 0 01-.313-.402 4.177 4.177 0 01-.789.788c-.308.24-.647.434-1.018.59a4.868 4.868 0 01-.59.24c-.178.058-.34.084-.486.084a1.17 1.17 0 00-.256.053 1.107 1.107 0 01-.303.052c-.496 0-.94-.21-1.337-.622-.396-.417-.595-.882-.595-1.389 0-.209.047-.485.141-.825.094-.345.141-.543.141-.606a.22.22 0 00-.057-.151.227.227 0 00-.162-.058c-.042 0-.146.063-.314.194-.161.13-.396.313-.699.558a.957.957 0 00-.089.157 1.293 1.293 0 01-.167.235 7.938 7.938 0 00-.522-1.196l-.011-.02z" fill="#1D1D1B"/><path d="M244.579 30.876a3.56 3.56 0 01-.34.37c-.13.126-.266.257-.402.382a1.243 1.243 0 01-.313.193 2.233 2.233 0 00-.34.193c-.12.094-.224.199-.318.303a1.37 1.37 0 01-.303.277c-.183.13-.36.256-.538.376l-.459.313a8.07 8.07 0 00-.152.397c-.047.136-.094.267-.136.397-.052.157-.12.319-.209.486a3.642 3.642 0 00-.208.475c-.042.115-.074.23-.1.35-.021.12-.052.235-.083.34a8.618 8.618 0 01-.355.825 9.011 9.011 0 00-.345.746 9.435 9.435 0 00-.272.69 5.22 5.22 0 01-.261.637 2.454 2.454 0 01-.256.433c-.099.141-.188.277-.266.397-.104.183-.204.35-.292.507-.089.156-.178.292-.256.417-.079.12-.152.24-.214.35a1.268 1.268 0 01-.214.288.746.746 0 01-.262.188c-.104.047-.188.083-.245.11a.698.698 0 01-.449.072.832.832 0 01-.407-.24c-.089-.089-.147-.224-.178-.418a2.627 2.627 0 01-.005-.673c.026-.272.089-.575.188-.925.099-.344.224-.715.371-1.107.13-.365.287-.726.47-1.091.182-.366.37-.72.574-1.066a16.287 16.287 0 011.52-2.209.882.882 0 01.177-.297.995.995 0 00.188-.34c.042-.156.063-.323.058-.506 0-.183.005-.355.031-.522.026-.157.073-.308.136-.46.062-.151.109-.298.136-.433a1.133 1.133 0 000-.319 2.055 2.055 0 01-.027-.282 1.663 1.663 0 00-.01-.454c-.198-.016-.324-.01-.376.01a.445.445 0 00-.178.188.712.712 0 01-.214.24 1.549 1.549 0 01-.256.157 2.112 2.112 0 00-.532.402 2.296 2.296 0 01-.267.235c-.12.089-.25.178-.381.282-.136.1-.266.193-.397.277a4.15 4.15 0 01-.339.167c-.131.063-.246.115-.34.167a5.632 5.632 0 00-.449.308 1.65 1.65 0 01-.423.23c-.13.052-.261.104-.397.151a1.127 1.127 0 01-.37.074.934.934 0 01-.397-.084.803.803 0 01-.308-.23.817.817 0 01-.178-.282 1.054 1.054 0 01-.073-.397c0-.146.016-.323.047-.527.031-.204.084-.428.162-.669.042-.14.099-.287.177-.443.074-.157.152-.319.23-.48a2.322 2.322 0 00-.611.59 2.538 2.538 0 01-.574.579l-.522-1.186a9.57 9.57 0 01.313-.297c.115-.105.23-.204.35-.298.266-.245.564-.496.877-.752.319-.26.632-.506.94-.741.444-.33.893-.653 1.347-.961.455-.314.893-.596 1.322-.846.417-.25.814-.475 1.19-.674.376-.198.711-.35 1.008-.454.209-.079.397-.13.575-.162a1.02 1.02 0 01.417-.005c.105.026.215.052.324.083a.775.775 0 01.272.126.88.88 0 01.188.26c.062.12.099.215.099.272a.729.729 0 01-.078.308.899.899 0 01-.288.319c-.052.042-.12.089-.198.136a2.11 2.11 0 01-.266.125.96.96 0 01-.355.063.872.872 0 00-.371.078 5.05 5.05 0 00-.951.595c-.323.251-.626.496-.908.726-.246.193-.481.392-.711.6-.229.21-.433.403-.616.586-.172.182-.329.36-.465.532a3.79 3.79 0 00-.323.455 1.077 1.077 0 00-.141.37c-.016.11 0 .188.062.24.173.09.293.126.366.116a.314.314 0 00.167-.105c.063-.063.131-.115.209-.167.052-.026.13-.057.235-.1a.82.82 0 00.245-.125 2.49 2.49 0 00.418-.376 3.91 3.91 0 01.444-.428c.157-.13.339-.277.554-.444.214-.167.428-.318.642-.47.146-.094.303-.193.459-.287a4.83 4.83 0 01.45-.235c.12-.052.235-.094.344-.13a.906.906 0 01.277-.053.46.46 0 01.329.126.796.796 0 01.204.318c.052.13.083.277.099.444.01.162.021.34.021.522 0 .157-.011.319-.026.486a7.094 7.094 0 01-.063.486c-.037.24-.078.48-.131.715-.052.235-.104.444-.156.637a3.12 3.12 0 00.245-.177c.089-.063.167-.126.246-.178.088-.063.172-.14.261-.24.089-.1.167-.178.245-.24a1.94 1.94 0 01.287-.178c.094-.047.178-.1.246-.151.13-.105.245-.21.345-.319a2.07 2.07 0 00.24-.319l.517 1.238v.021zM83.75 53.154c-.025-.178-.057-.36-.093-.554 0 .079.015.016.041-.182.027-.204.063-.549.105-1.04a1.41 1.41 0 00.151-.255c.032-.073.058-.141.084-.204a2.744 2.744 0 01-.178-.24.318.318 0 01-.057-.162c.068-.533.136-1.045.198-1.525.01-.13.084-.282.23-.45a4.29 4.29 0 01.595-.537 4.34 4.34 0 01.59-.418 4.21 4.21 0 01.554-.277c.235-.078.376-.146.418-.198a.189.189 0 01.146-.078c.141 0 .245.068.324.209.073.14.11.35.11.631 0 .147-.037.356-.11.617-.073.26-.11.454-.11.58 0 .052.005.255.021.605s.031.857.057 1.51c.01.47.079.976.204 1.508.126.533.293 1.092.491 1.666.272.752.564 1.316.883 1.687.313.371.663.559 1.039.559.297 0 .69-.193 1.18-.58.49-.386 1.07-.96 1.734-1.734a43.21 43.21 0 001.358-1.665c.397-.517.72-.987.966-1.42a5.26 5.26 0 01.804-1.04 6.498 6.498 0 011.05-.84 7.87 7.87 0 00.302-.173.468.468 0 01.183-.068c.157 0 .272.12.355.355.084.235.126.585.126 1.05-.053.428-.1.856-.13 1.274a20.731 20.731 0 01-.35 2.047c-.152.71-.35 1.447-.596 2.21-.12.386-.225.72-.313 1.012a6.219 6.219 0 00-.183.736c-.016.115-.042.256-.073.429-.032.172-.063.37-.1.595a11.9 11.9 0 01-.287.658 2.883 2.883 0 00-.214.632c-.057.245-.11.527-.151.851 0 .063 0 .141-.016.235-.01.1-.016.199-.026.303-.204.893-.407 1.76-.616 2.6a1.326 1.326 0 01-.12.304 1.22 1.22 0 00-.387.224 3.1 3.1 0 00-.454.475 3.275 3.275 0 01-.392.387c-.104.083-.183.125-.235.125a.232.232 0 01-.172-.068c-.042-.041-.068-.12-.068-.224a.696.696 0 01.042-.173c.125-.297.23-.726.324-1.284a30.39 30.39 0 00.255-2.073c.01-.178.079-.648.21-1.42.13-.774.323-1.84.579-3.207.036-.22.084-.491.136-.81.057-.318.13-.684.214-1.096.063-.21.11-.392.151-.544a1.66 1.66 0 00.058-.334c0-.089-.016-.151-.047-.193-.032-.042-.079-.057-.136-.057-.052 0-.146.067-.287.203s-.314.34-.528.611l-.376.475a7.08 7.08 0 01-.402.486 63.89 63.89 0 00-.658.695l-.971.971c-.089.052-.193.12-.324.198-.125.079-.277.173-.454.277-.167.261-.434.486-.794.68-.366.187-.7.281-1.008.281a1.84 1.84 0 01-1.06-.35c-.34-.235-.663-.59-.982-1.07-.14-.235-.277-.476-.412-.71a15.52 15.52 0 00-.439-.71l-.068.015c-.042.052-.125.407-.245 1.065-.12.658-.272 1.62-.455 2.888-.203 1.306-.355 2.33-.46 3.076-.104.742-.156 1.227-.156 1.446-.016.298-.073.528-.162.69a.553.553 0 01-.428.282c-.094.01-.23.031-.407.073-.178.042-.387.089-.632.151a.486.486 0 01-.12-.047c-.037-.02-.053-.052-.053-.099l.079-.486-.13-.5c.051-.272.104-.534.156-.79.036-.527.068-1.018.094-1.483a4.12 4.12 0 01.1-.485c.056-.23.083-.397.083-.512a1.46 1.46 0 00-.042-.272 1.43 1.43 0 01-.042-.271c0-.48.078-1.196.23-2.141.151-.945.23-1.666.23-2.152a12.076 12.076 0 00-.094-.606 19.1 19.1 0 01.209-1.18l.329-1.655.026.005zm13.866 8.523l1.195-.789c.042-.042.094-.104.157-.177s.13-.183.21-.324a.867.867 0 01.245-.287 1.82 1.82 0 01.344-.21c.068-.088.172-.198.303-.328s.298-.287.501-.46a4.124 4.124 0 00.852-.632c.799-.752 1.493-1.316 2.094-1.692.6-.376 1.107-.564 1.514-.564.23 0 .397.047.507.147.109.094.162.23.162.407 0 .183-.032.345-.1.486a.907.907 0 01-.308.355c-.219.156-.454.334-.71.522a6.73 6.73 0 01-.512.585 6.495 6.495 0 01-.71.61 8.895 8.895 0 00-.225.304c-.047.041-.125.125-.25.235a6.012 6.012 0 01-.486.391c-.089.194-.277.444-.574.747a17.86 17.86 0 01-1.175 1.102 4.297 4.297 0 00-.329.418c-.157.22-.366.506-.617.867l.095.12a2.39 2.39 0 00.605-.314c.209-.151.444-.344.695-.59l.726-.663a3.81 3.81 0 01.402-.334c.062-.037.12-.068.183-.105.062-.036.13-.078.208-.13.403-.48.779-.836 1.128-1.07.35-.236.674-.35.972-.35.183 0 .324.073.418.219.094.146.151.36.172.647a26.09 26.09 0 00-.026 1.259 1.18 1.18 0 00.23.757.75.75 0 00.637.334.41.41 0 00.229-.068c.074-.047.152-.099.23-.172l.178-.224c.057-.068.115-.142.177-.21a1 1 0 00.152-.093c.062-.042.13-.094.188-.157.12.261.224.49.308.69.083.198.146.37.188.516a19.38 19.38 0 00-.595.57 8.045 8.045 0 01-.622.558 3.221 3.221 0 01-.762.455 1.963 1.963 0 01-.737.151c-.569 0-1.008-.162-1.31-.486-.309-.323-.486-.814-.538-1.472a1.02 1.02 0 00-.032-.246.734.734 0 00-.135-.256 3.657 3.657 0 01-.147.136 2.06 2.06 0 00-.182.188c-.115.089-.256.199-.429.33-.172.13-.37.286-.595.474-.303.314-.564.575-.773.773-.209.204-.36.345-.449.434a5.566 5.566 0 01-.61.444 8.619 8.619 0 01-1.259.689.797.797 0 01-.288.084c-.418 0-.73-.105-.934-.309-.204-.203-.303-.522-.303-.95 0-.235.052-.46.151-.679.1-.214.25-.423.454-.621a2.17 2.17 0 00.027-.277.34.34 0 00-.032-.136 2.42 2.42 0 00-.083-.162c-.053-.12-.11-.26-.178-.412a16.065 16.065 0 00-.214-.491c.036-.037.084-.105.151-.204.063-.1.141-.224.23-.376l.01.016z" fill="#1D1D1B"/><path d="M117.805 63.264a6.554 6.554 0 01-.538.527 14.55 14.55 0 01-1.118.893 5.8 5.8 0 01-.558.356 4.23 4.23 0 01-.523.25 2.618 2.618 0 01-.59.162 1.694 1.694 0 01-.538.005 1.122 1.122 0 01-.511-.208 1.685 1.685 0 01-.423-.47 1.303 1.303 0 01-.147-.502 3.44 3.44 0 01.011-.606 3.08 3.08 0 01.078-.506c.042-.178.094-.35.146-.517l.157-.502c.052-.167.094-.313.12-.449.026-.104.068-.203.125-.303.058-.093.1-.198.126-.302a.95.95 0 00.01-.277c-.01-.105-.01-.199-.01-.277a3 3 0 00-.016-.486 1.003 1.003 0 00-.13-.407.568.568 0 00-.199-.204.927.927 0 00-.303-.125 3.2 3.2 0 01-.099.33c-.037.114-.078.224-.11.328-.073.193-.151.392-.235.606-.088.209-.172.418-.25.616a.743.743 0 01-.173.277.82.82 0 00-.182.277c-.126.271-.23.548-.329.825a5.436 5.436 0 01-.34.799 18.115 18.115 0 01-1.091 1.812 6.968 6.968 0 01-.507.69 4.126 4.126 0 01-.491.506 2.22 2.22 0 01-.365.256.694.694 0 01-.34.099.935.935 0 01-.376-.078 1.452 1.452 0 01-.323-.199 1.91 1.91 0 01-.293-.386 2.177 2.177 0 01-.209-.507 5.44 5.44 0 01-.109-.47 2.727 2.727 0 01-.047-.512 10.722 10.722 0 01.052-1.447c.015-.13.036-.26.062-.391l.079-.392c.015-.078.083-.156.198-.235a.611.611 0 01.34-.12c.104 0 .198.032.282.1.083.067.125.125.125.177 0 .078.005.188.021.329.015.141.026.287.047.45.036.307.094.605.183.892.088.287.198.434.329.434.261 0 .579-.256.95-.768s.695-1.04.966-1.582c.042-.094.105-.194.178-.298.073-.1.135-.209.193-.324.036-.089.063-.188.078-.303a.75.75 0 01.094-.287c.042-.078.099-.162.173-.24a.776.776 0 00.146-.246c.052-.13.099-.256.136-.38.041-.12.078-.236.125-.34.052-.13.099-.256.146-.366.047-.115.078-.203.105-.26a2.933 2.933 0 01-.434-.304 1.283 1.283 0 01-.251-.26.929.929 0 01-.099-.283.866.866 0 01.005-.256.762.762 0 01.136-.26 6.74 6.74 0 00.193-.236c.063-.063.121-.125.183-.198.063-.068.11-.13.146-.183.079 0 .178-.016.293-.042.12-.026.23-.068.334-.12.042-.026.068-.078.073-.157 0-.078.026-.136.073-.172a.31.31 0 01.214-.058c.094 0 .157 0 .204-.02.183-.079.334-.079.444 0 .115.078.136.36.068.84.078.042.162.09.24.136.084.047.162.094.23.136.151.094.292.204.433.313.141.115.261.225.366.33.12.13.219.266.298.407.073.14.13.276.177.407a2.627 2.627 0 01.131.825 4.349 4.349 0 01-.147 1.05.686.686 0 01-.135.282.892.892 0 00-.152.308.36.36 0 00-.005.183c.01.068.01.13-.005.182a8.39 8.39 0 01-.178.56 2.51 2.51 0 00-.125.516.878.878 0 00.042.402c.041.11.109.194.198.246.063.036.141.041.246.02.099-.02.208-.057.323-.11.131-.067.282-.166.444-.297a8.94 8.94 0 00.475-.386 4.45 4.45 0 00.392-.376c.12-.125.225-.235.303-.324l.554 1.17.005.005z" fill="#1D1D1B"/><path d="M123.581 59.849c-.047.01-.11.057-.194.136a2.265 2.265 0 00-.245.308 26.23 26.23 0 01-.418.658 1.005 1.005 0 01-.308.24c-.11.058-.235.1-.376.125-.089.01-.178.094-.277.256a3.452 3.452 0 00-.287.705 6.396 6.396 0 00-.209.695 2.101 2.101 0 00-.068.486c0 .245.063.428.183.553.12.12.308.183.564.183.402 0 .773-.11 1.107-.334.34-.225.653-.56.951-1.003.141-.167.271-.324.391-.475a.578.578 0 00.173-.256 5.03 5.03 0 00.13-.439l.235-.747a4.418 4.418 0 00-.224-.621c-.068-.151-.141-.245-.209-.282a.968.968 0 00-.288-.084 9.838 9.838 0 00-.642-.099l.011-.005zm-6.319 2.402a1.7 1.7 0 00.193-.24c.063-.1.141-.214.23-.334l1.008-.695c.125-.146.313-.34.564-.569.25-.23.569-.512.945-.846a1.52 1.52 0 01.219-.334c.099-.125.219-.25.36-.376.126-.115.246-.22.366-.324.12-.1.235-.198.339-.298.131-.13.256-.26.376-.391.121-.13.241-.256.361-.382.141-.125.287-.219.433-.287.152-.068.314-.104.486-.104.193 0 .339.026.439.073.099.047.156.115.167.204-.089.203-.178.402-.277.605l.078.12c.387-.151.69-.255.909-.328.219-.068.36-.105.423-.105.637 0 1.117.193 1.436.585.319.392.48.977.48 1.765 0 .151-.015.324-.052.527a4.903 4.903 0 01-.172.658c-.089.262-.183.48-.282.658a1.454 1.454 0 01-.282.382.66.66 0 00.12.245.22.22 0 00.172.073c.073 0 .141-.02.214-.068a2.41 2.41 0 00.272-.198c.089.193.172.391.256.6.083.204.167.408.256.611-.157.141-.308.277-.46.408a5.82 5.82 0 01-.475.381 2.324 2.324 0 01-.569.36c-.178.073-.355.11-.533.11a.814.814 0 01-.501-.146.971.971 0 01-.314-.408 4.38 4.38 0 01-.793.794 4.6 4.6 0 01-1.029.596 4.174 4.174 0 01-.595.24 1.615 1.615 0 01-.491.083c-.042 0-.131.016-.256.052-.126.037-.23.053-.308.053-.502 0-.951-.21-1.353-.632-.402-.418-.606-.888-.606-1.405 0-.209.047-.486.147-.835.099-.345.146-.549.146-.611a.216.216 0 00-.058-.152c-.041-.042-.094-.057-.167-.057-.042 0-.146.068-.313.198s-.402.319-.71.564a1.455 1.455 0 00-.094.157 1.313 1.313 0 01-.173.235 7.278 7.278 0 00-.235-.611 7.438 7.438 0 00-.287-.6h-.01z" fill="#1D1D1B"/><path d="M138.736 51.091c.052.01.088.079.109.21.021.13 0 .344-.073.642-.13.558-.303 1.039-.522 1.436-.214.397-.554.872-1.018 1.425-.585.695-1.165 1.217-1.729 1.567-.569.35-1.029.522-1.389.522-.183 0-.371-.047-.559-.14a1.036 1.036 0 01-.444-.47c-.099-.22-.12-.497-.073-.831.047-.334.214-.757.496-1.259.209-.376.512-.595.904-.647.391-.058.59-.042.59.047-.011.402.026.663.104.788.079.12.209.183.397.183.235 0 .627-.266 1.17-.794.543-.532 1.076-1.3 1.603-2.303a1 1 0 01.225-.297c.078-.068.151-.09.209-.074v-.005zm-11.98 11.165a.282.282 0 00.083-.094.254.254 0 00.032-.13 4.63 4.63 0 00.506-.507c.188-.214.402-.465.637-.757.194-.261.392-.522.596-.788.203-.262.428-.528.663-.79a19.9 19.9 0 00.569-.819c.188-.287.387-.564.601-.836.35-.167.621-.281.814-.355.194-.068.324-.104.392-.104a.38.38 0 01.303.125.558.558 0 01.104.36c0 .053-.01.126-.036.225a5.432 5.432 0 01-.303.851 9.807 9.807 0 01-.251.92c-.094.308-.188.61-.276.908-.089.376-.157.72-.204 1.04a5.935 5.935 0 00-.073.866c0 .491.026.857.073 1.092.047.235.115.34.204.313.088-.052.198-.115.329-.188.13-.073.287-.162.459-.256.157-.167.334-.37.533-.616.198-.245.433-.533.715-.867.157-.245.319-.486.486-.72a7.68 7.68 0 00.449-.538c.167-.424.35-.732.559-.94.203-.204.433-.309.689-.309.225 0 .407.026.543.084a.5.5 0 01.282.256c.026.063.047.167.068.313.016.146.026.345.026.59 0 .094.021.235.058.418.036.183.057.319.057.407 0 .324.057.57.172.732.115.161.288.24.528.24.068 0 .151-.016.25-.037.1-.026.194-.057.288-.094l.527 1.207c-.527.313-.956.553-1.295.715-.339.162-.59.245-.757.245-.439 0-.794-.115-1.076-.34-.282-.229-.486-.563-.616-1.012a1.088 1.088 0 00-.11-.314 1.86 1.86 0 00-.219-.313c-.079.089-.167.193-.272.313a5.159 5.159 0 01-.324.366 57.5 57.5 0 01-.71.846 36.71 36.71 0 01-.72.82c-.309.36-.617.621-.925.783-.308.162-.6.24-.872.24-.402 0-.726-.12-.971-.36-.246-.24-.402-.595-.475-1.07-.079-.455-.131-.81-.157-1.066-.026-.256-.031-.407-.01-.46a3.586 3.586 0 00-.074-.579c-.031-.13-.078-.198-.135-.198l-.079.041-.746.773a1.458 1.458 0 01-.131.23 4.947 4.947 0 01-.251.334 3.323 3.323 0 00-.182-.485c-.089-.194-.204-.434-.34-.721l-.005.01zm20.178-9.102a12.88 12.88 0 00-.094-.554c0 .079.016.016.042-.182.026-.204.063-.549.104-1.04a1.17 1.17 0 00.152-.255c.031-.073.057-.141.083-.204a2.829 2.829 0 01-.177-.24.318.318 0 01-.058-.162c.073-.533.136-1.045.199-1.525.01-.13.083-.282.23-.45.146-.166.344-.344.595-.537a4.302 4.302 0 011.144-.695c.234-.078.375-.146.422-.198.042-.052.089-.078.147-.078.141 0 .245.068.323.209.074.14.11.35.11.631 0 .147-.036.356-.11.617-.073.26-.109.454-.109.58 0 .052.005.255.021.605.015.35.031.857.057 1.51.011.47.078.976.204 1.508.125.533.292 1.092.491 1.666.271.752.564 1.316.882 1.687.314.371.663.559 1.039.559.298 0 .69-.193 1.181-.58.491-.386 1.07-.96 1.733-1.734.507-.595.961-1.148 1.358-1.665.397-.517.721-.987.966-1.42.23-.387.496-.732.799-1.04a6.483 6.483 0 011.05-.84 7.9 7.9 0 00.303-.173.465.465 0 01.183-.068c.156 0 .271.12.355.355.083.235.12.585.12 1.05-.052.428-.099.856-.131 1.274a20.557 20.557 0 01-.35 2.047 22.33 22.33 0 01-.595 2.21c-.12.386-.224.72-.313 1.012a6.284 6.284 0 00-.183.736c-.016.115-.042.256-.073.429-.031.172-.063.37-.099.595-.089.22-.183.439-.288.658a2.945 2.945 0 00-.219.632c-.057.245-.11.527-.151.851 0 .063 0 .141-.011.235-.01.1-.015.199-.026.303-.204.893-.407 1.76-.616 2.6a1.368 1.368 0 01-.12.304 1.22 1.22 0 00-.387.224 3.104 3.104 0 00-.454.475 3.258 3.258 0 01-.392.387c-.104.083-.182.125-.235.125a.224.224 0 01-.172-.068c-.042-.041-.068-.12-.068-.224a1.11 1.11 0 01.037-.173c.125-.297.229-.726.323-1.284.094-.56.178-1.254.256-2.073.011-.178.079-.648.209-1.42.131-.774.324-1.84.58-3.207l.136-.81c.057-.318.13-.684.219-1.096.063-.21.11-.392.151-.544a1.66 1.66 0 00.058-.334c0-.089-.016-.151-.047-.193-.031-.042-.078-.057-.136-.057-.052 0-.151.067-.287.203a5.72 5.72 0 00-.528.611l-.376.475a6.993 6.993 0 01-.402.486c-.235.245-.454.475-.658.695l-.971.971c-.089.052-.193.12-.324.198-.125.079-.277.173-.454.277-.167.261-.434.486-.794.68-.365.187-.7.281-1.008.281-.365 0-.72-.115-1.055-.35-.339-.235-.663-.59-.981-1.07-.141-.235-.277-.476-.413-.71a15.36 15.36 0 00-.439-.71l-.068.015c-.041.052-.125.407-.245 1.065-.12.658-.271 1.62-.454 2.888a209.71 209.71 0 00-.46 3.076c-.104.742-.156 1.227-.156 1.446-.016.298-.074.528-.168.69a.544.544 0 01-.428.282c-.094.01-.23.031-.407.073-.178.042-.387.089-.632.151a.472.472 0 01-.12-.047c-.037-.02-.052-.052-.052-.099l.078-.486-.131-.5c.053-.272.105-.534.157-.79.037-.527.068-1.018.094-1.483.011-.093.042-.255.099-.485.058-.23.084-.397.084-.512a1.45 1.45 0 00-.042-.272 1.339 1.339 0 01-.036-.271c0-.48.078-1.196.229-2.141.152-.945.23-1.666.23-2.152a21.053 21.053 0 00-.089-.606c.042-.313.115-.71.209-1.18.099-.475.204-1.023.329-1.655l.021.005zm17.646 4.83c-.193 0-.449.251-.773.758-.324.501-.486.872-.486 1.107 0 .052.011.089.032.11.021.02.068.03.136.03.094 0 .177-.051.235-.15.062-.1.12-.194.172-.283a3.41 3.41 0 00.282-.282c.094-.099.183-.198.271-.297.105-.12.183-.246.235-.366a.91.91 0 00.079-.365.368.368 0 00-.047-.194.16.16 0 00-.136-.073v.005zm-4.204 4.267c.105-.183.24-.37.407-.559.168-.188.377-.381.632-.585.026-.177.053-.35.079-.517.026-.172.041-.344.052-.517.026-.12.068-.266.125-.433l.188-.538c.079-.193.188-.433.324-.72.136-.288.313-.612.533-.972.182-.204.376-.423.579-.663.204-.24.402-.486.606-.731a4.92 4.92 0 01.313-.225 3.56 3.56 0 00.34-.235c.104-.036.224-.068.355-.094.131-.026.277-.042.433-.042.22 0 .397.021.533.068a.7.7 0 01.334.225c.063.068.12.177.178.313.057.141.11.313.167.512.026.178.057.366.089.58 0-.053-.016-.032-.047.067a8.59 8.59 0 00-.136.46l-.12.418c-.12.423-.397.908-.83 1.457-.429.553-1.008 1.18-1.734 1.89a.742.742 0 00-.157.23.708.708 0 00-.068.298c0 .182.032.344.099.485a.692.692 0 00.282.314c.068.052.183.104.335.156.151.053.334.1.543.147a4.081 4.081 0 001.676-.486c.042-.026.115-.063.209-.11.094-.047.193-.11.287-.193.115.256.214.48.303.684.089.204.157.376.209.528-.501.49-.95.861-1.358 1.107-.407.25-.783.376-1.123.376a1.397 1.397 0 01-.48.188 2.855 2.855 0 01-.637.057c-.324 0-.611-.047-.862-.146a1.596 1.596 0 01-.888-.804 9.449 9.449 0 01-.276-.611 1.88 1.88 0 00-.225-.428c-.073-.094-.151-.136-.235-.136a.379.379 0 00-.235.099 1.558 1.558 0 00-.287.298 4.054 4.054 0 00-.183-.486c-.089-.193-.204-.433-.339-.72l.01-.006z" fill="#1D1D1B"/><path d="M166.987 62.25c.053-.062.115-.14.183-.24.068-.099.152-.213.24-.334a20.202 20.202 0 012.157-2.313c.167-.157.366-.36.606-.611.235-.25.512-.538.83-.862.314-.12.663-.26 1.039-.417.235 0 .413.078.528.23.115.15.172.375.172.663 0 .245-.021.511-.057.793a9.5 9.5 0 01-.162.873 8.22 8.22 0 00-.199.684c0 .062.011.11.042.135.026.032.068.047.131.047.13-.062.386-.282.762-.658.376-.376.872-.903 1.483-1.577.528-.58.987-1.008 1.379-1.295.392-.287.71-.428.945-.428.256 0 .439.094.559.282.12.188.177.465.177.835a9.27 9.27 0 01-.12 1.546 6.025 6.025 0 01-.407 1.426 1.052 1.052 0 00-.068.224c-.01.063-.01.115-.01.173 0 .063.052.12.156.172a3.24 3.24 0 00.241-.261 7.69 7.69 0 00.323-.433c.204-.168.402-.335.601-.502.204-.167.423-.34.658-.511.245-.194.496-.34.747-.44.256-.098.501-.15.746-.15.042 0 .089.015.131.041.042.026.089.058.131.094.203.178.365.334.501.48.13.147.224.267.277.377.339.7.642 1.222.914 1.572.266.344.501.517.699.517a.3.3 0 00.131-.032.584.584 0 00.13-.083c.199.428.371.83.512 1.206a5.373 5.373 0 01-.841.559c-.245.125-.459.188-.642.188-.606 0-1.227-.392-1.869-1.175-.643-.784-1.134-1.175-1.478-1.175-.455 0-1.212.673-2.272 2.016-1.06 1.342-1.718 2.015-1.984 2.015-.131 0-.309-.01-.528-.042a.3.3 0 01-.157-.161.75.75 0 01-.052-.298c0-.13.026-.303.079-.517.052-.214.125-.465.208-.757.115-.371.204-.664.277-.883.068-.22.11-.37.12-.46.026-.114.063-.339.11-.668l.188-1.326a.31.31 0 00-.078-.225.255.255 0 00-.183-.078.464.464 0 00-.204.057 1.569 1.569 0 00-.256.188 3.52 3.52 0 01-.35.34 8.17 8.17 0 01-.611.485c-.308.35-.621.705-.94 1.07-.318.367-.647.732-.976 1.098-.527.61-.94 1.065-1.253 1.357-.314.293-.512.439-.601.439-.261 0-.465-.031-.6-.094-.136-.063-.204-.151-.204-.277 0-.287.157-.893.47-1.807.313-.913.47-1.561.47-1.937a.216.216 0 00-.058-.151.194.194 0 00-.151-.058c-.104 0-.23.058-.376.178s-.308.302-.496.558c-.125.141-.272.303-.449.486-.178.183-.392.397-.643.642a1.292 1.292 0 01-.25.397 4.06 4.06 0 00-.183-.485c-.089-.194-.204-.434-.339-.721h-.006z" fill="#1D1D1B"/><path d="M183.98 61.677l1.196-.789a2.016 2.016 0 00.366-.501.875.875 0 01.245-.287c.1-.079.22-.147.35-.21.068-.088.173-.198.303-.328.131-.13.298-.287.501-.46.094-.052.22-.13.366-.23.146-.099.313-.234.486-.402.799-.752 1.493-1.316 2.094-1.692.6-.376 1.107-.564 1.519-.564.23 0 .397.047.507.147.11.094.162.23.162.407 0 .183-.031.345-.099.486a.869.869 0 01-.308.355c-.22.156-.455.334-.711.522a6.092 6.092 0 01-.511.585 6.607 6.607 0 01-.711.61 8.739 8.739 0 00-.224.304c-.042.041-.126.125-.251.235a4.54 4.54 0 01-.486.391c-.088.194-.276.444-.574.747-.292.308-.684.674-1.175 1.102a4.465 4.465 0 00-.329.418c-.157.22-.366.506-.616.867l.094.12c.193-.063.391-.167.606-.314.208-.151.443-.344.694-.59l.726-.663c.188-.172.324-.282.402-.334.063-.037.125-.068.183-.105.063-.036.13-.078.209-.13.402-.48.778-.836 1.128-1.07.35-.236.673-.35.971-.35.183 0 .324.073.418.219.094.146.151.36.172.647-.015.439-.026.857-.026 1.259-.01.282.068.532.23.757a.75.75 0 00.637.334.42.42 0 00.23-.068c.073-.047.151-.099.23-.172l.177-.224c.058-.068.115-.142.178-.21a.97.97 0 00.151-.093.869.869 0 00.188-.157c.12.261.225.49.308.69.084.198.146.37.193.516-.203.183-.402.376-.595.57a8.846 8.846 0 01-.621.558 3.206 3.206 0 01-.763.455 1.958 1.958 0 01-.736.151c-.569 0-1.008-.162-1.311-.486-.308-.323-.486-.814-.538-1.472 0-.079-.01-.162-.031-.246a.721.721 0 00-.136-.256c-.047.042-.094.09-.146.136a2.24 2.24 0 00-.183.188c-.115.089-.256.199-.428.33a15.5 15.5 0 00-.595.474c-.309.314-.564.575-.773.773-.209.204-.361.345-.444.434a6.199 6.199 0 01-.611.444c-.23.151-.491.303-.784.46a7.192 7.192 0 01-.475.229.792.792 0 01-.287.084c-.423 0-.731-.105-.935-.309-.203-.203-.303-.522-.303-.95 0-.235.053-.46.152-.679.099-.214.25-.423.454-.621.016-.115.026-.204.026-.277a.338.338 0 00-.031-.136 2.222 2.222 0 00-.084-.162c-.052-.12-.109-.26-.177-.412-.068-.152-.136-.319-.22-.491.037-.037.084-.105.152-.204.068-.1.141-.224.23-.376l-.006.016z" fill="#1D1D1B"/><path d="M204.164 63.264c-.078.089-.167.178-.261.272a12.285 12.285 0 01-.831.72 15.35 15.35 0 01-.563.428 5.94 5.94 0 01-.559.356 4.638 4.638 0 01-.517.25 2.632 2.632 0 01-.59.162 1.694 1.694 0 01-.538.005 1.126 1.126 0 01-.512-.208 1.599 1.599 0 01-.418-.47 1.32 1.32 0 01-.146-.502 2.943 2.943 0 01.01-.606c.011-.156.037-.329.079-.506.047-.178.094-.35.146-.517l.157-.502c.052-.167.094-.313.12-.449.026-.104.068-.203.125-.303a1.06 1.06 0 00.125-.302.934.934 0 00.016-.277 3.007 3.007 0 01-.016-.277c.011-.167 0-.329-.01-.486a.989.989 0 00-.131-.407.609.609 0 00-.198-.204.927.927 0 00-.303-.125 3.2 3.2 0 01-.099.33c-.037.114-.078.224-.11.328-.068.193-.151.392-.235.606a24.32 24.32 0 00-.25.616.757.757 0 01-.173.277.825.825 0 00-.183.277 8.567 8.567 0 00-.329.825 5.433 5.433 0 01-.339.799c-.178.334-.355.652-.543.96-.188.309-.371.59-.543.852a6.812 6.812 0 01-.507.69 4.126 4.126 0 01-.491.506 2.22 2.22 0 01-.365.256.712.712 0 01-.34.099.935.935 0 01-.376-.078 1.452 1.452 0 01-.323-.199 1.729 1.729 0 01-.288-.386 2.267 2.267 0 01-.209-.507 4.275 4.275 0 01-.109-.47 2.727 2.727 0 01-.047-.512 10.722 10.722 0 01.052-1.447c.016-.13.037-.26.063-.391l.078-.392c.016-.078.084-.156.198-.235a.611.611 0 01.34-.12c.104 0 .198.032.282.1.083.067.125.125.125.177 0 .078.005.188.021.329.011.141.031.287.047.45.037.307.099.605.183.892.089.287.198.434.329.434.261 0 .58-.256.95-.768.371-.512.695-1.04.966-1.582.042-.094.105-.194.178-.298.073-.1.136-.209.188-.324.037-.089.063-.188.078-.303a.848.848 0 01.089-.287c.047-.078.099-.162.172-.24a.761.761 0 00.147-.246c.052-.13.099-.256.135-.38.042-.12.079-.236.126-.34.052-.13.099-.256.146-.366.042-.115.078-.203.104-.26a2.972 2.972 0 01-.433-.304 1.283 1.283 0 01-.251-.26.929.929 0 01-.099-.283.866.866 0 01.005-.256.728.728 0 01.136-.26c.068-.08.131-.158.188-.236.063-.063.125-.125.183-.198.063-.068.11-.13.146-.183.078 0 .178-.016.298-.042.12-.026.23-.068.334-.12.042-.026.068-.078.073-.157 0-.078.026-.136.073-.172a.315.315 0 01.22-.058c.094 0 .156 0 .203-.02.183-.079.334-.079.449 0 .115.078.136.36.063.84a12.31 12.31 0 01.475.272c.152.094.293.204.434.313.141.115.261.225.365.33.126.13.219.266.298.407.073.14.13.276.177.407a2.628 2.628 0 01.131.825 4.354 4.354 0 01-.146 1.05.702.702 0 01-.136.282.89.89 0 00-.151.308.359.359 0 00-.006.183.349.349 0 01-.005.182c-.052.183-.115.371-.177.56a2.19 2.19 0 00-.126.516.958.958 0 00.037.402.47.47 0 00.198.246c.063.036.141.041.246.02.099-.02.208-.057.323-.11.131-.067.282-.166.45-.297a9.26 9.26 0 00.475-.386 4.51 4.51 0 00.391-.376 6.42 6.42 0 00.303-.324l.554 1.17-.021.005z" fill="#1D1D1B"/><path d="M214.133 63.264c-.078.089-.167.178-.261.272a12.253 12.253 0 01-.83.72 14.55 14.55 0 01-.564.428 5.94 5.94 0 01-.559.356c-.188.104-.36.188-.522.25a2.632 2.632 0 01-.59.162 1.694 1.694 0 01-.538.005 1.126 1.126 0 01-.512-.208 1.613 1.613 0 01-.418-.47 1.32 1.32 0 01-.146-.502 2.877 2.877 0 01.011-.606 3.08 3.08 0 01.078-.506c.042-.178.094-.35.146-.517l.157-.502c.052-.167.094-.313.12-.449.026-.104.068-.203.125-.303.058-.093.099-.198.126-.302a.987.987 0 00.01-.277c-.01-.105-.01-.199-.01-.277a3 3 0 00-.016-.486.989.989 0 00-.131-.407.556.556 0 00-.198-.204.927.927 0 00-.303-.125 3.2 3.2 0 01-.099.33c-.037.114-.079.224-.11.328-.073.193-.151.392-.235.606a24.32 24.32 0 00-.25.616.757.757 0 01-.173.277.825.825 0 00-.183.277 10.34 10.34 0 00-.329.825 5.433 5.433 0 01-.339.799c-.178.334-.355.652-.543.96-.188.309-.371.59-.543.852a6.812 6.812 0 01-.507.69 4.126 4.126 0 01-.491.506 2.22 2.22 0 01-.365.256.694.694 0 01-.34.099.935.935 0 01-.376-.078 1.452 1.452 0 01-.323-.199 1.729 1.729 0 01-.288-.386 2.267 2.267 0 01-.209-.507 4.275 4.275 0 01-.109-.47 2.727 2.727 0 01-.047-.512 10.722 10.722 0 01.052-1.447c.016-.13.037-.26.063-.391l.078-.392c.016-.078.084-.156.198-.235a.611.611 0 01.34-.12c.104 0 .198.032.282.1.083.067.125.125.125.177 0 .078.005.188.021.329.011.141.026.287.047.45.037.307.094.605.183.892.089.287.198.434.329.434.261 0 .58-.256.95-.768.371-.512.695-1.04.966-1.582.042-.094.105-.194.178-.298.073-.1.136-.209.193-.324.037-.089.063-.188.079-.303a.733.733 0 01.094-.287 1.12 1.12 0 01.172-.24.678.678 0 00.146-.246c.052-.13.099-.256.141-.38.037-.12.084-.236.125-.34.053-.13.1-.256.147-.366.041-.115.078-.203.104-.26a2.918 2.918 0 01-.433-.304 1.256 1.256 0 01-.251-.26.903.903 0 01-.099-.283.68.68 0 01.005-.256.728.728 0 01.136-.26c.068-.08.13-.158.193-.236a3.446 3.446 0 00.329-.381c.078 0 .178-.016.298-.042.12-.026.229-.068.334-.12.042-.026.068-.078.073-.157a.22.22 0 01.073-.172.306.306 0 01.214-.058c.094 0 .162 0 .204-.02.183-.079.334-.079.444 0 .115.078.135.36.068.84.078.042.161.09.245.136.084.047.157.094.23.136.151.094.292.204.433.313.141.115.261.225.366.33.12.13.219.266.297.407.074.14.131.276.178.407a2.627 2.627 0 01.131.825c0 .172-.011.355-.037.538a4.568 4.568 0 01-.104.512.702.702 0 01-.136.282.892.892 0 00-.152.308.36.36 0 00-.005.183.349.349 0 01-.005.182 8.39 8.39 0 01-.178.56 2.46 2.46 0 00-.125.516.878.878 0 00.042.402.47.47 0 00.198.246c.063.036.141.041.246.02a1.47 1.47 0 00.323-.11c.131-.067.282-.166.444-.297a9.29 9.29 0 00.476-.386 4.51 4.51 0 00.391-.376c.12-.125.225-.235.303-.324l.554 1.17-.032.005z" fill="#1D1D1B"/><path d="M213.596 62.251c.203-.209.511-.465.924-.762.418-.298.726-.543.924-.737.131-.156.303-.35.512-.569.209-.224.46-.486.752-.794.178-.156.35-.282.512-.365.167-.089.334-.13.501-.13.209 0 .376.052.491.156.12.104.178.272.178.501 0 .34-.131.893-.392 1.656-.261.762-.397 1.342-.397 1.733 0 .09.021.152.058.183a.182.182 0 00.135.052l.068-.015a13.46 13.46 0 001.342-.998c.23-.209.512-.485.846-.825.34-.34.731-.736 1.191-1.18a6.86 6.86 0 00.595-.538c.225-.22.476-.48.752-.788.115-.157.272-.282.481-.366.203-.089.459-.13.757-.13.204 0 .35.036.454.11.1.072.152.187.152.333 0 .063-.005.12-.021.178-.016.057-.021.11-.031.162-.063.26-.152.585-.277.966-.12.381-.272.83-.444 1.347-.146.324-.303.71-.465 1.165-.162.449-.334.945-.517 1.488l.094.12c.183-.089.454-.297.82-.626.36-.33.82-.768 1.368-1.322l.528 1.207-.256.256a2.9 2.9 0 01-.402.323 20.12 20.12 0 00-2.408 1.98c-.668.652-1.201 1.295-1.593 1.937a127.88 127.88 0 01-1.462 2.35 42.369 42.369 0 01-.846 1.274c-.606.8-1.175 1.39-1.718 1.776-.543.386-1.07.58-1.587.58-.194 0-.335-.042-.418-.12-.089-.08-.131-.204-.131-.366 0-.09.021-.199.063-.33.042-.13.125-.27.235-.417.167-.235.318-.48.459-.736l.392-.34a.896.896 0 00.052-.235 1.89 1.89 0 01.152-.156c.062-.063.141-.131.224-.21.063-.156.225-.417.491-.783.267-.365.643-.83 1.123-1.4.36-.417.684-.793.987-1.122.298-.329.554-.606.762-.836.037-.068.074-.151.11-.25.037-.094.073-.194.099-.288.115-.23.241-.5.376-.825.136-.323.298-.705.491-1.143.089-.256.162-.543.225-.872.062-.33.12-.684.172-1.07a.32.32 0 01-.031-.137c0-.057-.026-.135-.058-.245a2.808 2.808 0 00-.517.355c-.188.157-.391.34-.611.554a5.704 5.704 0 01-.882.94c-.298.25-.59.438-.878.569-.193.376-.438.653-.741.835a2.035 2.035 0 01-1.045.272c-.287 0-.506-.068-.658-.204-.151-.136-.224-.345-.224-.621a1 1 0 01.021-.199c.015-.078.031-.172.057-.276a6.388 6.388 0 01-.13-.366c.036-.151.068-.313.094-.501 0-.261-.021-.46-.058-.59-.036-.131-.104-.199-.188-.199l-.052.026c-.099.068-.23.178-.407.314-.178.14-.387.313-.632.511-.042-.115-.099-.25-.162-.407a7.603 7.603 0 01-.204-.554c-.015-.052-.042-.099-.068-.146a.357.357 0 00-.094-.104l-.015-.016z" fill="#1D1D1B"/><path d="M224.943 62.25c.178-.229.402-.5.674-.819a34.19 34.19 0 011.003-1.097 7.09 7.09 0 01.104-.282c.047-.11.11-.245.199-.412.464-.69.877-1.358 1.248-1.995.365-.637.684-1.259.945-1.864.078-.147.167-.335.256-.56.094-.224.209-.474.35-.756.125-.21.245-.371.36-.486.12-.115.235-.172.35-.172.177 0 .303.073.386.224.084.152.126.381.126.695 0 .177-.152.741-.455 1.702-.303.961-.752 2.308-1.347 4.053a17.743 17.743 0 00-.527 1.765 93.675 93.675 0 00-.669 2.83c-.026.167-.057.36-.083.58-.032.22-.079.47-.141.762a17.547 17.547 0 00-.314 1.342c-.062.335-.089.549-.078.643l.052.104c.047-.026.094-.11.152-.25a2.87 2.87 0 00.151-.606c.052-.235.094-.434.12-.596.026-.162.031-.297.016-.402.193-.506.418-1.16.684-1.948.261-.793.569-1.712.919-2.762.141-.256.298-.564.48-.924.178-.366.371-.794.57-1.296.203-.193.381-.334.543-.428.162-.094.297-.136.412-.136.246 0 .476.068.684.199.209.13.403.324.58.58.042.062.125.214.246.464.12.25.276.59.48 1.019.115.26.23.464.355.61.125.147.24.22.355.23l.554 1.207c-.042.01-.157.036-.35.094-.188.052-.46.11-.81.172l-.893-.329c-.219-.063-.485-.277-.793-.642-.314-.366-.564-.58-.758-.643-.182.13-.381.392-.59.773-.209.387-.423.883-.642 1.499-.052.141-.12.293-.204.454-.083.162-.167.35-.256.56-.052.333-.114.652-.182.96-.115.261-.235.595-.366 1.003-.13.407-.271.893-.418 1.451-.041.194-.156.48-.334.867-.177.387-.287.68-.324.878a4.29 4.29 0 01-.109.485 6.165 6.165 0 01-.256.71 4.26 4.26 0 01-.554.794c-.167.178-.303.272-.418.272-.261 0-.459-.125-.59-.381-.13-.256-.198-.632-.198-1.128 0-.752.042-1.583.13-2.48.089-.904.22-1.87.392-2.904.052-.298.11-.601.172-.904.063-.308.126-.616.183-.935.079-.365.131-.705.162-1.013.031-.308.037-.58.021-.825-.089.026-.235.136-.439.334-.203.199-.464.491-.783.888a4.06 4.06 0 00-.183-.486c-.089-.193-.203-.433-.339-.72l-.011-.021z" fill="#1D1D1B"/><path d="M242.223 63.368c-.036.115-.135.267-.308.455a5.702 5.702 0 01-.621.585 7.44 7.44 0 01-.502.38 8.486 8.486 0 01-.553.372 7.616 7.616 0 01-.909.48 5.777 5.777 0 01-.929.324 5.12 5.12 0 01-.815.157 6.602 6.602 0 01-.851.052.58.58 0 01-.22-.047c-.073-.032-.141-.058-.203-.084a1.854 1.854 0 01-.303-.162.737.737 0 01-.235-.282 1.89 1.89 0 01-.131-.386 2.219 2.219 0 01-.052-.507c0-.13.031-.282.094-.449a3.92 3.92 0 01.251-.527.714.714 0 01.183-.21.937.937 0 00.208-.224c.079-.104.152-.214.209-.329a2.9 2.9 0 01.209-.329c.12-.151.251-.297.387-.438.135-.146.266-.277.386-.402.157-.157.298-.303.418-.44a2.42 2.42 0 00.251-.323c.026-.042.062-.125.12-.25.026-.079.036-.199.026-.356-.157-.052-.282-.067-.366-.036a.894.894 0 00-.151.083c-.058.037-.11.079-.167.11-.079.052-.167.12-.261.204-.1.083-.199.172-.303.266-.22.209-.46.454-.721.736-.261.277-.522.549-.789.815-.182.183-.365.366-.553.538a6.34 6.34 0 01-.501.433l-.528-1.195c.141-.142.287-.282.434-.423.146-.142.287-.283.417-.413.272-.266.543-.522.815-.778.272-.256.533-.486.789-.7a6.71 6.71 0 00.428-.397c.125-.13.261-.25.402-.355.094-.068.209-.136.334-.188.125-.052.235-.11.324-.162a2.22 2.22 0 01.381-.198c.131-.053.251-.1.355-.147.115-.036.225-.067.329-.104a.886.886 0 01.287-.052c.115 0 .246.01.392.026.152.016.277.052.381.104.12.053.225.126.303.22.079.094.146.188.209.297a.749.749 0 01.11.293c.021.115.031.23.031.355a.601.601 0 01-.073.261c-.047.1-.099.198-.151.303a2.607 2.607 0 01-.121.235c-.041.078-.099.157-.156.235-.115.13-.272.298-.465.501-.198.204-.397.408-.595.616-.261.288-.502.57-.716.841-.214.272-.324.486-.324.643-.01.203.053.36.178.475a.574.574 0 00.386.172c.115 0 .23-.016.356-.042a2.92 2.92 0 00.365-.104c.219-.078.444-.183.669-.319.229-.13.443-.276.642-.433a5.22 5.22 0 00.903-.935l.59 1.154.021.005z" fill="#1D1D1B"/><path d="M241.623 62.251a.263.263 0 00.115-.224 5.23 5.23 0 00.506-.507c.188-.214.403-.465.638-.757.193-.261.391-.522.595-.789.204-.26.428-.527.663-.788.193-.261.381-.538.569-.82.188-.287.387-.564.596-.836.35-.167.621-.282.814-.355.194-.068.324-.104.392-.104a.38.38 0 01.303.125.559.559 0 01.104.36c0 .053-.01.126-.041.225-.027.1-.058.204-.089.313a9.149 9.149 0 01-.209.538 10.23 10.23 0 01-.251.92c-.094.307-.188.61-.277.908-.088.376-.156.72-.203 1.04a5.937 5.937 0 00-.073.866c0 .491.026.856.073 1.092.047.235.115.339.203.313.089-.052.199-.115.329-.188.131-.073.288-.162.46-.256.157-.167.334-.37.533-.616.198-.246.433-.533.715-.867.157-.246.319-.486.486-.72.062-.069.136-.152.219-.251.084-.1.157-.194.23-.288.167-.423.355-.73.559-.94.203-.203.433-.308.689-.308.23 0 .407.026.543.084a.5.5 0 01.282.256c.026.062.047.167.068.313.016.146.026.345.026.59 0 .094.021.235.058.418.041.183.057.318.057.407 0 .324.057.57.172.731.115.162.288.24.528.24.068 0 .151-.015.25-.036.1-.026.194-.058.288-.094l.527 1.206c-.527.314-.956.554-1.29.716-.339.162-.59.245-.757.245-.439 0-.794-.115-1.076-.34-.282-.229-.485-.563-.616-1.012a1.06 1.06 0 00-.11-.314 1.86 1.86 0 00-.219-.313l-.272.313a6.647 6.647 0 01-.318.366 57.5 57.5 0 01-.71.846 36.76 36.76 0 01-.721.82c-.308.36-.616.621-.924.783-.314.162-.601.24-.872.24-.403 0-.726-.12-.972-.36-.245-.24-.402-.595-.47-1.07a16.68 16.68 0 01-.156-1.066c-.027-.256-.032-.407-.011-.46a4.466 4.466 0 00-.073-.58c-.031-.13-.078-.198-.136-.198l-.078.042-.747.773a1.439 1.439 0 01-.13.23 5.341 5.341 0 01-.251.334 4.06 4.06 0 00-.183-.486c-.089-.193-.204-.433-.339-.72l-.016.01zm10.925 0a.28.28 0 00.083-.094.253.253 0 00.032-.13 4.72 4.72 0 00.506-.507c.188-.214.402-.465.637-.757.194-.261.392-.522.596-.789.203-.26.428-.527.663-.788.193-.261.381-.538.569-.82.188-.287.387-.564.596-.836.349-.167.621-.282.814-.355.193-.068.324-.104.397-.104a.38.38 0 01.303.125.559.559 0 01.104.36c0 .053-.01.126-.036.225-.026.1-.058.204-.089.313a9.149 9.149 0 01-.209.538 9.807 9.807 0 01-.251.92c-.094.307-.188.61-.276.908-.089.376-.157.72-.204 1.04a5.937 5.937 0 00-.073.866c0 .491.021.856.073 1.092.047.235.115.339.204.313.088-.052.198-.115.329-.188.13-.073.287-.162.459-.256.157-.167.334-.37.533-.616.198-.246.433-.533.715-.867.157-.246.319-.486.486-.72.063-.069.131-.152.214-.251.084-.1.162-.194.23-.288.167-.423.35-.73.559-.94.203-.203.433-.308.689-.308.225 0 .407.026.543.084a.5.5 0 01.282.256c.026.062.047.167.068.313.016.146.026.345.026.59 0 .094.021.235.058.418.036.183.057.318.057.407 0 .324.057.57.172.731.115.162.288.24.528.24.068 0 .151-.015.25-.036a3.22 3.22 0 00.288-.094l.527 1.206a17.11 17.11 0 01-1.295.716c-.339.162-.59.245-.752.245-.439 0-.799-.115-1.076-.34-.277-.229-.485-.563-.616-1.012a.934.934 0 00-.11-.314 2.154 2.154 0 00-.214-.313l-.271.313a5.24 5.24 0 01-.324.366 57.5 57.5 0 01-.71.846 36.76 36.76 0 01-.721.82c-.308.36-.616.621-.924.783-.314.162-.601.24-.872.24-.402 0-.726-.12-.972-.36-.245-.24-.402-.595-.47-1.07a16.68 16.68 0 01-.156-1.066c-.026-.256-.032-.407-.016-.46a4.466 4.466 0 00-.073-.58c-.031-.13-.078-.198-.136-.198l-.078.042-.747.773c-.026.063-.073.136-.131.23a4.914 4.914 0 01-.25.334 3.345 3.345 0 00-.183-.486c-.089-.193-.204-.433-.339-.72l-.016.01zM15.382 30.062c.219-.272.47-.408.752-.408.386 0 .58.314.58.94 0 .898-.095 1.5-.277 1.807-.183.308-.44.46-.758.46s-.538-.199-.647-.59c-.11-.397-.225-.617-.35-.658-.126-.042-.37-.058-.737-.058-.903 0-2.015.81-3.336 2.434-1.322 1.624-1.985 3.06-1.985 4.308 0 .543.172 1.024.507 1.441.34.418.783.627 1.337.627.454 0 .893-.089 1.32-.266.429-.178 1.05-.549 1.87-1.102.335-.22.57-.33.71-.33.194 0 .356.069.481.21a.712.712 0 01.188.501.9.9 0 01-.157.48c-.104.168-.465.465-1.091.883a8.126 8.126 0 01-1.823.945c-.59.21-1.17.308-1.733.308-.946 0-1.713-.34-2.298-1.018-.59-.679-.883-1.483-.883-2.407 0-1.708.83-3.572 2.496-5.61 1.666-2.03 3.212-3.049 4.638-3.049.564 0 .96.047 1.185.141l.01.01zm8.032 5.415c.705.6 1.054 1.363 1.054 2.298 0 1.196-.407 2.224-1.227 3.08-.82.857-2.136 1.29-3.948 1.29a5.325 5.325 0 01-2.209-.495c-.726-.33-1.086-.752-1.086-1.275 0-.282.094-.511.287-.69a.928.928 0 01.643-.265c.386 0 .668.104.856.313.324.37.595.6.825.684.225.084.538.125.94.125 1.384 0 2.298-.26 2.731-.778a2.63 2.63 0 00.653-1.75c0-.454-.172-.84-.522-1.164-.345-.324-.825-.485-1.436-.485-.12 0-.293 0-.517.015-.225.01-.402-.041-.533-.156a.558.558 0 01-.198-.434c0-.308.094-.548.287-.715.193-.173.538-.277 1.029-.33a3.099 3.099 0 001.75-.751c.506-.434.756-.878.756-1.327 0-.308-.172-.605-.517-.888-.344-.282-.668-.428-.971-.428-.94 0-1.776.225-2.512.669-.256.151-.454.23-.6.23a.832.832 0 01-.549-.188c-.151-.126-.23-.272-.23-.434 0-.506.382-.94 1.15-1.3.767-.36 1.754-.543 2.97-.543.8 0 1.468.25 2.006.746.538.502.804 1.108.804 1.818 0 .527-.135 1.07-.402 1.634-.271.564-.7 1.06-1.295 1.489l.01.005zm12.883-2.397l-2.381 5.468-.747 1.52c-.376.762-.674 1.3-.898 1.608-.225.308-.497.465-.815.465-.392 0-.648-.45-.768-1.353l-.287-3.316c-.078-.992-.14-2.413-.193-4.256l-.564 1.436-1.74 4.846-.39 1.259c-.163.517-.299.867-.403 1.06-.104.193-.214.324-.324.397a.684.684 0 01-.386.11c-.413 0-.616-.22-.616-.664 0-.214.083-.642.256-1.285.167-.642.428-1.378.783-2.209l1.248-3.196.862-2.511c.334-.972.647-1.682.945-2.12.297-.44.616-.664.966-.664.319 0 .533.214.637.648.105.428.167 1.378.188 2.851 0 1.645.115 3.75.345 6.314a126.693 126.693 0 003.04-7.03l.406-1.18c.397-1.143.883-1.713 1.457-1.713.533 0 .8.758.8 2.272l-.037 2.434c0 1.681.083 3.232.245 4.653l.167 1.373c.068.522.1.909.1 1.17a.93.93 0 01-.314.715c-.209.188-.423.282-.652.282-.507 0-.784-.574-.826-1.728l-.078-1.368a54.338 54.338 0 01-.084-2.998c0-1.07.016-2.172.053-3.29h.005zm13.923 0l-2.382 5.468-.747 1.52c-.376.762-.674 1.3-.898 1.608-.225.308-.496.465-.815.465-.391 0-.647-.45-.767-1.353l-.288-3.316c-.078-.992-.14-2.413-.193-4.256l-.564 1.436-1.739 4.846-.391 1.259c-.167.517-.298.867-.403 1.06-.104.193-.214.324-.323.397a.684.684 0 01-.387.11c-.412 0-.616-.22-.616-.664 0-.214.084-.642.256-1.285.167-.642.433-1.378.783-2.209l1.248-3.196.862-2.511c.334-.972.648-1.682.945-2.12.293-.44.616-.664.966-.664.319 0 .533.214.637.648.105.428.168 1.378.188 2.851 0 1.645.115 3.75.345 6.314a126.62 126.62 0 003.04-7.03l.407-1.18c.397-1.143.882-1.713 1.457-1.713.532 0 .799.758.799 2.272l-.037 2.434c0 1.681.084 3.232.246 4.653l.167 1.373c.068.522.099.909.099 1.17a.93.93 0 01-.313.715c-.21.188-.423.282-.653.282-.507 0-.784-.574-.825-1.728l-.079-1.368a54.434 54.434 0 01-.083-2.998c0-1.07.02-2.172.052-3.29h.005z" fill="#1D1D1B"/><path d="M58.173 36.02c0 9.118-12.8 16.507-28.587 16.507C13.8 52.527 1 45.138 1 36.02c0-9.118 12.8-16.507 28.586-16.507 15.787 0 28.587 7.39 28.587 16.507z" stroke="#1D1D1B" stroke-width="1.78" stroke-miterlimit="10"/><path d="M2.3 16.317h70.881M3.904 14.128h67.674" stroke="#1D1D1B" stroke-width="1.78" stroke-miterlimit="10" stroke-linecap="round"/><path d="M5.925 11.94h63.632" stroke="#1D1D1B" stroke-width="1.34" stroke-miterlimit="10" stroke-linecap="round"/><path d="M9.13 9.753h57.22M11.716 7.564h51.632" stroke="#1D1D1B" stroke-width=".89" stroke-miterlimit="10" stroke-linecap="round"/><path d="M14.045 5.376h47.391" stroke="#1D1D1B" stroke-width="1.34" stroke-miterlimit="10" stroke-linecap="round"/><path d="M16.943 3.188h41.595M20.202 1H55.28m4.553 15.494V70.43" stroke="#1D1D1B" stroke-width="1.78" stroke-miterlimit="10" stroke-linecap="round"/><path d="M62.095 16.316v52.29m2.266-52.29v49.742" stroke="#1D1D1B" stroke-width=".89" stroke-miterlimit="10" stroke-linecap="round"/><path d="M66.622 16.317v44.937m2.266-44.943v40.755" stroke="#1D1D1B" stroke-width="1.78" stroke-miterlimit="10" stroke-linecap="round"/><path d="M71.15 16.317v37.385m2.266-37.39v33.265" stroke="#1D1D1B" stroke-width=".89" stroke-miterlimit="10" stroke-linecap="round"/><path d="M59.41 55.118H2.66" stroke="#1D1D1B" stroke-width="1.78" stroke-miterlimit="10" stroke-linecap="round"/><path d="M59.41 57.306H4.27" stroke="#1D1D1B" stroke-width="1.34" stroke-miterlimit="10" stroke-linecap="round"/><path d="M59.41 59.494H6.285m53.126 2.188H9.49" stroke="#1D1D1B" stroke-width=".89" stroke-miterlimit="10" stroke-linecap="round"/><path d="M59.41 63.87H12.494" stroke="#1D1D1B" stroke-width="1.34" stroke-miterlimit="10" stroke-linecap="round"/><path d="M59.41 66.058H14.405m45.005 2.188H17.304m42.106 2.188H20.562" stroke="#1D1D1B" stroke-width="1.78" stroke-miterlimit="10" stroke-linecap="round"/></svg>