<svg width="54" height="54" fill="none" xmlns="http://www.w3.org/2000/svg"><g filter="url(#filter0_d_38_276)"><circle cx="27" cy="27" r="19" fill="url(#paint0_linear_38_276)"/></g><path d="M25.494 28.69l-.232 3.257c.331 0 .475-.143.647-.313l1.553-1.485 3.22 2.357c.59.33 1.006.156 1.165-.543l2.113-9.9v-.001c.187-.873-.315-1.214-.89-1l-12.42 4.755c-.848.329-.835.802-.144 1.015l3.175.988 7.375-4.615c.347-.23.663-.102.403.128l-5.965 5.356z" fill="#fff"/><defs><linearGradient id="paint0_linear_38_276" x1="27" y1="8" x2="27" y2="46" gradientUnits="userSpaceOnUse"><stop stop-color="#41B4E6"/><stop offset="1" stop-color="#309FCF"/></linearGradient><filter id="filter0_d_38_276" x="0" y="0" width="54" height="54" filterUnits="userSpaceOnUse" color-interpolation-filters="sRGB"><feFlood flood-opacity="0" result="BackgroundImageFix"/><feColorMatrix in="SourceAlpha" values="0 0 0 0 0 0 0 0 0 0 0 0 0 0 0 0 0 0 127 0" result="hardAlpha"/><feOffset/><feGaussianBlur stdDeviation="4"/><feComposite in2="hardAlpha" operator="out"/><feColorMatrix values="0 0 0 0 0.329167 0 0 0 0 0.329167 0 0 0 0 0.329167 0 0 0 0.12 0"/><feBlend in2="BackgroundImageFix" result="effect1_dropShadow_38_276"/><feBlend in="SourceGraphic" in2="effect1_dropShadow_38_276" result="shape"/></filter></defs></svg>