<svg width="40" height="40" fill="none" xmlns="http://www.w3.org/2000/svg"><g filter="url(#filter0_d_34_203)"><circle cx="20" cy="20" r="12" fill="url(#paint0_linear_34_203)"/></g><path d="M18.924 21.492l-.165 2.327c.236 0 .339-.102.462-.224l1.11-1.06 2.298 1.684c.422.235.72.111.833-.388l1.51-7.072c.133-.624-.226-.868-.637-.715l-8.87 3.397c-.606.235-.597.572-.104.725l2.268.706 5.268-3.297c.248-.164.474-.073.288.091l-4.261 3.826z" fill="#fff"/><defs><linearGradient id="paint0_linear_34_203" x1="20" y1="8" x2="20" y2="32" gradientUnits="userSpaceOnUse"><stop stop-color="#41B4E6"/><stop offset="1" stop-color="#309FCF"/></linearGradient><filter id="filter0_d_34_203" x="0" y="0" width="40" height="40" filterUnits="userSpaceOnUse" color-interpolation-filters="sRGB"><feFlood flood-opacity="0" result="BackgroundImageFix"/><feColorMatrix in="SourceAlpha" values="0 0 0 0 0 0 0 0 0 0 0 0 0 0 0 0 0 0 127 0" result="hardAlpha"/><feOffset/><feGaussianBlur stdDeviation="4"/><feComposite in2="hardAlpha" operator="out"/><feColorMatrix values="0 0 0 0 0.329167 0 0 0 0 0.329167 0 0 0 0 0.329167 0 0 0 0.12 0"/><feBlend in2="BackgroundImageFix" result="effect1_dropShadow_34_203"/><feBlend in="SourceGraphic" in2="effect1_dropShadow_34_203" result="shape"/></filter></defs></svg>