<svg width="54" height="54" fill="none" xmlns="http://www.w3.org/2000/svg"><g filter="url(#filter0_d_38_271)"><circle cx="27" cy="27" r="19" fill="url(#paint0_linear_38_271)"/></g><path fill-rule="evenodd" clip-rule="evenodd" d="M23.552 31.898a.61.61 0 01.485.066 5.777 5.777 0 10-2.003-2 .606.606 0 01.066.483l-.578 2.031 2.03-.58zm-2.572-1.327a7 7 0 112.449 2.45l-2.902.829a.305.305 0 01-.377-.377l.83-2.902z" fill="#fff"/><path fill-rule="evenodd" clip-rule="evenodd" d="M23.647 25.109a5.692 5.692 0 005.241 5.28h.001a1.508 1.508 0 001.185-.438l.212-.212c.1-.1.157-.236.157-.378v-.451a.305.305 0 00-.168-.273l-1.357-.678a.304.304 0 00-.352.057l-.59.59a.305.305 0 01-.275.083h-.003a3.043 3.043 0 01-2.387-2.387v-.003a.304.304 0 01.083-.275l.59-.59a.305.305 0 00.057-.352l-.678-1.357a.306.306 0 00-.273-.168h-.383a.65.65 0 00-.483.215l-.202.224a1.48 1.48 0 00-.377 1.092l.002.02z" fill="#fff"/><defs><linearGradient id="paint0_linear_38_271" x1="27" y1="8" x2="27" y2="46" gradientUnits="userSpaceOnUse"><stop stop-color="#58CE68"/><stop offset="1" stop-color="#359E43"/></linearGradient><filter id="filter0_d_38_271" x="0" y="0" width="54" height="54" filterUnits="userSpaceOnUse" color-interpolation-filters="sRGB"><feFlood flood-opacity="0" result="BackgroundImageFix"/><feColorMatrix in="SourceAlpha" values="0 0 0 0 0 0 0 0 0 0 0 0 0 0 0 0 0 0 127 0" result="hardAlpha"/><feOffset/><feGaussianBlur stdDeviation="4"/><feComposite in2="hardAlpha" operator="out"/><feColorMatrix values="0 0 0 0 0.329167 0 0 0 0 0.329167 0 0 0 0 0.329167 0 0 0 0.12 0"/><feBlend in2="BackgroundImageFix" result="effect1_dropShadow_38_271"/><feBlend in="SourceGraphic" in2="effect1_dropShadow_38_271" result="shape"/></filter></defs></svg>