<svg width="40" height="40" fill="none" xmlns="http://www.w3.org/2000/svg"><g filter="url(#filter0_d_34_198)"><circle cx="20" cy="20" r="12" fill="url(#paint0_linear_34_198)"/></g><path fill-rule="evenodd" clip-rule="evenodd" d="M17.538 23.499a.434.434 0 01.346.047 4.126 4.126 0 10-1.43-1.43.434.434 0 01.046.346 732.95 732.95 0 01-.413 1.451l1.45-.414zM15.7 22.55a5 5 0 111.749 1.75l-2.073.592a.217.217 0 01-.269-.27l.593-2.072z" fill="#fff"/><path fill-rule="evenodd" clip-rule="evenodd" d="M17.605 18.65a4.066 4.066 0 003.744 3.771 1.078 1.078 0 00.847-.313l.151-.152a.383.383 0 00.112-.27v-.322a.219.219 0 00-.12-.195l-.97-.484a.218.218 0 00-.25.04l-.422.422a.218.218 0 01-.196.06h-.002a2.174 2.174 0 01-1.705-1.706V19.5a.217.217 0 01.059-.196l.421-.422a.218.218 0 00.041-.25l-.485-.97a.218.218 0 00-.194-.12h-.274a.466.466 0 00-.345.153l-.144.16a1.058 1.058 0 00-.27.78l.002.015z" fill="#fff"/><defs><linearGradient id="paint0_linear_34_198" x1="20" y1="8" x2="20" y2="32" gradientUnits="userSpaceOnUse"><stop stop-color="#58CE68"/><stop offset="1" stop-color="#359E43"/></linearGradient><filter id="filter0_d_34_198" x="0" y="0" width="40" height="40" filterUnits="userSpaceOnUse" color-interpolation-filters="sRGB"><feFlood flood-opacity="0" result="BackgroundImageFix"/><feColorMatrix in="SourceAlpha" values="0 0 0 0 0 0 0 0 0 0 0 0 0 0 0 0 0 0 127 0" result="hardAlpha"/><feOffset/><feGaussianBlur stdDeviation="4"/><feComposite in2="hardAlpha" operator="out"/><feColorMatrix values="0 0 0 0 0.329167 0 0 0 0 0.329167 0 0 0 0 0.329167 0 0 0 0.12 0"/><feBlend in2="BackgroundImageFix" result="effect1_dropShadow_34_198"/><feBlend in="SourceGraphic" in2="effect1_dropShadow_34_198" result="shape"/></filter></defs></svg>