<svg width="58" height="58" viewBox="0 0 58 58" fill="none" xmlns="http://www.w3.org/2000/svg">
<path d="M57.8361 25.8989C57.9086 26.5801 57.9574 27.2685 57.9818 27.963L57.4821 27.9806C57.494 28.3189 57.5 28.6587 57.5 29C57.5 29.3413 57.494 29.6811 57.4821 30.0194L57.9818 30.037C57.9574 30.7315 57.9086 31.4199 57.8361 32.1011L57.3389 32.0483C57.2667 32.7275 57.1707 33.3995 57.0516 34.0635L57.5438 34.1517C57.4214 34.8344 57.2751 35.5089 57.1058 36.1741L56.6212 36.0508C56.4532 36.7113 56.262 37.3626 56.0487 38.0037L56.5231 38.1616C56.3045 38.8188 56.0629 39.4655 55.7995 40.1009L55.3376 39.9093C55.077 40.5377 54.7946 41.1548 54.4912 41.7596L54.9382 41.9838C54.6281 42.6021 54.2965 43.2078 53.9444 43.7999L53.5147 43.5444C53.1674 44.1284 52.7999 44.6989 52.413 45.2551L52.8235 45.5406C52.4289 46.1078 52.0146 46.6603 51.5815 47.197L51.1924 46.8831C50.7662 47.4113 50.3214 47.9241 49.8592 48.4203L50.2251 48.7611C49.7546 49.2663 49.2663 49.7546 48.7611 50.2251L48.4203 49.8592C47.9241 50.3215 47.4113 50.7662 46.8831 51.1924L47.197 51.5815C46.6603 52.0146 46.1078 52.4289 45.5406 52.8235L45.255 52.413C44.6989 52.7999 44.1283 53.1674 43.5443 53.5147L43.7999 53.9444C43.2078 54.2965 42.6021 54.6281 41.9838 54.9382L41.7596 54.4912C41.1548 54.7946 40.5377 55.077 39.9093 55.3376L40.1008 55.7995C39.4655 56.0629 38.8187 56.3045 38.1615 56.5231L38.0037 56.0487C37.3625 56.262 36.7113 56.4532 36.0508 56.6212L36.1741 57.1058C35.5089 57.2751 34.8344 57.4214 34.1517 57.5438L34.0635 57.0516C33.3995 57.1707 32.7275 57.2667 32.0483 57.3389L32.1011 57.8361C31.4199 57.9086 30.7315 57.9574 30.037 57.9818L30.0194 57.4821C29.6811 57.494 29.3413 57.5 29 57.5C28.6587 57.5 28.3189 57.494 27.9806 57.4821L27.963 57.9818C27.2685 57.9574 26.5801 57.9086 25.8989 57.8361L25.9517 57.3389C25.2725 57.2667 24.6005 57.1707 23.9365 57.0516L23.8483 57.5438C23.1656 57.4214 22.4911 57.2751 21.8259 57.1058L21.9492 56.6212C21.2887 56.4532 20.6374 56.262 19.9963 56.0487L19.8384 56.5231C19.1812 56.3045 18.5345 56.0629 17.8991 55.7995L18.0907 55.3376C17.4623 55.077 16.8452 54.7946 16.2404 54.4912L16.0162 54.9382C15.3979 54.6281 14.7922 54.2965 14.2001 53.9444L14.4556 53.5147C13.8716 53.1674 13.3011 52.7999 12.7449 52.413L12.4594 52.8235C11.8922 52.4289 11.3397 52.0146 10.803 51.5815L11.1169 51.1924C10.5887 50.7662 10.0759 50.3214 9.57966 49.8592L9.23887 50.2251C8.73373 49.7546 8.2454 49.2663 7.77489 48.7611L8.14077 48.4203C7.67855 47.9241 7.23382 47.4113 6.80758 46.8831L6.41845 47.197C5.98539 46.6603 5.57107 46.1078 5.1765 45.5406L5.58696 45.255C5.20011 44.6989 4.83258 44.1284 4.48533 43.5443L4.05556 43.7999C3.7035 43.2078 3.37193 42.6021 3.06181 41.9838L3.50875 41.7596C3.20542 41.1548 2.92298 40.5377 2.66239 39.9093L2.20053 40.1008C1.93706 39.4655 1.69552 38.8187 1.47687 38.1615L1.9513 38.0037C1.73799 37.3625 1.54683 36.7113 1.37875 36.0508L0.894196 36.1741C0.724904 35.5089 0.57861 34.8344 0.456208 34.1517L0.948361 34.0635C0.829313 33.3995 0.733259 32.7275 0.661056 32.0483L0.163858 32.1011C0.0914339 31.4199 0.0426005 30.7315 0.0181902 30.037L0.517882 30.0194C0.505991 29.6811 0.499995 29.3413 0.499995 29C0.499995 28.6587 0.505991 28.3189 0.517882 27.9806L0.0181905 27.963C0.0426009 27.2685 0.0914346 26.5801 0.163859 25.8989L0.661057 25.9517C0.73326 25.2725 0.829315 24.6005 0.948362 23.9365L0.45621 23.8483C0.578611 23.1656 0.724906 22.4911 0.894198 21.8259L1.37875 21.9492C1.54684 21.2887 1.73799 20.6374 1.9513 19.9963L1.47687 19.8385C1.69553 19.1813 1.93706 18.5345 2.20053 17.8991L2.6624 18.0907C2.92299 17.4623 3.20542 16.8452 3.50875 16.2404L3.06182 16.0162C3.37193 15.3979 3.70351 14.7922 4.05557 14.2001L4.48533 14.4556C4.83258 13.8716 5.20012 13.3011 5.58697 12.7449L5.1765 12.4594C5.57108 11.8922 5.9854 11.3397 6.41846 10.803L6.80759 11.1169C7.23383 10.5887 7.67856 10.0759 8.14078 9.57966L7.7749 9.23888C8.24541 8.73373 8.73374 8.24541 9.23888 7.7749L9.57967 8.14078C10.0759 7.67855 10.5887 7.23383 11.1169 6.80759L10.803 6.41846C11.3397 5.9854 11.8922 5.57108 12.4594 5.1765L12.745 5.58697C13.3011 5.20012 13.8716 4.83258 14.4557 4.48534L14.2001 4.05557C14.7922 3.70351 15.3979 3.37194 16.0162 3.06182L16.2404 3.50876C16.8452 3.20542 17.4623 2.92299 18.0907 2.6624L17.8992 2.20054C18.5345 1.93707 19.1813 1.69553 19.8385 1.47688L19.9963 1.95131C20.6375 1.738 21.2887 1.54684 21.9492 1.37876L21.8259 0.894205C22.4911 0.724914 23.1656 0.578619 23.8483 0.456218L23.9365 0.948371C24.6005 0.829323 25.2725 0.733269 25.9517 0.661067L25.8989 0.163868C26.5801 0.091444 27.2685 0.0426106 27.963 0.0182004L27.9806 0.517892C28.3189 0.506001 28.6587 0.500005 29 0.500005C29.3413 0.500005 29.6811 0.506001 30.0194 0.517892L30.037 0.0182002C30.7315 0.0426103 31.4198 0.0914438 32.1011 0.163868L32.0483 0.661066C32.7275 0.733269 33.3995 0.829323 34.0635 0.948371L34.1517 0.456218C34.8344 0.578619 35.5089 0.724914 36.1741 0.894205L36.0508 1.37876C36.7113 1.54684 37.3625 1.738 38.0037 1.95131L38.1615 1.47688C38.8187 1.69553 39.4655 1.93707 40.1008 2.20054L39.9093 2.6624C40.5377 2.92299 41.1548 3.20542 41.7596 3.50876L41.9838 3.06182C42.6021 3.37194 43.2078 3.70351 43.7999 4.05557L43.5443 4.48534C44.1283 4.83258 44.6989 5.20012 45.255 5.58697L45.5406 5.17651C46.1078 5.57108 46.6603 5.9854 47.197 6.41846L46.8831 6.80759C47.4113 7.23383 47.9241 7.67856 48.4203 8.14078L48.7611 7.77491C49.2663 8.24542 49.7546 8.73374 50.2251 9.23888L49.8592 9.57967C50.3214 10.0759 50.7662 10.5887 51.1924 11.1169L51.5815 10.803C52.0146 11.3397 52.4289 11.8922 52.8235 12.4594L52.413 12.745C52.7999 13.3011 53.1674 13.8717 53.5147 14.4557L53.9444 14.2001C54.2965 14.7922 54.6281 15.3979 54.9382 16.0162L54.4912 16.2404C54.7946 16.8452 55.077 17.4623 55.3376 18.0907L55.7995 17.8992C56.0629 18.5345 56.3045 19.1813 56.5231 19.8385L56.0487 19.9963C56.262 20.6375 56.4532 21.2887 56.6212 21.9492L57.1058 21.8259C57.2751 22.4911 57.4214 23.1656 57.5438 23.8483L57.0516 23.9365C57.1707 24.6005 57.2667 25.2725 57.3389 25.9517L57.8361 25.8989Z" stroke="#1D1D1B" stroke-dasharray="2 2"/>
<path d="M39.3536 29.3536C39.5488 29.1583 39.5488 28.8417 39.3536 28.6464L36.1716 25.4645C35.9763 25.2692 35.6597 25.2692 35.4645 25.4645C35.2692 25.6597 35.2692 25.9763 35.4645 26.1716L38.2929 29L35.4645 31.8284C35.2692 32.0237 35.2692 32.3403 35.4645 32.5355C35.6597 32.7308 35.9763 32.7308 36.1716 32.5355L39.3536 29.3536ZM19 29.5L39 29.5L39 28.5L19 28.5L19 29.5Z" fill="#1D1D1B"/>
</svg>
