<svg width="27" height="28" viewBox="0 0 27 28" fill="none" xmlns="http://www.w3.org/2000/svg">
<path fill-rule="evenodd" clip-rule="evenodd" d="M21.9743 17.0743H19.4465C19.2202 17.0743 19.0327 16.8933 19.0327 16.6605V14.999L17.8496 16.1821C17.6945 16.3437 17.4424 16.3437 17.2807 16.1821L15.5029 14.4107C15.4382 14.3396 15.393 14.2297 15.393 14.1327C15.393 14.0422 15.4382 13.9323 15.5029 13.8612L16.6924 12.6781H15.0245C14.7982 12.6781 14.6172 12.4971 14.6172 12.2708V9.7172C14.6172 9.49093 14.7982 9.30991 15.0245 9.30991H16.6924L15.5029 8.12683C15.3477 7.96521 15.3477 7.71308 15.5029 7.55792L17.3066 5.78007C17.4618 5.61844 17.7139 5.61844 17.8755 5.78007L19.0586 6.96315V5.30166C19.0586 5.07539 19.2396 4.88791 19.4659 4.88791H21.9937C22.2199 4.88791 22.4074 5.07539 22.4074 5.30166V6.96315L23.5646 5.78007C23.7263 5.61844 23.9784 5.61844 24.1335 5.78007L25.9114 7.55792C26.073 7.71308 26.073 7.96521 25.9114 8.12683L24.7283 9.30991H26.3898C26.6161 9.30991 26.7971 9.49093 26.7971 9.7172V12.245C26.7971 12.4713 26.6161 12.6523 26.3898 12.6523H24.7283L25.9114 13.8418C25.9825 13.9065 26.0278 14.0228 26.0278 14.1133C26.0278 14.2039 25.9825 14.3202 25.9114 14.3849L24.1335 16.1627C24.0689 16.2274 23.9525 16.2791 23.862 16.2791C23.7457 16.2791 23.6551 16.2274 23.5905 16.1627L22.4074 14.9796V16.6411C22.3622 16.8933 22.2005 17.0743 21.9743 17.0743ZM20.7201 13.7707C19.1685 13.7707 17.9208 12.5165 17.9208 10.9714C17.9208 9.41982 19.1685 8.19148 20.7201 8.19148C22.2716 8.19148 23.5 9.44568 23.5 10.9714C23.5 12.4971 22.2458 13.7707 20.7201 13.7707ZM20.7201 8.98667C19.6275 8.98667 18.7159 9.87882 18.7159 10.9908C18.7159 12.0834 19.6016 12.9949 20.7201 12.9949C21.8385 12.9949 22.7242 12.1092 22.7242 10.9908C22.6983 9.87882 21.8126 8.98667 20.7201 8.98667Z" fill="#1D1D1B"/>
<path fill-rule="evenodd" clip-rule="evenodd" d="M22.5173 28H20.1511V21.1278C20.1511 20.9015 19.9701 20.714 19.7439 20.714H14.4103C14.184 20.714 14.003 20.9015 14.003 21.1278V28H8.92805V21.1278C8.92805 20.9015 8.74057 20.714 8.5143 20.714H3.1872C2.96093 20.714 2.77991 20.9015 2.77991 21.1278V28H0.40729C0.181018 28 0 27.819 0 27.5927V18.3479C0 18.2121 0.0646492 18.0764 0.181018 18.0052L5.896 14.5013C5.98651 14.4301 6.10288 14.4107 6.19339 14.456C6.30329 14.4754 6.37441 14.5465 6.44552 14.637L8.30742 17.7984L13.7056 14.5013C13.7961 14.456 13.9125 14.4301 14.003 14.456C14.1194 14.4754 14.184 14.5465 14.2551 14.637L16.214 17.9406H22.5173C22.7436 17.9406 22.9311 18.1216 22.9311 18.3479V27.6186C22.9052 27.819 22.7242 28 22.5173 28ZM19.3301 28H14.8241V21.5351H19.3301V28ZM8.08115 28H3.5751V21.5351H8.08115V28ZM0.103439 17.1583L0.976202 7.44156C1.00206 7.23469 1.15722 7.07953 1.3641 7.07953H3.23246C3.43934 7.07953 3.62035 7.23469 3.62035 7.44156L4.27978 14.5918L0.103439 17.1583Z" fill="#1D1D1B"/>
<path fill-rule="evenodd" clip-rule="evenodd" d="M5.43066 13.8871L6.01251 7.44156C6.0319 7.26055 6.21292 7.09892 6.4198 7.09892H8.28816C8.49503 7.09892 8.67605 7.26055 8.67605 7.46096L9.47124 16.1886L8.57261 16.7446L7.10508 14.2491C6.94992 13.9841 6.71718 13.803 6.43273 13.7255C6.11595 13.6091 5.77977 13.6737 5.49531 13.8483L5.43066 13.8871ZM7.40246 6.4395C7.35721 6.4395 7.33135 6.4395 7.2861 6.41364C7.10508 6.36839 6.96931 6.18737 7.01457 5.98049C7.01457 5.93524 7.19559 4.86853 7.69338 3.79535C7.78389 3.59494 8.03603 3.52382 8.21704 3.61433L9.24496 2.41186C9.15446 2.20498 9.24496 1.97871 9.45184 1.8882C10.066 1.61021 10.7448 1.68132 11.4495 1.77183C12.7748 1.90759 14.0031 2.06922 15.1216 0.200856C15.2315 0.0198382 15.4384 -0.0512758 15.6194 0.039233C15.8004 0.129742 15.8909 0.336619 15.8262 0.517637C15.7551 0.698655 14.5009 4.52589 11.9538 4.52589C11.7016 4.52589 11.4495 4.48063 11.2038 4.40952C8.87646 3.7501 7.80975 6.09686 7.7645 6.21323C7.69338 6.34899 7.55762 6.4395 7.40246 6.4395Z" fill="#1D1D1B"/>
<path fill-rule="evenodd" clip-rule="evenodd" d="M2.30145 6.66577C2.2562 6.66577 2.23034 6.66577 2.18508 6.64638C2.00406 6.60112 1.8683 6.39424 1.91356 6.18737C1.93295 6.07746 2.39196 3.3428 3.98233 2.26963C4.5965 1.86234 5.28178 1.77183 6.05757 1.95285C8.6306 2.63813 9.9947 0.407731 10.0206 0.381871C10.1305 0.200853 10.3373 0.129739 10.5184 0.220248C10.6994 0.310757 10.7899 0.517634 10.7252 0.698652C10.6541 0.931389 9.15426 5.48269 6.10282 4.61639C3.78192 3.95697 2.70874 6.32313 2.66349 6.41364C2.59237 6.57526 2.45661 6.66577 2.30145 6.66577Z" fill="#1D1D1B"/>
</svg>
