<svg width="27" height="28" viewBox="0 0 27 28" fill="none" xmlns="http://www.w3.org/2000/svg">
<path fill-rule="evenodd" clip-rule="evenodd" d="M18.3641 6.83643C18.3641 6.56632 18.4441 6.30226 18.5942 6.07765C18.7442 5.85303 18.9575 5.67795 19.207 5.57452C19.4565 5.47109 19.7311 5.44397 19.9961 5.49658C20.261 5.54919 20.5044 5.67917 20.6955 5.87009C20.8866 6.06101 21.0168 6.3043 21.0696 6.5692C21.1224 6.8341 21.0955 7.10872 20.9923 7.35834C20.8891 7.60795 20.7142 7.82137 20.4897 7.97159C20.2652 8.12182 20.0012 8.20212 19.7311 8.20234C19.3688 8.20205 19.0215 8.05808 18.7652 7.80202C18.5089 7.54596 18.3647 7.19871 18.3641 6.83643ZM19.449 3.59228C19.3325 3.59228 19.2208 3.63856 19.1385 3.72093C19.0561 3.8033 19.0098 3.91501 19.0098 4.0315C19.0098 4.14798 19.0561 4.2597 19.1385 4.34207C19.2208 4.42444 19.3325 4.47071 19.449 4.47071C20.1507 4.47129 20.8234 4.75028 21.3196 5.24643C21.8157 5.74258 22.0947 6.41533 22.0953 7.11698C22.0953 7.23373 22.1417 7.3457 22.2242 7.42825C22.3068 7.51081 22.4188 7.55719 22.5355 7.55719C22.6523 7.55719 22.7642 7.51081 22.8468 7.42825C22.9293 7.3457 22.9757 7.23373 22.9757 7.11698C22.9744 6.18222 22.6023 5.28615 21.9412 4.62537C21.28 3.96458 20.3837 3.59305 19.4489 3.59228H19.449ZM19.449 1.82884C19.3325 1.82884 19.2208 1.87511 19.1385 1.95748C19.0561 2.03985 19.0098 2.15156 19.0098 2.26805C19.0098 2.38454 19.0561 2.49625 19.1385 2.57862C19.2208 2.66099 19.3325 2.70727 19.449 2.70727C20.6182 2.70859 21.739 3.1736 22.5657 4.00028C23.3924 4.82696 23.8575 5.94781 23.8588 7.11693C23.8582 7.17498 23.869 7.23258 23.8908 7.2864C23.9126 7.34022 23.9448 7.38919 23.9856 7.43047C24.0264 7.47175 24.075 7.50453 24.1286 7.52689C24.1822 7.54926 24.2397 7.56078 24.2977 7.56078C24.3558 7.56078 24.4133 7.54926 24.4668 7.52689C24.5204 7.50453 24.569 7.47175 24.6098 7.43047C24.6506 7.38919 24.6829 7.34022 24.7046 7.2864C24.7264 7.23258 24.7373 7.17498 24.7366 7.11693C24.7351 5.71499 24.1776 4.37089 23.1863 3.37953C22.195 2.38816 20.851 1.83048 19.449 1.82884ZM19.449 0.065992C19.3325 0.065992 19.2208 0.112266 19.1385 0.194635C19.0561 0.277004 19.0098 0.38872 19.0098 0.505207C19.0098 0.621694 19.0561 0.73341 19.1385 0.815779C19.2208 0.898147 19.3325 0.944422 19.449 0.944422C21.0857 0.945948 22.6549 1.59675 23.8122 2.75399C24.9696 3.91123 25.6205 5.48038 25.6222 7.11704C25.6215 7.17509 25.6324 7.23269 25.6542 7.28651C25.676 7.34033 25.7082 7.3893 25.749 7.43058C25.7898 7.47186 25.8384 7.50464 25.892 7.527C25.9456 7.54937 26.0031 7.56089 26.0611 7.56089C26.1192 7.56089 26.1766 7.54937 26.2302 7.527C26.2838 7.50464 26.3324 7.47186 26.3732 7.43058C26.414 7.3893 26.4463 7.34033 26.468 7.28651C26.4898 7.23269 26.5007 7.17509 26.5 7.11704C26.4982 5.24753 25.7548 3.45511 24.4329 2.13315C23.1109 0.811195 21.3185 0.0677137 19.449 0.0658822V0.065992ZM19.8169 17.6746H14.5421C14.4256 17.6746 14.3139 17.7209 14.2316 17.8033C14.1492 17.8856 14.1029 17.9973 14.1029 18.1138C14.1029 18.2303 14.1492 18.342 14.2316 18.4244C14.3139 18.5068 14.4256 18.553 14.5421 18.553H19.8167C19.9332 18.553 20.0449 18.5068 20.1273 18.4244C20.2097 18.342 20.2559 18.2303 20.2559 18.1138C20.2559 17.9973 20.2097 17.8856 20.1273 17.8033C20.0449 17.7209 19.9332 17.6746 19.8167 17.6746H19.8169ZM10.5855 14.9009H6.50461C6.27534 14.9012 6.05553 14.9924 5.8934 15.1545C5.73127 15.3166 5.64004 15.5363 5.63974 15.7656V17.6883C5.64004 17.9175 5.73127 18.1373 5.8934 18.2994C6.05553 18.4615 6.27534 18.5527 6.50461 18.553H10.5855C10.8148 18.5527 11.0346 18.4615 11.1967 18.2994C11.3589 18.1373 11.4501 17.9175 11.4504 17.6883V15.7656C11.4501 15.5363 11.3589 15.3166 11.1967 15.1545C11.0346 14.9924 10.8148 14.9012 10.5855 14.9009ZM7.35136 17.6746H6.51756V17.1661H7.35136V17.6746ZM7.35136 16.2877H6.51756V15.7794H7.35136V16.2877ZM10.5726 17.6746H9.73876V17.1661H10.5726V17.6746ZM10.5726 16.2877H9.73876V15.7794H10.5726V16.2877ZM19.8167 16.2877H14.5421C14.4256 16.2877 14.3139 16.334 14.2316 16.4164C14.1492 16.4987 14.1029 16.6105 14.1029 16.7269C14.1029 16.8434 14.1492 16.9552 14.2316 17.0375C14.3139 17.1199 14.4256 17.1662 14.5421 17.1662H19.8167C19.9332 17.1662 20.0449 17.1199 20.1273 17.0375C20.2097 16.9552 20.2559 16.8434 20.2559 16.7269C20.2559 16.6105 20.2097 16.4987 20.1273 16.4164C20.0449 16.334 19.9332 16.2877 19.8167 16.2877ZM20.8784 9.1741H17.4994V1.91816C17.4994 0.860916 16.5852 0 15.4613 0H2.03785C0.914061 0 0 0.860916 0 1.91816V26.0817C0 27.1391 0.914061 28 2.03785 28H15.4613C16.5852 28 17.4992 27.1391 17.4992 26.0817V20.8962H20.8784C21.2516 20.896 21.6094 20.7479 21.8735 20.4842C22.1375 20.2205 22.2862 19.8628 22.2869 19.4897V10.5807C22.2861 10.2076 22.1374 9.84996 21.8734 9.58627C21.6094 9.32259 21.2516 9.17436 20.8784 9.1741ZM7.58414 1.60539H9.91747C10.034 1.60539 10.1457 1.65166 10.228 1.73403C10.3104 1.8164 10.3567 1.92811 10.3567 2.0446C10.3567 2.16109 10.3104 2.2728 10.228 2.35517C10.1457 2.43754 10.034 2.48381 9.91747 2.48381H7.58414C7.46765 2.48381 7.35594 2.43754 7.27357 2.35517C7.1912 2.2728 7.14493 2.16109 7.14493 2.0446C7.14493 1.92811 7.1912 1.8164 7.27357 1.73403C7.35594 1.65166 7.46765 1.60539 7.58414 1.60539ZM9.66108 25.3976H7.83834C7.74873 25.3965 7.66318 25.3601 7.60021 25.2963C7.53725 25.2325 7.50194 25.1465 7.50194 25.0569C7.50194 24.9673 7.53725 24.8813 7.60021 24.8175C7.66318 24.7537 7.74873 24.7173 7.83834 24.7162H9.66108C9.75069 24.7173 9.83624 24.7537 9.8992 24.8175C9.96217 24.8813 9.99747 24.9673 9.99747 25.0569C9.99747 25.1465 9.96217 25.2325 9.8992 25.2963C9.83624 25.3601 9.75069 25.3965 9.66108 25.3976ZM16.6214 22.1139H0.877826V4.08915H16.6214V9.1741H5.44297C5.0698 9.1743 4.71195 9.32249 4.44789 9.58616C4.18383 9.84983 4.03511 10.2075 4.03435 10.5806V19.4896C4.03496 19.8628 4.18363 20.2205 4.44772 20.4842C4.71181 20.7479 5.06975 20.8961 5.44297 20.8962H16.6214V22.1139ZM21.4066 19.4896C21.4067 19.559 21.393 19.6277 21.3665 19.6918C21.34 19.7559 21.3011 19.8141 21.252 19.8632C21.203 19.9123 21.1447 19.9512 21.0806 19.9777C21.0165 20.0042 20.9478 20.0178 20.8784 20.0178H5.44297C5.37359 20.0178 5.30488 20.0042 5.24078 19.9777C5.17667 19.9512 5.11842 19.9123 5.06936 19.8632C5.0203 19.8141 4.98139 19.7559 4.95486 19.6918C4.92834 19.6277 4.91471 19.559 4.91476 19.4896V13.4362H21.4066V19.4896ZM21.4066 11.0654H4.9147V10.5807C4.9147 10.5113 4.92835 10.4426 4.9549 10.3785C4.98144 10.3145 5.02035 10.2562 5.0694 10.2072C5.11845 10.1581 5.17668 10.1192 5.24077 10.0927C5.30486 10.0662 5.37355 10.0525 5.44291 10.0525H20.8784C20.9478 10.0525 21.0165 10.0662 21.0805 10.0927C21.1446 10.1192 21.2029 10.1581 21.2519 10.2072C21.301 10.2562 21.3399 10.3145 21.3664 10.3785C21.393 10.4426 21.4066 10.5113 21.4066 10.5807V11.0654Z" fill="#1D1D1B"/>
</svg>
