<svg width="25" height="28" viewBox="0 0 25 28" fill="none" xmlns="http://www.w3.org/2000/svg">
<path d="M22.9898 24.4174H1.56754C0.701812 24.4174 0 25.1192 0 25.9849V26.4325C0 27.2982 0.701812 28 1.56754 28H22.9898C23.8556 28 24.5574 27.2982 24.5574 26.4325V25.9849C24.5574 25.1192 23.8556 24.4174 22.9898 24.4174Z" fill="#1D1D1B"/>
<path d="M17.7709 16.341H18.2689C18.2159 14.9108 17.6506 13.5472 16.6761 12.499L16.325 12.8525C16.2811 12.8901 16.2246 12.9097 16.1668 12.9075C16.1091 12.9052 16.0543 12.8813 16.0134 12.8404C15.9725 12.7996 15.9486 12.7448 15.9463 12.687C15.9441 12.6292 15.9638 12.5728 16.0014 12.5289L16.3525 12.1777C15.304 11.2019 13.9396 10.6357 12.5082 10.5826V11.0807C12.5082 11.1415 12.4841 11.1999 12.441 11.2429C12.398 11.286 12.3396 11.3102 12.2787 11.3102C12.2179 11.3102 12.1595 11.286 12.1165 11.2429C12.0734 11.1999 12.0492 11.1415 12.0492 11.0807V10.5826C10.619 10.6356 9.25547 11.2009 8.20726 12.1754L8.55841 12.5266C8.60163 12.5695 8.62603 12.6278 8.62624 12.6887C8.62646 12.7496 8.60247 12.8081 8.55956 12.8513C8.51664 12.8945 8.45832 12.9189 8.39742 12.9191C8.33651 12.9194 8.27802 12.8954 8.2348 12.8525L7.88366 12.5013C6.90884 13.5486 6.34276 14.9113 6.28857 16.341H6.78661C6.84748 16.341 6.90585 16.3652 6.94889 16.4082C6.99193 16.4512 7.01611 16.5096 7.01611 16.5705C7.01611 16.6314 6.99193 16.6897 6.94889 16.7328C6.90585 16.7758 6.84748 16.8 6.78661 16.8H6.28857C6.34158 18.2302 6.90687 19.5938 7.88136 20.642L8.23251 20.2908C8.27641 20.2532 8.33289 20.2336 8.39065 20.2358C8.44841 20.238 8.50321 20.262 8.54408 20.3029C8.58495 20.3437 8.6089 20.3985 8.61113 20.4563C8.61336 20.514 8.59371 20.5705 8.55611 20.6144L8.20497 20.9656C9.25343 21.9414 10.6179 22.5076 12.0492 22.5607V22.0626C12.0492 22.0018 12.0734 21.9434 12.1165 21.9003C12.1595 21.8573 12.2179 21.8331 12.2787 21.8331C12.3396 21.8331 12.398 21.8573 12.441 21.9003C12.4841 21.9434 12.5082 22.0018 12.5082 22.0626V22.5607C13.9385 22.5076 15.302 21.9424 16.3502 20.9679L15.9991 20.6167C15.9615 20.5728 15.9418 20.5163 15.944 20.4586C15.9463 20.4008 15.9702 20.346 16.0111 20.3052C16.052 20.2643 16.1068 20.2403 16.1645 20.2381C16.2223 20.2359 16.2788 20.2555 16.3227 20.2931L16.6738 20.6443C17.6497 19.5958 18.2158 18.2313 18.2689 16.8H17.7709C17.71 16.8 17.6516 16.7758 17.6086 16.7328C17.5655 16.6897 17.5414 16.6314 17.5414 16.5705C17.5414 16.5096 17.5655 16.4512 17.6086 16.4082C17.6516 16.3652 17.71 16.341 17.7709 16.341ZM15.4437 13.7315L13.0591 16.1161C13.1417 16.2549 13.1853 16.4135 13.1853 16.5751C13.1853 16.7567 13.1315 16.9341 13.0306 17.0851C12.9297 17.2361 12.7863 17.3538 12.6186 17.4232C12.4508 17.4927 12.2662 17.5109 12.0882 17.4755C11.9101 17.4401 11.7465 17.3526 11.6181 17.2242C11.4897 17.0958 11.4023 16.9323 11.3669 16.7542C11.3314 16.5761 11.3496 16.3915 11.4191 16.2238C11.4886 16.056 11.6063 15.9126 11.7572 15.8118C11.9082 15.7109 12.0857 15.6571 12.2673 15.6571C12.4288 15.657 12.5874 15.7006 12.7263 15.7833L15.1178 13.4079C15.1617 13.3703 15.2181 13.3506 15.2759 13.3529C15.3337 13.3551 15.3885 13.379 15.4293 13.4199C15.4702 13.4608 15.4941 13.5156 15.4964 13.5733C15.4986 13.6311 15.479 13.6876 15.4414 13.7315H15.4437Z" fill="#1D1D1B"/>
<path d="M20.4699 11.278C20.3334 10.4349 19.9007 9.66799 19.2495 9.11523C18.5983 8.56248 17.7713 8.26005 16.9172 8.2623H7.64043C6.78627 8.26005 5.95931 8.56248 5.30811 9.11523C4.65692 9.66799 4.22418 10.4349 4.08765 11.278L1.98535 23.9584H22.5722L20.4699 11.278ZM16.8414 21.1354H16.8276C15.6199 22.3403 13.9836 23.0169 12.2776 23.0169C10.5717 23.0169 8.93537 22.3403 7.72765 21.1354H7.71388V21.1216C6.50901 19.9139 5.83236 18.2776 5.83236 16.5716C5.83236 14.8657 6.50901 13.2294 7.71388 12.0216V12.0079H7.72765C8.93537 10.803 10.5717 10.1263 12.2776 10.1263C13.9836 10.1263 15.6199 10.803 16.8276 12.0079H16.8414V12.0216C18.0463 13.2294 18.7229 14.8657 18.7229 16.5716C18.7229 18.2776 18.0463 19.9139 16.8414 21.1216V21.1354Z" fill="#1D1D1B"/>
<path d="M12.2785 16.8C12.2329 16.8003 12.1882 16.7869 12.1503 16.7617C12.1123 16.7365 12.0826 16.7006 12.0652 16.6585C12.0477 16.6164 12.0431 16.57 12.0521 16.5254C12.0611 16.4807 12.0831 16.4396 12.1155 16.4075L12.3863 16.1367C12.3511 16.1277 12.3148 16.1231 12.2785 16.1229C12.1877 16.1229 12.0989 16.1499 12.0234 16.2003C11.948 16.2507 11.8891 16.3224 11.8544 16.4063C11.8196 16.4902 11.8105 16.5825 11.8283 16.6715C11.846 16.7606 11.8897 16.8423 11.9539 16.9065C12.0181 16.9707 12.0999 17.0145 12.1889 17.0322C12.2779 17.0499 12.3702 17.0408 12.4541 17.006C12.538 16.9713 12.6097 16.9125 12.6601 16.837C12.7106 16.7615 12.7375 16.6728 12.7375 16.582C12.7373 16.5456 12.7327 16.5094 12.7237 16.4741L12.4529 16.7449C12.4291 16.7656 12.4014 16.7811 12.3714 16.7906C12.3414 16.8001 12.3098 16.8033 12.2785 16.8ZM20.9998 0H3.55714C3.49628 0 3.4379 0.0241802 3.39486 0.0672214C3.35182 0.110263 3.32764 0.168639 3.32764 0.229508C3.32885 1.09713 3.67405 1.92887 4.28755 2.54238C4.90106 3.15588 5.7328 3.50108 6.60042 3.5023H17.9565C18.8241 3.50108 19.6559 3.15588 20.2694 2.54238C20.8829 1.92887 21.2281 1.09713 21.2293 0.229508C21.2293 0.168639 21.2051 0.110263 21.1621 0.0672214C21.119 0.0241802 21.0606 0 20.9998 0ZM9.29485 3.96131H15.2621V7.80787H9.29485V3.96131Z" fill="#1D1D1B"/>
</svg>
