<svg width="28" height="22" viewBox="0 0 28 22" fill="none" xmlns="http://www.w3.org/2000/svg">
<path d="M17.9692 0H0.906992C0.404105 0 0.00898011 0.395125 0.00898011 0.898012V11.6742C0.00898011 12.1681 0.404105 12.5722 0.906992 12.5722H17.9692C18.4631 12.5722 18.8672 12.1681 18.8672 11.6742V0.898012C18.8672 0.395125 18.4631 0 17.9692 0ZM0 17.0622C0 17.5561 0.404105 17.9602 0.898012 17.9602H1.86786C2.24503 16.0834 3.78961 14.6106 5.71135 14.3682H0.906992C0.583708 14.3682 0.287364 14.3143 0 14.2065V17.0622Z" fill="#1D1D1B"/>
<path d="M25.9886 17.9602H27.1021C27.596 17.9602 28.0001 17.5561 28.0001 17.0622V9.19563C28.0001 7.78575 24.5608 4.49005 22.6749 4.49005H20.6634V11.6741C20.6634 13.1559 19.4511 14.3682 17.9693 14.3682H6.87891C8.80065 14.6106 10.3452 16.0834 10.7224 17.9602H17.1342C17.5473 15.8948 19.3702 14.3233 21.5614 14.3233C23.7436 14.3233 25.5755 15.8948 25.9886 17.9602ZM22.1361 6.69916C26.7339 6.47466 26.5454 11.2251 26.5454 11.2251H22.1361V6.69916Z" fill="#1D1D1B"/>
<path d="M21.5577 21.5469C23.0555 21.5469 24.2697 20.3327 24.2697 18.8349C24.2697 17.3371 23.0555 16.1229 21.5577 16.1229C20.0599 16.1229 18.8457 17.3371 18.8457 18.8349C18.8457 20.3327 20.0599 21.5469 21.5577 21.5469Z" fill="#1D1D1B"/>
<path d="M6.29159 21.5469C7.78938 21.5469 9.00358 20.3327 9.00358 18.8349C9.00358 17.3371 7.78938 16.1229 6.29159 16.1229C4.79379 16.1229 3.57959 17.3371 3.57959 18.8349C3.57959 20.3327 4.79379 21.5469 6.29159 21.5469Z" fill="#1D1D1B"/>
</svg>
