<svg width="54" height="54" viewBox="0 0 54 54" fill="none" xmlns="http://www.w3.org/2000/svg">
<g filter="url(#filter0_d_38_276)">
<circle cx="27" cy="27" r="19" fill="url(#paint0_linear_38_276)"/>
</g>
<path d="M25.4935 28.6893L25.2619 31.9467C25.5932 31.9467 25.7367 31.8044 25.9088 31.6335L27.4623 30.1489L30.6812 32.5062C31.2715 32.8352 31.6875 32.6619 31.8467 31.9631L33.9596 22.0625L33.9602 22.0619C34.1474 21.1892 33.6446 20.848 33.0694 21.0621L20.65 25.8169C19.8023 26.1459 19.8152 26.6185 20.5059 26.8325L23.681 27.8201L31.0563 23.2053C31.4034 22.9755 31.719 23.1026 31.4594 23.3325L25.4935 28.6893Z" fill="white"/>
<defs>
<filter id="filter0_d_38_276" x="0" y="0" width="54" height="54" filterUnits="userSpaceOnUse" color-interpolation-filters="sRGB">
<feFlood flood-opacity="0" result="BackgroundImageFix"/>
<feColorMatrix in="SourceAlpha" type="matrix" values="0 0 0 0 0 0 0 0 0 0 0 0 0 0 0 0 0 0 127 0" result="hardAlpha"/>
<feOffset/>
<feGaussianBlur stdDeviation="4"/>
<feComposite in2="hardAlpha" operator="out"/>
<feColorMatrix type="matrix" values="0 0 0 0 0.329167 0 0 0 0 0.329167 0 0 0 0 0.329167 0 0 0 0.12 0"/>
<feBlend mode="normal" in2="BackgroundImageFix" result="effect1_dropShadow_38_276"/>
<feBlend mode="normal" in="SourceGraphic" in2="effect1_dropShadow_38_276" result="shape"/>
</filter>
<linearGradient id="paint0_linear_38_276" x1="27" y1="8" x2="27" y2="46" gradientUnits="userSpaceOnUse">
<stop stop-color="#41B4E6"/>
<stop offset="1" stop-color="#309FCF"/>
</linearGradient>
</defs>
</svg>
