<svg width="54" height="54" viewBox="0 0 54 54" fill="none" xmlns="http://www.w3.org/2000/svg">
<g filter="url(#filter0_d_38_271)">
<circle cx="27" cy="27" r="19" fill="url(#paint0_linear_38_271)"/>
</g>
<path fill-rule="evenodd" clip-rule="evenodd" d="M23.5524 31.898C23.6334 31.875 23.7183 31.869 23.8018 31.8804C23.8852 31.8918 23.9654 31.9204 24.0372 31.9643C25.2472 32.6852 26.679 32.9392 28.0631 32.6785C29.4473 32.4177 30.6885 31.6602 31.5533 30.5485C32.418 29.4367 32.8468 28.0473 32.759 26.6415C32.6711 25.2358 32.0726 23.9106 31.0762 22.9151C30.0797 21.9197 28.7538 21.3227 27.348 21.2363C25.9421 21.1499 24.5532 21.5802 23.4423 22.4462C22.3315 23.3121 21.5753 24.5541 21.316 25.9385C21.0568 27.323 21.3123 28.7544 22.0344 29.9637C22.0782 30.0353 22.1067 30.1152 22.118 30.1984C22.1293 30.2816 22.1233 30.3662 22.1002 30.447C21.9307 31.0468 21.5217 32.4783 21.5217 32.4783C21.5217 32.4783 22.9532 32.0693 23.5524 31.898ZM20.9796 30.5714C20.1096 29.1047 19.8048 27.3708 20.1227 25.6953C20.4405 24.0198 21.3591 22.518 22.7059 21.4718C24.0527 20.4257 25.7351 19.9072 27.4372 20.0137C29.1392 20.1202 30.7439 20.8444 31.9497 22.0503C33.1556 23.2561 33.8798 24.8608 33.9863 26.5628C34.0928 28.2649 33.5743 29.9473 32.5282 31.2941C31.482 32.6409 29.9802 33.5595 28.3047 33.8773C26.6292 34.1952 24.8953 33.8904 23.4286 33.0204C23.4286 33.0204 21.4879 33.5748 20.5268 33.8496C20.4746 33.8645 20.4194 33.8651 20.3668 33.8515C20.3143 33.8379 20.2663 33.8104 20.228 33.772C20.1896 33.7337 20.1621 33.6857 20.1485 33.6332C20.1349 33.5806 20.1355 33.5254 20.1504 33.4732C20.4252 32.5121 20.9796 30.5714 20.9796 30.5714Z" fill="white"/>
<path fill-rule="evenodd" clip-rule="evenodd" d="M23.6467 25.1088C23.7413 26.4715 24.3229 27.7547 25.2852 28.7242C26.2476 29.6937 27.5264 30.2848 28.8884 30.3895H28.889C29.1065 30.4064 29.325 30.3759 29.5295 30.3002C29.7341 30.2246 29.9199 30.1056 30.074 29.9513L30.2865 29.7389C30.3868 29.6385 30.4431 29.5025 30.4432 29.3606V28.9096C30.4432 28.853 30.4274 28.7976 30.3977 28.7495C30.368 28.7014 30.3255 28.6625 30.2749 28.6372C29.9544 28.4771 29.2588 28.1293 28.9179 27.9589C28.8608 27.9303 28.7961 27.9204 28.733 27.9306C28.6699 27.9408 28.6116 27.9706 28.5664 28.0158C28.3966 28.1856 28.1282 28.4543 27.976 28.6062C27.9406 28.6416 27.897 28.6677 27.8491 28.6823C27.8011 28.6968 27.7503 28.6993 27.7012 28.6895L27.6985 28.6889C27.1093 28.5711 26.5682 28.2815 26.1433 27.8566C25.7185 27.4318 25.4289 26.8907 25.311 26.3015L25.3104 26.2988C25.3006 26.2496 25.3031 26.1988 25.3177 26.1509C25.3322 26.103 25.3584 26.0594 25.3938 26.0239C25.5457 25.8718 25.8144 25.6034 25.9842 25.4336C26.0294 25.3883 26.0591 25.3301 26.0694 25.267C26.0796 25.2039 26.0697 25.1392 26.0411 25.0821C25.8707 24.7412 25.5228 24.0455 25.3628 23.7251C25.3374 23.6745 25.2986 23.632 25.2505 23.6022C25.2024 23.5725 25.1469 23.5568 25.0904 23.5568H24.7069C24.6159 23.5568 24.5258 23.5759 24.4426 23.6129C24.3595 23.6499 24.285 23.704 24.224 23.7716C24.1628 23.8398 24.0925 23.9177 24.0219 23.9962C23.889 24.1437 23.7872 24.3164 23.7224 24.504C23.6577 24.6917 23.6314 24.8904 23.6451 25.0884C23.6457 25.0951 23.646 25.1018 23.6467 25.1088Z" fill="white"/>
<defs>
<filter id="filter0_d_38_271" x="0" y="0" width="54" height="54" filterUnits="userSpaceOnUse" color-interpolation-filters="sRGB">
<feFlood flood-opacity="0" result="BackgroundImageFix"/>
<feColorMatrix in="SourceAlpha" type="matrix" values="0 0 0 0 0 0 0 0 0 0 0 0 0 0 0 0 0 0 127 0" result="hardAlpha"/>
<feOffset/>
<feGaussianBlur stdDeviation="4"/>
<feComposite in2="hardAlpha" operator="out"/>
<feColorMatrix type="matrix" values="0 0 0 0 0.329167 0 0 0 0 0.329167 0 0 0 0 0.329167 0 0 0 0.12 0"/>
<feBlend mode="normal" in2="BackgroundImageFix" result="effect1_dropShadow_38_271"/>
<feBlend mode="normal" in="SourceGraphic" in2="effect1_dropShadow_38_271" result="shape"/>
</filter>
<linearGradient id="paint0_linear_38_271" x1="27" y1="8" x2="27" y2="46" gradientUnits="userSpaceOnUse">
<stop stop-color="#58CE68"/>
<stop offset="1" stop-color="#359E43"/>
</linearGradient>
</defs>
</svg>
