<svg width="16" height="16" viewBox="0 0 16 16" fill="none" xmlns="http://www.w3.org/2000/svg">
<path d="M3.30335 6.47935C3.3508 6.42061 3.40503 6.39124 3.46603 6.39124C3.54963 6.39124 3.59143 6.45902 3.59143 6.59458C3.59143 6.78889 3.57109 6.91881 3.53155 6.98546C3.49201 7.05212 3.43666 7.08488 3.36775 7.08488C3.29883 7.08488 3.25139 7.04195 3.22766 6.95722C3.20394 6.87136 3.17908 6.82391 3.15197 6.81488C3.12486 6.80584 3.07176 6.80245 2.99268 6.80245C2.79724 6.80245 2.55661 6.97755 2.2708 7.32889C1.98498 7.68023 1.84151 7.9909 1.84151 8.26091C1.84151 8.3784 1.87879 8.48233 1.95109 8.57271C2.02452 8.66308 2.12055 8.70827 2.2403 8.70827C2.33858 8.70827 2.43348 8.68907 2.52611 8.65066C2.61875 8.61225 2.75318 8.53204 2.93055 8.41229C3.00285 8.36484 3.05369 8.34111 3.08419 8.34111C3.12599 8.34111 3.16101 8.3558 3.18812 8.3863C3.21524 8.41568 3.22879 8.45183 3.22879 8.49476C3.22879 8.52865 3.21749 8.56254 3.1949 8.59869C3.17231 8.63484 3.09436 8.69923 2.95879 8.78961C2.82323 8.88112 2.69218 8.9489 2.56452 8.99409C2.43686 9.03928 2.31147 9.06074 2.18946 9.06074C1.98498 9.06074 1.81891 8.98731 1.69239 8.84045C1.56473 8.69359 1.50146 8.51961 1.50146 8.31965C1.50146 7.95024 1.68109 7.54693 2.04147 7.10634C2.40184 6.66688 2.73624 6.44659 3.04465 6.44659C3.16666 6.44659 3.25252 6.45676 3.30109 6.47709L3.30335 6.47935Z" fill="#1D1D1B"/>
<path d="M5.0412 7.65082C5.19371 7.78074 5.2694 7.94567 5.2694 8.14789C5.2694 8.40659 5.18128 8.62915 5.00392 8.81442C4.82656 8.99969 4.54187 9.09346 4.14986 9.09346C3.98831 9.09346 3.83015 9.05731 3.67199 8.98614C3.51496 8.91496 3.43701 8.82346 3.43701 8.71049C3.43701 8.64948 3.45735 8.59977 3.49915 8.56136C3.54094 8.52295 3.58726 8.50375 3.6381 8.50375C3.7217 8.50375 3.7827 8.52634 3.82337 8.57153C3.89341 8.65174 3.95216 8.70145 4.00187 8.71952C4.05044 8.7376 4.11823 8.74664 4.20521 8.74664C4.50459 8.74664 4.70229 8.69015 4.79605 8.57831C4.89095 8.46647 4.93727 8.33994 4.93727 8.19986C4.93727 8.10157 4.89999 8.01797 4.8243 7.94793C4.74973 7.87789 4.6458 7.84287 4.51363 7.84287C4.48764 7.84287 4.45036 7.84287 4.40178 7.84626C4.35321 7.84852 4.3148 7.83722 4.28655 7.81237C4.25831 7.78751 4.24362 7.75588 4.24362 7.7186C4.24362 7.65195 4.26396 7.59998 4.30576 7.56383C4.34756 7.52655 4.42212 7.50396 4.52831 7.49266C4.67179 7.47797 4.79831 7.42375 4.90676 7.32998C5.01635 7.23621 5.07057 7.14019 5.07057 7.04303C5.07057 6.97638 5.03329 6.91199 4.95873 6.85098C4.88417 6.78998 4.81413 6.75835 4.74861 6.75835C4.54526 6.75835 4.3645 6.80692 4.20521 6.90295C4.14986 6.93571 4.10693 6.95266 4.0753 6.95266C4.02898 6.95266 3.98944 6.9391 3.95668 6.91199C3.92392 6.88487 3.90697 6.85324 3.90697 6.81822C3.90697 6.70864 3.98944 6.61487 4.15551 6.53692C4.32157 6.45897 4.53509 6.41943 4.79831 6.41943C4.97116 6.41943 5.11576 6.47366 5.23212 6.58098C5.34848 6.68943 5.4061 6.82048 5.4061 6.97412C5.4061 7.08822 5.37672 7.20571 5.31911 7.32772C5.26036 7.44973 5.16773 7.55705 5.03894 7.64969L5.0412 7.65082Z" fill="#1D1D1B"/>
<path d="M7.82831 7.13224L7.31316 8.31505L7.15161 8.6438C7.07027 8.80873 7.00588 8.92509 6.9573 8.99175C6.90872 9.0584 6.84998 9.09229 6.78106 9.09229C6.69634 9.09229 6.64098 8.99514 6.615 8.7997L6.55286 8.08233C6.53592 7.86769 6.52236 7.5604 6.51106 7.16162L6.38906 7.47229L6.01286 8.52066L5.92813 8.79292C5.89311 8.90476 5.86374 8.98045 5.84115 9.02225C5.81855 9.06405 5.79483 9.09229 5.7711 9.10811C5.74738 9.12392 5.71914 9.13183 5.68751 9.13183C5.59826 9.13183 5.5542 9.08438 5.5542 8.98836C5.5542 8.94204 5.57227 8.8494 5.60956 8.71045C5.64571 8.57149 5.70219 8.4122 5.77901 8.23258L6.04901 7.5412L6.23541 6.99781C6.30772 6.78768 6.3755 6.63404 6.43989 6.53915C6.50429 6.44425 6.5732 6.39567 6.64889 6.39567C6.7178 6.39567 6.76412 6.44199 6.78671 6.53576C6.80931 6.62839 6.82286 6.834 6.82738 7.15258C6.82738 7.50844 6.85224 7.96371 6.90194 8.5184C7.11998 8.05635 7.33914 7.54911 7.55943 6.99781L7.64755 6.74249C7.73341 6.49509 7.83847 6.37195 7.96274 6.37195C8.07797 6.37195 8.13559 6.53576 8.13559 6.86337L8.12768 7.38982C8.12768 7.75358 8.14575 8.08911 8.18078 8.39639L8.21693 8.6935C8.23161 8.80647 8.23839 8.89007 8.23839 8.94656C8.23839 9.00869 8.2158 9.05953 8.17061 9.10133C8.12542 9.142 8.0791 9.16233 8.02939 9.16233C7.91981 9.16233 7.85994 9.03807 7.8509 8.7884L7.83395 8.49241C7.82153 8.2676 7.81588 8.0507 7.81588 7.84396C7.81588 7.61237 7.81927 7.374 7.82718 7.13224H7.82831Z" fill="#1D1D1B"/>
<path d="M10.84 7.13224L10.3249 8.31505L10.1633 8.6438C10.082 8.80873 10.0176 8.92509 9.96902 8.99175C9.92044 9.0584 9.8617 9.09229 9.79278 9.09229C9.70806 9.09229 9.6527 8.99514 9.62672 8.7997L9.56458 8.08233C9.54764 7.86769 9.53408 7.5604 9.52278 7.16162L9.40077 7.47229L9.02458 8.52066L8.93985 8.79292C8.9037 8.90476 8.87546 8.98045 8.85286 9.02225C8.83027 9.06405 8.80655 9.09229 8.78282 9.10811C8.7591 9.12392 8.73086 9.13183 8.69922 9.13183C8.60998 9.13183 8.56592 9.08438 8.56592 8.98836C8.56592 8.94204 8.58399 8.8494 8.62127 8.71045C8.65742 8.57149 8.71504 8.4122 8.79073 8.23258L9.06073 7.5412L9.24713 6.99781C9.31943 6.78768 9.38722 6.63404 9.45161 6.53915C9.51487 6.44425 9.58492 6.39567 9.66061 6.39567C9.72952 6.39567 9.77584 6.44199 9.79843 6.53576C9.82103 6.62839 9.83458 6.834 9.8391 7.15258C9.8391 7.50844 9.86396 7.96371 9.91366 8.5184C10.1317 8.05635 10.3509 7.54911 10.5712 6.99781L10.6593 6.74249C10.7451 6.49509 10.8502 6.37195 10.9745 6.37195C11.0897 6.37195 11.1473 6.53576 11.1473 6.86337L11.1394 7.38982C11.1394 7.75358 11.1575 8.08911 11.1925 8.39639L11.2286 8.6935C11.2433 8.80647 11.2501 8.89007 11.2501 8.94656C11.2501 9.00869 11.2275 9.05953 11.1823 9.10133C11.1371 9.142 11.0908 9.16233 11.0411 9.16233C10.9315 9.16233 10.8717 9.03807 10.8626 8.7884L10.8457 8.49241C10.8332 8.2676 10.8276 8.0507 10.8276 7.84396C10.8276 7.61237 10.8321 7.374 10.8389 7.13224H10.84Z" fill="#1D1D1B"/>
<path fill-rule="evenodd" clip-rule="evenodd" d="M2.10016 5.40998C1.01015 6.03936 0.385065 6.88008 0.385065 7.76843C0.385065 8.65678 1.01015 9.4975 2.10016 10.1269C3.18509 10.7533 4.69664 11.1469 6.37657 11.1469C8.0565 11.1469 9.56805 10.7533 10.653 10.1269C11.743 9.4975 12.3681 8.65678 12.3681 7.76843C12.3681 6.88008 11.743 6.03936 10.653 5.40998C9.56805 4.78352 8.0565 4.38995 6.37657 4.38995C4.69664 4.38995 3.18509 4.78352 2.10016 5.40998ZM1.90761 5.07651C3.06091 4.41058 4.64138 4.00488 6.37657 4.00488C8.11175 4.00488 9.69222 4.41058 10.8455 5.07651C11.9938 5.73952 12.7531 6.6843 12.7531 7.76843C12.7531 8.85256 11.9938 9.79734 10.8455 10.4603C9.69222 11.1263 8.11175 11.532 6.37657 11.532C4.64138 11.532 3.06091 11.1263 1.90761 10.4603C0.759372 9.79734 0 8.85256 0 7.76843C0 6.6843 0.759372 5.73952 1.90761 5.07651Z" fill="#1D1D1B"/>
<path fill-rule="evenodd" clip-rule="evenodd" d="M0.628071 3.03262C0.628071 2.92629 0.714271 2.84009 0.820604 2.84009H15.4605C15.5669 2.84009 15.6531 2.92629 15.6531 3.03262C15.6531 3.13895 15.5669 3.22515 15.4605 3.22515H0.820604C0.714271 3.22515 0.628071 3.13895 0.628071 3.03262ZM0.28125 3.50597C0.28125 3.39964 0.36745 3.31344 0.473783 3.31344H15.8073C15.9137 3.31344 15.9999 3.39964 15.9999 3.50597C15.9999 3.6123 15.9137 3.6985 15.8073 3.6985H0.473783C0.36745 3.6985 0.28125 3.6123 0.28125 3.50597Z" fill="#1D1D1B"/>
<path fill-rule="evenodd" clip-rule="evenodd" d="M1.11279 2.55925C1.11279 2.4792 1.17768 2.41431 1.25773 2.41431H15.0233C15.1033 2.41431 15.1682 2.4792 15.1682 2.55925C15.1682 2.6393 15.1033 2.70419 15.0233 2.70419H1.25773C1.17768 2.70419 1.11279 2.6393 1.11279 2.55925Z" fill="#1D1D1B"/>
<path fill-rule="evenodd" clip-rule="evenodd" d="M2.41419 1.61262C2.41419 1.55946 2.45729 1.51636 2.51045 1.51636H13.6799C13.7331 1.51636 13.7762 1.55946 13.7762 1.61262C13.7762 1.66579 13.7331 1.70889 13.6799 1.70889H2.51045C2.45729 1.70889 2.41419 1.66579 2.41419 1.61262ZM1.85498 2.08597C1.85498 2.03281 1.89808 1.98971 1.95125 1.98971H14.3295C14.3826 1.98971 14.4257 2.03281 14.4257 2.08597C14.4257 2.13914 14.3826 2.18224 14.3295 2.18224H1.95125C1.89808 2.18224 1.85498 2.13914 1.85498 2.08597Z" fill="#1D1D1B"/>
<path fill-rule="evenodd" clip-rule="evenodd" d="M2.86963 1.1392C2.86963 1.05915 2.93452 0.994263 3.01457 0.994263H13.2667C13.3467 0.994263 13.4116 1.05915 13.4116 1.1392C13.4116 1.21925 13.3467 1.28414 13.2667 1.28414H3.01457C2.93452 1.28414 2.86963 1.21925 2.86963 1.1392Z" fill="#1D1D1B"/>
<path fill-rule="evenodd" clip-rule="evenodd" d="M4.15416 0.192533C4.15416 0.0861998 4.24036 0 4.34669 0H11.935C12.0413 0 12.1275 0.0861998 12.1275 0.192533C12.1275 0.298865 12.0413 0.385065 11.935 0.385065H4.34669C4.24036 0.385065 4.15416 0.298865 4.15416 0.192533ZM3.44922 0.665881C3.44922 0.559548 3.53542 0.473349 3.64175 0.473349H12.6399C12.7462 0.473349 12.8324 0.559548 12.8324 0.665881C12.8324 0.772214 12.7462 0.858414 12.6399 0.858414H3.64175C3.53542 0.858414 3.44922 0.772214 3.44922 0.665881ZM12.9201 3.35185C13.0264 3.35185 13.1126 3.43805 13.1126 3.54438V15.212C13.1126 15.3184 13.0264 15.4046 12.9201 15.4046C12.8137 15.4046 12.7275 15.3184 12.7275 15.212V3.54438C12.7275 3.43805 12.8137 3.35185 12.9201 3.35185Z" fill="#1D1D1B"/>
<path fill-rule="evenodd" clip-rule="evenodd" d="M13.4093 3.40967C13.4624 3.40967 13.5055 3.45277 13.5055 3.50593V14.8177C13.5055 14.8709 13.4624 14.914 13.4093 14.914C13.3561 14.914 13.313 14.8709 13.313 14.8177V3.50593C13.313 3.45277 13.3561 3.40967 13.4093 3.40967ZM13.8995 3.40967C13.9527 3.40967 13.9958 3.45277 13.9958 3.50593V14.2664C13.9958 14.3196 13.9527 14.3627 13.8995 14.3627C13.8464 14.3627 13.8033 14.3196 13.8033 14.2664V3.50593C13.8033 3.45277 13.8464 3.40967 13.8995 3.40967Z" fill="#1D1D1B"/>
<path fill-rule="evenodd" clip-rule="evenodd" d="M14.8786 3.31226C14.985 3.31226 15.0712 3.39846 15.0712 3.50479V12.321C15.0712 12.4274 14.985 12.5136 14.8786 12.5136C14.7723 12.5136 14.6861 12.4274 14.6861 12.321V3.50479C14.6861 3.39846 14.7723 3.31226 14.8786 3.31226ZM14.3883 3.31339C14.4947 3.31339 14.5809 3.39959 14.5809 3.50592V13.2271C14.5809 13.3334 14.4947 13.4196 14.3883 13.4196C14.282 13.4196 14.1958 13.3334 14.1958 13.2271V3.50592C14.1958 3.39959 14.282 3.31339 14.3883 3.31339Z" fill="#1D1D1B"/>
<path fill-rule="evenodd" clip-rule="evenodd" d="M15.858 3.40857C15.9112 3.40857 15.9543 3.45167 15.9543 3.50484V10.7011C15.9543 10.7543 15.9112 10.7974 15.858 10.7974C15.8049 10.7974 15.7618 10.7543 15.7618 10.7011V3.50484C15.7618 3.45167 15.8049 3.40857 15.858 3.40857ZM15.3678 3.4097C15.4209 3.4097 15.464 3.4528 15.464 3.50597V11.5936C15.464 11.6467 15.4209 11.6898 15.3678 11.6898C15.3146 11.6898 15.2715 11.6467 15.2715 11.5936V3.50597C15.2715 3.4528 15.3146 3.4097 15.3678 3.4097Z" fill="#1D1D1B"/>
<path fill-rule="evenodd" clip-rule="evenodd" d="M0.359375 11.8997C0.359375 11.7934 0.445575 11.7072 0.551908 11.7072H12.8285C12.9348 11.7072 13.021 11.7934 13.021 11.8997C13.021 12.006 12.9348 12.0922 12.8285 12.0922H0.551908C0.445575 12.0922 0.359375 12.006 0.359375 11.8997Z" fill="#1D1D1B"/>
<path fill-rule="evenodd" clip-rule="evenodd" d="M0.754883 12.3731C0.754883 12.293 0.819775 12.2281 0.899823 12.2281H12.8284C12.9085 12.2281 12.9734 12.293 12.9734 12.3731C12.9734 12.4531 12.9085 12.518 12.8284 12.518H0.899823C0.819775 12.518 0.754883 12.4531 0.754883 12.3731Z" fill="#1D1D1B"/>
<path fill-rule="evenodd" clip-rule="evenodd" d="M1.23975 12.8464C1.23975 12.7932 1.28285 12.7501 1.33601 12.7501H12.8286C12.8817 12.7501 12.9248 12.7932 12.9248 12.8464C12.9248 12.8996 12.8817 12.9427 12.8286 12.9427H1.33601C1.28285 12.9427 1.23975 12.8996 1.23975 12.8464ZM1.93339 13.3197C1.93339 13.2666 1.97649 13.2235 2.02965 13.2235H12.8286C12.8817 13.2235 12.9248 13.2666 12.9248 13.3197C12.9248 13.3729 12.8817 13.416 12.8286 13.416H2.02965C1.97649 13.416 1.93339 13.3729 1.93339 13.3197Z" fill="#1D1D1B"/>
<path fill-rule="evenodd" clip-rule="evenodd" d="M2.53418 13.793C2.53418 13.713 2.59907 13.6481 2.67912 13.6481H12.8284C12.9085 13.6481 12.9734 13.713 12.9734 13.793C12.9734 13.8731 12.9085 13.938 12.8284 13.938H2.67912C2.59907 13.938 2.53418 13.8731 2.53418 13.793Z" fill="#1D1D1B"/>
<path fill-rule="evenodd" clip-rule="evenodd" d="M2.8999 14.2665C2.8999 14.1602 2.9861 14.074 3.09243 14.074H12.8283C12.9346 14.074 13.0208 14.1602 13.0208 14.2665C13.0208 14.3728 12.9346 14.459 12.8283 14.459H3.09243C2.9861 14.459 2.8999 14.3728 2.8999 14.2665ZM3.52689 14.7399C3.52689 14.6335 3.61309 14.5473 3.71942 14.5473H12.8283C12.9346 14.5473 13.0208 14.6335 13.0208 14.7399C13.0208 14.8462 12.9346 14.9324 12.8283 14.9324H3.71942C3.61309 14.9324 3.52689 14.8462 3.52689 14.7399ZM4.23183 15.2132C4.23183 15.1069 4.31803 15.0207 4.42436 15.0207H12.8283C12.9346 15.0207 13.0208 15.1069 13.0208 15.2132C13.0208 15.3195 12.9346 15.4057 12.8283 15.4057H4.42436C4.31803 15.4057 4.23183 15.3195 4.23183 15.2132Z" fill="#1D1D1B"/>
</svg>
