<svg width="32" height="31" viewBox="0 0 32 31" fill="none" xmlns="http://www.w3.org/2000/svg">
<path d="M6.60719 12.9588C6.70209 12.8413 6.81054 12.7826 6.93255 12.7826C7.09975 12.7826 7.18335 12.9182 7.18335 13.1893C7.18335 13.5779 7.14268 13.8377 7.0636 13.971C6.98452 14.1044 6.87381 14.1699 6.73598 14.1699C6.59816 14.1699 6.50326 14.084 6.45581 13.9146C6.40836 13.7428 6.35866 13.648 6.30443 13.6299C6.25021 13.6118 6.14401 13.605 5.98585 13.605C5.59497 13.605 5.11372 13.9552 4.54208 14.6579C3.97045 15.3606 3.6835 15.9819 3.6835 16.5219C3.6835 16.7569 3.75806 16.9648 3.90267 17.1455C4.04953 17.3263 4.24158 17.4167 4.48108 17.4167C4.67765 17.4167 4.86744 17.3783 5.05271 17.3014C5.23798 17.2246 5.50686 17.0642 5.86158 16.8247C6.00619 16.7298 6.10786 16.6824 6.16887 16.6824C6.25246 16.6824 6.32251 16.7117 6.37673 16.7727C6.43096 16.8315 6.45807 16.9038 6.45807 16.9896C6.45807 17.0574 6.43548 17.1252 6.39029 17.1975C6.3451 17.2698 6.1892 17.3986 5.91807 17.5793C5.64694 17.7624 5.38485 17.8979 5.12953 17.9883C4.87422 18.0787 4.62342 18.1216 4.37941 18.1216C3.97045 18.1216 3.63832 17.9747 3.38526 17.681C3.12995 17.3873 3.00342 17.0393 3.00342 16.6394C3.00342 15.9006 3.36267 15.094 4.08342 14.2128C4.80418 13.3339 5.47296 12.8933 6.08979 12.8933C6.3338 12.8933 6.50552 12.9136 6.60267 12.9543L6.60719 12.9588Z" fill="#1D1D1B"/>
<path d="M10.0829 15.3018C10.3879 15.5616 10.5393 15.8915 10.5393 16.2959C10.5393 16.8133 10.3631 17.2584 10.0083 17.629C9.6536 17.9995 9.08422 18.187 8.30021 18.187C7.97711 18.187 7.66079 18.1147 7.34447 17.9724C7.03041 17.8301 6.87451 17.647 6.87451 17.4211C6.87451 17.2991 6.91518 17.1997 6.99878 17.1229C7.08238 17.046 7.17501 17.0076 7.27669 17.0076C7.44389 17.0076 7.56589 17.0528 7.64723 17.1432C7.78732 17.3036 7.90481 17.403 8.00422 17.4392C8.10138 17.4753 8.23694 17.4934 8.41092 17.4934C9.00966 17.4934 9.40506 17.3804 9.59259 17.1567C9.78239 16.9331 9.87502 16.68 9.87502 16.3998C9.87502 16.2033 9.80046 16.0361 9.64908 15.896C9.49996 15.7559 9.29209 15.6859 9.02774 15.6859C8.97577 15.6859 8.90121 15.6859 8.80406 15.6926C8.7069 15.6972 8.63008 15.6746 8.5736 15.6249C8.51711 15.5751 8.48774 15.5119 8.48774 15.4373C8.48774 15.304 8.52841 15.2001 8.61201 15.1278C8.6956 15.0532 8.84473 15.008 9.05711 14.9854C9.34406 14.9561 9.59711 14.8476 9.81402 14.6601C10.0332 14.4726 10.1416 14.2805 10.1416 14.0862C10.1416 13.9529 10.0671 13.8241 9.91795 13.7021C9.76883 13.5801 9.62875 13.5168 9.4977 13.5168C9.091 13.5168 8.7295 13.614 8.41092 13.806C8.30021 13.8715 8.21435 13.9054 8.15108 13.9054C8.05845 13.9054 7.97937 13.8783 7.91384 13.8241C7.84832 13.7699 7.81443 13.7066 7.81443 13.6366C7.81443 13.4174 7.97937 13.2299 8.3115 13.074C8.64364 12.9181 9.07067 12.839 9.59711 12.839C9.9428 12.839 10.232 12.9474 10.4647 13.1621C10.6975 13.379 10.8127 13.6411 10.8127 13.9484C10.8127 14.1766 10.7539 14.4115 10.6387 14.6556C10.5212 14.8996 10.3359 15.1142 10.0784 15.2995L10.0829 15.3018Z" fill="#1D1D1B"/>
<path d="M15.6566 14.2646L14.6263 16.6302L14.3032 17.2877C14.1405 17.6176 14.0118 17.8503 13.9146 17.9836C13.8174 18.1169 13.7 18.1847 13.5621 18.1847C13.3927 18.1847 13.282 17.9904 13.23 17.5995L13.1057 16.1648C13.0718 15.7355 13.0447 15.1209 13.0221 14.3234L12.7781 14.9447L12.0257 17.0414L11.8563 17.586C11.7862 17.8096 11.7275 17.961 11.6823 18.0446C11.6371 18.1282 11.5897 18.1847 11.5422 18.2163C11.4948 18.248 11.4383 18.2638 11.375 18.2638C11.1965 18.2638 11.1084 18.1689 11.1084 17.9768C11.1084 17.8842 11.1445 17.6989 11.2191 17.421C11.2914 17.1431 11.4044 16.8245 11.558 16.4653L12.098 15.0825L12.4708 13.9957C12.6154 13.5755 12.751 13.2682 12.8798 13.0784C13.0086 12.8886 13.1464 12.7915 13.2978 12.7915C13.4356 12.7915 13.5282 12.8841 13.5734 13.0716C13.6186 13.2569 13.6457 13.6681 13.6548 14.3053C13.6548 15.017 13.7045 15.9275 13.8039 17.0369C14.24 16.1128 14.6783 15.0983 15.1189 13.9957L15.2951 13.4851C15.4668 12.9903 15.6769 12.744 15.9255 12.744C16.1559 12.744 16.2712 13.0716 16.2712 13.7269L16.2554 14.7798C16.2554 15.5073 16.2915 16.1783 16.3616 16.7929L16.4339 17.3871C16.4632 17.6131 16.4768 17.7803 16.4768 17.8932C16.4768 18.0175 16.4316 18.1192 16.3412 18.2028C16.2508 18.2841 16.1582 18.3248 16.0588 18.3248C15.8396 18.3248 15.7199 18.0763 15.7018 17.5769L15.6679 16.985C15.6431 16.5353 15.6318 16.1015 15.6318 15.688C15.6318 15.2249 15.6385 14.7481 15.6544 14.2646H15.6566Z" fill="#1D1D1B"/>
<path d="M21.6805 14.2646L20.6502 16.6302L20.3271 17.2877C20.1645 17.6176 20.0357 17.8503 19.9385 17.9836C19.8414 18.1169 19.7239 18.1847 19.5861 18.1847C19.4166 18.1847 19.3059 17.9904 19.2539 17.5995L19.1297 16.1648C19.0958 15.7355 19.0686 15.1209 19.0461 14.3234L18.802 14.9447L18.0496 17.0414L17.8802 17.586C17.8079 17.8096 17.7514 17.961 17.7062 18.0446C17.661 18.1282 17.6136 18.1847 17.5661 18.2163C17.5187 18.248 17.4622 18.2638 17.3989 18.2638C17.2204 18.2638 17.1323 18.1689 17.1323 17.9768C17.1323 17.8842 17.1685 17.6989 17.243 17.421C17.3153 17.1431 17.4306 16.8245 17.5819 16.4653L18.1219 15.0825L18.4948 13.9957C18.6394 13.5755 18.7749 13.2682 18.9037 13.0784C19.0302 12.8886 19.1703 12.7915 19.3217 12.7915C19.4595 12.7915 19.5522 12.8841 19.5974 13.0716C19.6425 13.2569 19.6697 13.6681 19.6787 14.3053C19.6787 15.017 19.7284 15.9275 19.8278 17.0369C20.2639 16.1128 20.7022 15.0983 21.1428 13.9957L21.319 13.4851C21.4907 12.9903 21.7009 12.744 21.9494 12.744C22.1799 12.744 22.2951 13.0716 22.2951 13.7269L22.2793 14.7798C22.2793 15.5073 22.3154 16.1783 22.3855 16.7929L22.4578 17.3871C22.4872 17.6131 22.5007 17.7803 22.5007 17.8932C22.5007 18.0175 22.4555 18.1192 22.3651 18.2028C22.2748 18.2841 22.1821 18.3248 22.0827 18.3248C21.8636 18.3248 21.7438 18.0763 21.7257 17.5769L21.6918 16.985C21.667 16.5353 21.6557 16.1015 21.6557 15.688C21.6557 15.2249 21.6647 14.7481 21.6783 14.2646H21.6805Z" fill="#1D1D1B"/>
<path fill-rule="evenodd" clip-rule="evenodd" d="M4.20031 10.8201C2.02031 12.0788 0.77013 13.7603 0.77013 15.537C0.77013 17.3137 2.02031 18.9951 4.20031 20.2539C6.37018 21.5068 9.39328 22.2939 12.7531 22.2939C16.113 22.2939 19.1361 21.5068 21.306 20.2539C23.486 18.9951 24.7361 17.3137 24.7361 15.537C24.7361 13.7603 23.486 12.0788 21.306 10.8201C19.1361 9.56717 16.113 8.78002 12.7531 8.78002C9.39328 8.78002 6.37018 9.56717 4.20031 10.8201ZM3.81522 10.1531C6.12183 8.82128 9.28276 8.00989 12.7531 8.00989C16.2235 8.00989 19.3844 8.82128 21.6911 10.1531C23.9875 11.4792 25.5063 13.3687 25.5063 15.537C25.5063 17.7052 23.9875 19.5948 21.6911 20.9208C19.3844 22.2527 16.2235 23.0641 12.7531 23.0641C9.28276 23.0641 6.12183 22.2527 3.81522 20.9208C1.51874 19.5948 0 17.7052 0 15.537C0 13.3687 1.51874 11.4792 3.81522 10.1531Z" fill="#1D1D1B"/>
<path fill-rule="evenodd" clip-rule="evenodd" d="M1.25614 6.06512C1.25614 5.85245 1.42854 5.68005 1.64121 5.68005H30.921C31.1337 5.68005 31.3061 5.85245 31.3061 6.06512C31.3061 6.27778 31.1337 6.45018 30.921 6.45018H1.64121C1.42854 6.45018 1.25614 6.27778 1.25614 6.06512ZM0.5625 7.01182C0.5625 6.79915 0.7349 6.62675 0.947565 6.62675H31.6147C31.8273 6.62675 31.9997 6.79915 31.9997 7.01182C31.9997 7.22448 31.8273 7.39688 31.6147 7.39688H0.947565C0.7349 7.39688 0.5625 7.22448 0.5625 7.01182Z" fill="#1D1D1B"/>
<path fill-rule="evenodd" clip-rule="evenodd" d="M2.22559 5.11849C2.22559 4.9584 2.35537 4.82861 2.51547 4.82861H30.0465C30.2066 4.82861 30.3364 4.9584 30.3364 5.11849C30.3364 5.27859 30.2066 5.40837 30.0465 5.40837H2.51547C2.35537 5.40837 2.22559 5.27859 2.22559 5.11849Z" fill="#1D1D1B"/>
<path fill-rule="evenodd" clip-rule="evenodd" d="M4.82886 3.22525C4.82886 3.11891 4.91506 3.03271 5.0214 3.03271H27.3603C27.4666 3.03271 27.5528 3.11891 27.5528 3.22525C27.5528 3.33158 27.4666 3.41778 27.3603 3.41778H5.0214C4.91506 3.41778 4.82886 3.33158 4.82886 3.22525ZM3.71045 4.17194C3.71045 4.06561 3.79665 3.97941 3.90298 3.97941H28.6595C28.7658 3.97941 28.852 4.06561 28.852 4.17194C28.852 4.27828 28.7658 4.36448 28.6595 4.36448H3.90298C3.79665 4.36448 3.71045 4.27828 3.71045 4.17194Z" fill="#1D1D1B"/>
<path fill-rule="evenodd" clip-rule="evenodd" d="M5.73975 2.27841C5.73975 2.11831 5.86953 1.98853 6.02963 1.98853H26.5339C26.694 1.98853 26.8237 2.11831 26.8237 2.27841C26.8237 2.4385 26.694 2.56829 26.5339 2.56829H6.02963C5.86953 2.56829 5.73975 2.4385 5.73975 2.27841Z" fill="#1D1D1B"/>
<path fill-rule="evenodd" clip-rule="evenodd" d="M8.30783 0.385065C8.30783 0.1724 8.48023 0 8.69289 0H23.8694C24.0821 0 24.2545 0.1724 24.2545 0.385065C24.2545 0.597731 24.0821 0.77013 23.8694 0.77013H8.69289C8.48023 0.77013 8.30783 0.597731 8.30783 0.385065ZM6.89795 1.33176C6.89795 1.1191 7.07035 0.946697 7.28301 0.946697H25.2793C25.492 0.946697 25.6644 1.1191 25.6644 1.33176C25.6644 1.54443 25.492 1.71683 25.2793 1.71683H7.28301C7.07035 1.71683 6.89795 1.54443 6.89795 1.33176ZM25.8396 6.7037C26.0523 6.7037 26.2247 6.8761 26.2247 7.08877V30.4241C26.2247 30.6367 26.0523 30.8091 25.8396 30.8091C25.627 30.8091 25.4546 30.6367 25.4546 30.4241V7.08877C25.4546 6.8761 25.627 6.7037 25.8396 6.7037Z" fill="#1D1D1B"/>
<path fill-rule="evenodd" clip-rule="evenodd" d="M26.8185 6.81946C26.9248 6.81946 27.011 6.90566 27.011 7.01199V29.6356C27.011 29.7419 26.9248 29.8281 26.8185 29.8281C26.7122 29.8281 26.626 29.7419 26.626 29.6356V7.01199C26.626 6.90566 26.7122 6.81946 26.8185 6.81946ZM27.7991 6.81946C27.9054 6.81946 27.9916 6.90566 27.9916 7.01199V28.533C27.9916 28.6393 27.9054 28.7255 27.7991 28.7255C27.6928 28.7255 27.6066 28.6393 27.6066 28.533V7.01199C27.6066 6.90566 27.6928 6.81946 27.7991 6.81946Z" fill="#1D1D1B"/>
<path fill-rule="evenodd" clip-rule="evenodd" d="M29.7577 6.62463C29.9704 6.62463 30.1428 6.79703 30.1428 7.0097V24.6422C30.1428 24.8549 29.9704 25.0273 29.7577 25.0273C29.5451 25.0273 29.3727 24.8549 29.3727 24.6422V7.0097C29.3727 6.79703 29.5451 6.62463 29.7577 6.62463ZM28.7772 6.62689C28.9898 6.62689 29.1622 6.79929 29.1622 7.01196V26.4543C29.1622 26.6669 28.9898 26.8393 28.7772 26.8393C28.5645 26.8393 28.3921 26.6669 28.3921 26.4543V7.01196C28.3921 6.79929 28.5645 6.62689 28.7772 6.62689Z" fill="#1D1D1B"/>
<path fill-rule="evenodd" clip-rule="evenodd" d="M31.7166 6.81714C31.8229 6.81714 31.9091 6.90334 31.9091 7.00967V21.4022C31.9091 21.5085 31.8229 21.5947 31.7166 21.5947C31.6102 21.5947 31.524 21.5085 31.524 21.4022V7.00967C31.524 6.90334 31.6102 6.81714 31.7166 6.81714ZM30.736 6.8194C30.8423 6.8194 30.9285 6.9056 30.9285 7.01193V23.1871C30.9285 23.2935 30.8423 23.3797 30.736 23.3797C30.6297 23.3797 30.5435 23.2935 30.5435 23.1871V7.01193C30.5435 6.9056 30.6297 6.8194 30.736 6.8194Z" fill="#1D1D1B"/>
<path fill-rule="evenodd" clip-rule="evenodd" d="M0.718262 23.7995C0.718262 23.5868 0.890661 23.4144 1.10333 23.4144H25.6564C25.8691 23.4144 26.0415 23.5868 26.0415 23.7995C26.0415 24.0122 25.8691 24.1846 25.6564 24.1846H1.10333C0.890661 24.1846 0.718262 24.0122 0.718262 23.7995Z" fill="#1D1D1B"/>
<path fill-rule="evenodd" clip-rule="evenodd" d="M1.51025 24.7462C1.51025 24.5861 1.64004 24.4563 1.80013 24.4563H25.6574C25.8175 24.4563 25.9472 24.5861 25.9472 24.7462C25.9472 24.9063 25.8175 25.0361 25.6574 25.0361H1.80013C1.64004 25.0361 1.51025 24.9063 1.51025 24.7462Z" fill="#1D1D1B"/>
<path fill-rule="evenodd" clip-rule="evenodd" d="M2.47949 25.6928C2.47949 25.5864 2.56569 25.5002 2.67202 25.5002H25.6571C25.7634 25.5002 25.8496 25.5864 25.8496 25.6928C25.8496 25.7991 25.7634 25.8853 25.6571 25.8853H2.67202C2.56569 25.8853 2.47949 25.7991 2.47949 25.6928ZM3.86678 26.6395C3.86678 26.5331 3.95298 26.4469 4.05931 26.4469H25.6571C25.7634 26.4469 25.8496 26.5331 25.8496 26.6395C25.8496 26.7458 25.7634 26.832 25.6571 26.832H4.05931C3.95298 26.832 3.86678 26.7458 3.86678 26.6395Z" fill="#1D1D1B"/>
<path fill-rule="evenodd" clip-rule="evenodd" d="M5.06836 27.586C5.06836 27.4259 5.19814 27.2961 5.35824 27.2961H25.6569C25.817 27.2961 25.9468 27.4259 25.9468 27.586C25.9468 27.7461 25.817 27.8759 25.6569 27.8759H5.35824C5.19814 27.8759 5.06836 27.7461 5.06836 27.586Z" fill="#1D1D1B"/>
<path fill-rule="evenodd" clip-rule="evenodd" d="M5.7998 28.5331C5.7998 28.3205 5.9722 28.1481 6.18487 28.1481H25.6566C25.8692 28.1481 26.0416 28.3205 26.0416 28.5331C26.0416 28.7458 25.8692 28.9182 25.6566 28.9182H6.18487C5.9722 28.9182 5.7998 28.7458 5.7998 28.5331ZM7.05378 29.4798C7.05378 29.2672 7.22618 29.0948 7.43885 29.0948H25.6566C25.8692 29.0948 26.0416 29.2672 26.0416 29.4798C26.0416 29.6925 25.8692 29.8649 25.6566 29.8649H7.43885C7.22618 29.8649 7.05378 29.6925 7.05378 29.4798ZM8.46366 30.4265C8.46366 30.2139 8.63606 30.0415 8.84873 30.0415H25.6566C25.8692 30.0415 26.0416 30.2139 26.0416 30.4265C26.0416 30.6392 25.8692 30.8116 25.6566 30.8116H8.84873C8.63606 30.8116 8.46366 30.6392 8.46366 30.4265Z" fill="#1D1D1B"/>
</svg>
